<svg width="797" height="539" viewBox="0 0 797 539" fill="none" xmlns="http://www.w3.org/2000/svg">
<g style="mix-blend-mode:luminosity">
<path d="M789.098 170.541C781.762 167.296 778.409 170.006 775.747 167.296C773.085 164.586 783.083 157.706 763.066 150.777C763.066 150.777 761.725 135.864 734.372 135.329C707.019 134.794 714.355 150.241 707.019 153.974C699.683 157.706 697.671 151.848 690.335 155.596C682.999 159.345 686.271 166.777 680.337 167.847C674.85 168.821 667.717 164.05 660.93 166.03C658.666 159.999 655.529 154.199 651.582 148.749C626.81 114.786 572.795 99.127 530.506 89.5695C395.917 59.1767 363.361 133.804 279.941 174.906C196.521 216.009 98.47 178.152 50.8363 207.668C3.20253 237.185 -12.6889 310.513 10.5589 344.33C33.8068 378.147 85.2203 389.165 93.1661 405.375C101.112 421.586 98.6325 426.892 98.6325 426.892H722.504C727.381 426.892 740.265 406.041 742.826 401.984C757.213 378.926 758.961 356.046 733.701 338.326C709.316 321.223 667.148 310.465 664.181 278.676C661.214 246.888 671.416 210.751 664.527 178.509H794.382C794.382 178.509 796.434 173.738 789.098 170.541ZM275.674 355.381H106.863C106.863 355.381 111.537 352.719 115.54 350.512C119.543 348.306 126.209 350.512 129.542 350.512C132.874 350.512 132.874 347.267 140.231 343.6C147.587 339.933 155.574 345.726 161.568 344.655C167.563 343.584 164.251 336.136 171.587 332.403C178.923 328.671 180.935 334.529 188.271 330.781C195.607 327.032 188.271 311.584 215.624 312.12C242.977 312.655 244.318 327.584 244.318 327.584C264.334 334.497 254.316 341.426 256.998 344.087C259.681 346.748 262.993 344.087 270.35 347.332C277.706 350.577 275.674 355.381 275.674 355.381ZM549.466 118.096H441.132C441.132 118.096 444.119 116.473 446.7 115.029C449.281 113.585 453.549 115.029 455.682 115.029C457.816 115.029 457.836 112.968 462.531 110.583C467.225 108.198 472.387 111.946 476.248 111.265C480.109 110.583 477.955 105.796 482.669 103.395C487.384 100.993 488.664 104.758 493.379 102.372C498.093 99.987 493.379 90.0562 510.937 90.397C528.494 90.7378 529.348 100.312 529.348 100.312C542.191 104.758 535.769 109.204 537.477 110.924C539.184 112.644 541.338 110.924 546.052 112.968C550.767 115.013 549.466 118.096 549.466 118.096Z" fill="#98A1AB"/>
<path d="M350.153 35.2257C342.796 31.9804 339.463 34.6902 336.801 31.9804C334.139 29.2705 344.137 22.3903 324.121 15.4615C324.121 15.4615 322.779 0.549072 295.427 0.0135882C268.074 -0.521896 275.41 14.926 268.074 18.6582C260.738 22.3903 258.726 16.5325 251.39 20.2809C244.054 24.0292 247.325 31.4611 241.371 32.5321C235.417 33.603 227.37 27.664 220.034 31.4611C212.698 35.2582 212.677 38.3899 209.344 38.3899C206.012 38.3899 199.346 36.2642 195.343 38.3899C191.34 40.5157 186.666 43.258 186.666 43.258H355.477C355.477 43.258 357.489 38.4711 350.153 35.2257Z" fill="#98A1AB"/>
<g opacity="0.7">
<path d="M789.098 170.541C781.762 167.296 778.409 170.006 775.747 167.296C773.085 164.586 783.083 157.706 763.066 150.777C763.066 150.777 761.725 135.864 734.372 135.329C707.019 134.794 714.355 150.241 707.019 153.974C699.683 157.706 697.671 151.848 690.335 155.596C682.999 159.345 686.271 166.777 680.337 167.847C674.85 168.821 667.717 164.05 660.93 166.03C658.666 159.999 655.529 154.199 651.582 148.749C626.81 114.786 572.795 99.127 530.506 89.5695C395.917 59.1767 363.361 133.804 279.941 174.906C196.521 216.009 98.47 178.152 50.8363 207.668C3.20253 237.185 -12.6889 310.513 10.5589 344.33C33.8068 378.147 85.2203 389.165 93.1661 405.375C101.112 421.586 98.6325 426.892 98.6325 426.892H722.504C727.381 426.892 740.265 406.041 742.826 401.984C757.213 378.926 758.961 356.046 733.701 338.326C709.316 321.223 667.148 310.465 664.181 278.676C661.214 246.888 671.416 210.751 664.527 178.509H794.382C794.382 178.509 796.434 173.738 789.098 170.541ZM275.674 355.381H106.863C106.863 355.381 111.537 352.719 115.54 350.512C119.543 348.306 126.209 350.512 129.542 350.512C132.874 350.512 132.874 347.267 140.231 343.6C147.587 339.933 155.574 345.726 161.568 344.655C167.563 343.584 164.251 336.136 171.587 332.403C178.923 328.671 180.935 334.529 188.271 330.781C195.607 327.032 188.271 311.584 215.624 312.12C242.977 312.655 244.318 327.584 244.318 327.584C264.334 334.497 254.316 341.426 256.998 344.087C259.681 346.748 262.993 344.087 270.35 347.332C277.706 350.577 275.674 355.381 275.674 355.381ZM549.466 118.096H441.132C441.132 118.096 444.119 116.473 446.7 115.029C449.281 113.585 453.549 115.029 455.682 115.029C457.816 115.029 457.836 112.968 462.531 110.583C467.225 108.198 472.387 111.946 476.248 111.265C480.109 110.583 477.955 105.796 482.669 103.395C487.384 100.993 488.664 104.758 493.379 102.372C498.093 99.987 493.379 90.0562 510.937 90.397C528.494 90.7378 529.348 100.312 529.348 100.312C542.191 104.758 535.769 109.204 537.477 110.924C539.184 112.644 541.338 110.924 546.052 112.968C550.767 115.013 549.466 118.096 549.466 118.096Z" fill="white"/>
<path d="M350.153 35.2257C342.796 31.9804 339.463 34.6902 336.801 31.9804C334.139 29.2705 344.137 22.3903 324.121 15.4615C324.121 15.4615 322.779 0.549072 295.427 0.0135882C268.074 -0.521896 275.41 14.926 268.074 18.6582C260.738 22.3903 258.726 16.5325 251.39 20.2809C244.054 24.0292 247.325 31.4611 241.371 32.5321C235.417 33.603 227.37 27.664 220.034 31.4611C212.698 35.2582 212.677 38.3899 209.344 38.3899C206.012 38.3899 199.346 36.2642 195.343 38.3899C191.34 40.5157 186.666 43.258 186.666 43.258H355.477C355.477 43.258 357.489 38.4711 350.153 35.2257Z" fill="white"/>
</g>
<path d="M776.722 322.148L796.556 364.581H783.042L769.528 331.494L776.722 322.148Z" fill="white" stroke="#2E353A" stroke-width="0.887535" stroke-linecap="round" stroke-linejoin="round"/>
<path d="M787.533 426.924H608.886V354.034L774.751 333.799L787.533 361.936V426.924Z" fill="#2E353A"/>
<path d="M633.496 206.338H400.489V426.925H633.496V206.338Z" fill="#2E353A"/>
<path d="M386.142 224.17L376.225 213.915L518.293 126.339L657.76 212.325L647.863 222.58L518.293 142.696L386.142 224.17Z" fill="#2E353A"/>
<path d="M590.861 206.338H357.854V426.925H590.861V206.338Z" fill="white" stroke="#2E353A" stroke-width="0.887535" stroke-linecap="round" stroke-linejoin="round"/>
<path d="M474.358 134.517L357.854 206.337H590.861L474.358 134.517Z" fill="white" stroke="#2E353A" stroke-width="0.887535" stroke-linejoin="round"/>
<g style="mix-blend-mode:multiply">
<path d="M474.358 134.517L357.854 206.337V222.694L384.394 206.337L474.358 150.874L564.342 206.337L590.861 222.694V206.337L474.358 134.517Z" fill="#80BBFF"/>
</g>
<path d="M769.528 354.034H590.861V426.925H769.528V354.034Z" fill="white" stroke="#2E353A" stroke-width="0.887535" stroke-linecap="round" stroke-linejoin="round"/>
<path d="M751.523 354.034H608.886V426.925H751.523V354.034Z" fill="#80BBFF" stroke="#2E353A" stroke-width="0.887535" stroke-linecap="round" stroke-linejoin="round"/>
<g style="mix-blend-mode:multiply">
<path d="M769.528 354.034H590.861V369.661H769.528V354.034Z" fill="#80BBFF"/>
</g>
<path d="M608.886 375.372H751.503" stroke="#2E353A" stroke-width="0.887535" stroke-linecap="round" stroke-linejoin="round"/>
<path d="M608.886 386.162H751.503" stroke="#2E353A" stroke-width="0.887535" stroke-linecap="round" stroke-linejoin="round"/>
<path d="M608.886 396.954H751.503" stroke="#2E353A" stroke-width="0.887535" stroke-linecap="round" stroke-linejoin="round"/>
<path d="M608.886 407.744H751.503" stroke="#2E353A" stroke-width="0.887535" stroke-linecap="round" stroke-linejoin="round"/>
<path d="M608.886 418.535H751.503" stroke="#2E353A" stroke-width="0.887535" stroke-linecap="round" stroke-linejoin="round"/>
<path d="M423.92 345.401H377.079V426.925H423.92V345.401Z" fill="#2E353A"/>
<path d="M495.37 345.401H448.529V401.984H495.37V345.401Z" fill="white" stroke="#2E353A" stroke-width="0.887535" stroke-linecap="round" stroke-linejoin="round"/>
<path d="M495.37 371.299H448.529V376.102H495.37V371.299Z" fill="#2E353A"/>
<path d="M474.968 345.401H468.952V401.984H474.968V345.401Z" fill="#2E353A"/>
<path d="M581.249 345.401H534.408V401.984H581.249V345.401Z" fill="white" stroke="#2E353A" stroke-width="0.887535" stroke-linecap="round" stroke-linejoin="round"/>
<path d="M581.249 371.299H534.408V376.102H581.249V371.299Z" fill="#2E353A"/>
<path d="M560.846 345.401H554.831V401.984H560.846V345.401Z" fill="#2E353A"/>
<path d="M520.894 345.401H511.912V426.925H520.894V345.401Z" fill="white" stroke="#2E353A" stroke-width="0.887535" stroke-linecap="round" stroke-linejoin="round"/>
<path d="M442.371 345.401H433.389V426.925H442.371V345.401Z" fill="white" stroke="#2E353A" stroke-width="0.887535" stroke-linecap="round" stroke-linejoin="round"/>
<path d="M581.249 348.76H368.665V359.308H581.249V348.76Z" fill="#2E353A"/>
<path d="M581.249 343.486H368.665V354.034H581.249V343.486Z" fill="#80BBFF" stroke="#2E353A" stroke-width="0.887535" stroke-linecap="round" stroke-linejoin="round"/>
<path d="M342.206 224.17L332.29 213.915L474.358 126.339L613.824 212.325L603.928 222.58L474.358 142.696L342.206 224.17Z" fill="white" stroke="#2E353A" stroke-width="0.887535" stroke-linejoin="round"/>
<path d="M769.528 364.581H573.1L591.126 322.148H776.722L769.528 364.581Z" fill="#2E353A"/>
<path d="M613.825 212.325H654.061L518.293 126.339H474.358L613.825 212.325Z" fill="#2E353A"/>
<path d="M603.928 222.581H647.863L657.76 212.325H613.825L603.928 222.581Z" fill="#2E353A"/>
<path d="M402.298 238.953H377.079V271.569H402.298V238.953Z" fill="white" stroke="#2E353A" stroke-width="0.887535" stroke-linecap="round" stroke-linejoin="round"/>
<path d="M402.298 255.262H377.079V271.569H402.298V255.262Z" fill="#2E353A"/>
<path d="M402.298 253.444H377.079V257.079H402.298V253.444Z" fill="white" stroke="#2E353A" stroke-width="0.887535" stroke-linecap="round" stroke-linejoin="round"/>
<path d="M402.298 285.946H377.079V318.562H402.298V285.946Z" fill="white" stroke="#2E353A" stroke-width="0.887535" stroke-linecap="round" stroke-linejoin="round"/>
<path d="M402.298 302.092H377.079V318.546H402.298V302.092Z" fill="#2E353A"/>
<path d="M572.836 238.953H547.617V271.569H572.836V238.953Z" fill="white" stroke="#2E353A" stroke-width="0.887535" stroke-linecap="round" stroke-linejoin="round"/>
<path d="M572.836 255.262H547.617V271.569H572.836V255.262Z" fill="#2E353A"/>
<path d="M572.836 285.946H547.617V318.562H572.836V285.946Z" fill="white" stroke="#2E353A" stroke-width="0.887535" stroke-linecap="round" stroke-linejoin="round"/>
<path d="M572.836 300.274H547.617V318.546H572.836V300.274Z" fill="#2E353A"/>
<path d="M484.56 238.953H459.34V271.569H484.56V238.953Z" fill="white" stroke="#2E353A" stroke-width="0.887535" stroke-linecap="round" stroke-linejoin="round"/>
<path d="M484.56 255.262H459.34V271.569H484.56V255.262Z" fill="#2E353A"/>
<path d="M484.559 285.946H459.34V318.562H484.559V285.946Z" fill="white" stroke="#2E353A" stroke-width="0.887535" stroke-linecap="round" stroke-linejoin="round"/>
<path d="M484.56 300.274H459.34V318.546H484.56V300.274Z" fill="#2E353A"/>
<path d="M484.56 253.444H459.34V257.079H484.56V253.444Z" fill="white" stroke="#2E353A" stroke-width="0.887535" stroke-linecap="round" stroke-linejoin="round"/>
<path d="M572.836 253.444H547.617V257.079H572.836V253.444Z" fill="white" stroke="#2E353A" stroke-width="0.887535" stroke-linecap="round" stroke-linejoin="round"/>
<path d="M402.298 298.457H377.079V302.092H402.298V298.457Z" fill="white" stroke="#2E353A" stroke-width="0.887535" stroke-linecap="round" stroke-linejoin="round"/>
<path d="M484.56 298.457H459.34V302.092H484.56V298.457Z" fill="white" stroke="#2E353A" stroke-width="0.887535" stroke-linecap="round" stroke-linejoin="round"/>
<path d="M572.836 298.457H547.617V302.092H572.836V298.457Z" fill="white" stroke="#2E353A" stroke-width="0.887535" stroke-linecap="round" stroke-linejoin="round"/>
<path d="M378.399 216.171V224.171" stroke="#2E353A" stroke-width="0.887535" stroke-linecap="round" stroke-linejoin="round"/>
<path d="M396.425 216.171V224.171" stroke="#2E353A" stroke-width="0.887535" stroke-linecap="round" stroke-linejoin="round"/>
<path d="M386.142 224.171V232.17" stroke="#2E353A" stroke-width="0.887535" stroke-linecap="round" stroke-linejoin="round"/>
<path d="M406.728 224.171V232.17" stroke="#2E353A" stroke-width="0.887535" stroke-linecap="round" stroke-linejoin="round"/>
<path d="M370.413 224.171H411.585" stroke="#2E353A" stroke-width="0.887535" stroke-linecap="round" stroke-linejoin="round"/>
<path d="M378.399 323.024V331.024" stroke="#2E353A" stroke-width="0.887535" stroke-linecap="round" stroke-linejoin="round"/>
<path d="M396.425 323.024V331.024" stroke="#2E353A" stroke-width="0.887535" stroke-linecap="round" stroke-linejoin="round"/>
<path d="M386.142 331.024V339.024" stroke="#2E353A" stroke-width="0.887535" stroke-linecap="round" stroke-linejoin="round"/>
<path d="M406.728 331.024V339.024" stroke="#2E353A" stroke-width="0.887535" stroke-linecap="round" stroke-linejoin="round"/>
<path d="M370.413 331.024H411.585" stroke="#2E353A" stroke-width="0.887535" stroke-linecap="round" stroke-linejoin="round"/>
<path d="M414.917 247.245V255.261" stroke="#2E353A" stroke-width="0.887535" stroke-linecap="round" stroke-linejoin="round"/>
<path d="M432.943 247.245V255.261" stroke="#2E353A" stroke-width="0.887535" stroke-linecap="round" stroke-linejoin="round"/>
<path d="M422.66 255.262V263.261" stroke="#2E353A" stroke-width="0.887535" stroke-linecap="round" stroke-linejoin="round"/>
<path d="M443.246 255.262V263.261" stroke="#2E353A" stroke-width="0.887535" stroke-linecap="round" stroke-linejoin="round"/>
<path d="M406.931 255.262H448.102" stroke="#2E353A" stroke-width="0.887535" stroke-linecap="round" stroke-linejoin="round"/>
<path d="M414.917 263.261H448.102" stroke="#2E353A" stroke-width="0.887535" stroke-linecap="round" stroke-linejoin="round"/>
<path d="M414.917 263.553V271.553" stroke="#2E353A" stroke-width="0.887535" stroke-linecap="round" stroke-linejoin="round"/>
<path d="M432.943 263.553V271.553" stroke="#2E353A" stroke-width="0.887535" stroke-linecap="round" stroke-linejoin="round"/>
<path d="M422.66 271.553V279.553" stroke="#2E353A" stroke-width="0.887535" stroke-linecap="round" stroke-linejoin="round"/>
<path d="M443.246 271.553V279.553" stroke="#2E353A" stroke-width="0.887535" stroke-linecap="round" stroke-linejoin="round"/>
<path d="M406.931 271.553H448.102" stroke="#2E353A" stroke-width="0.887535" stroke-linecap="round" stroke-linejoin="round"/>
<path d="M504.698 300.631V308.63" stroke="#2E353A" stroke-width="0.887535" stroke-linecap="round" stroke-linejoin="round"/>
<path d="M522.723 300.631V308.63" stroke="#2E353A" stroke-width="0.887535" stroke-linecap="round" stroke-linejoin="round"/>
<path d="M512.441 308.631V316.631" stroke="#2E353A" stroke-width="0.887535" stroke-linecap="round" stroke-linejoin="round"/>
<path d="M533.026 308.631V316.631" stroke="#2E353A" stroke-width="0.887535" stroke-linecap="round" stroke-linejoin="round"/>
<path d="M496.712 308.631H537.883" stroke="#2E353A" stroke-width="0.887535" stroke-linecap="round" stroke-linejoin="round"/>
<path d="M504.698 316.631H537.883" stroke="#2E353A" stroke-width="0.887535" stroke-linecap="round" stroke-linejoin="round"/>
<path d="M504.698 316.939V324.939" stroke="#2E353A" stroke-width="0.887535" stroke-linecap="round" stroke-linejoin="round"/>
<path d="M522.723 316.939V324.939" stroke="#2E353A" stroke-width="0.887535" stroke-linecap="round" stroke-linejoin="round"/>
<path d="M512.441 324.939V332.939" stroke="#2E353A" stroke-width="0.887535" stroke-linecap="round" stroke-linejoin="round"/>
<path d="M533.026 324.939V332.939" stroke="#2E353A" stroke-width="0.887535" stroke-linecap="round" stroke-linejoin="round"/>
<path d="M496.712 324.939H537.883" stroke="#2E353A" stroke-width="0.887535" stroke-linecap="round" stroke-linejoin="round"/>
<path d="M21.2887 449.528C61.2409 462.72 163.905 448.441 153.379 463.824C142.852 479.207 62.4398 473.43 39.5781 490.062C16.7163 506.695 120.722 505.364 117.044 510.411C113.366 515.457 21.8577 518.914 27.8729 525.713H644.47C645.465 520.39 638.373 513.932 626.79 509.486C534.977 506.484 223.854 495.482 256.45 484.854C294.654 472.424 419.388 459.994 442.189 450.258C464.99 440.522 363.991 439.435 347.084 435.119C341.638 433.723 340.987 432.36 342.755 431.175L345.661 431.322V429.845C350.279 428.509 355.041 427.515 359.886 426.875H345.661V424.068L343.629 425.09L340.154 426.875H339.037C340.46 423.362 341.427 419.74 341.922 416.068C342.715 409.724 331.558 424.068 331.558 424.068C331.558 424.068 333.143 419.2 331.558 416.068C329.973 412.937 325.177 420.303 325.177 420.303C325.177 420.303 330.766 402.697 325.177 391.258C319.589 379.818 313.289 420.303 313.289 420.303C313.289 420.303 312.436 404.596 305.262 404.288C299.45 404.028 303.047 414.705 304.632 418.762C303.402 416.485 301.589 414.44 299.308 412.758C294.167 408.831 299.308 421.829 299.308 421.829C299.308 421.829 297.276 417.967 283.843 416.068C270.411 414.17 289.33 424.474 289.33 424.474C283.507 423.139 277.599 422.056 271.63 421.228C268.663 420.839 268.419 421.423 269.395 422.397L267.464 423.387L261.246 426.632C263.283 421.868 264.646 416.937 265.31 411.93C266.326 403.817 252.121 422.121 252.121 422.121C252.121 422.121 254.153 415.971 252.121 411.93C250.089 407.89 243.993 417.318 243.993 417.318C243.993 417.318 251.105 394.909 243.993 380.337C236.88 365.765 228.853 417.318 228.853 417.318C228.853 417.318 227.756 397.343 218.692 396.937C211.316 396.612 215.847 410.097 217.879 415.306C216.316 412.432 214.018 409.851 211.133 407.728C204.569 402.73 211.133 419.265 211.133 419.265C211.133 419.265 208.552 414.397 191.441 411.93C174.33 409.464 198.411 422.64 198.411 422.64C190.998 420.943 183.475 419.567 175.875 418.519C164.495 417.026 184.532 426.908 184.532 426.908H33.4816C33.4816 426.908 -18.6229 436.352 21.2887 449.528ZM270.065 423.046C272.104 424.487 274.286 425.795 276.588 426.956H270.065V423.046Z" fill="#2E353A"/>
<path d="M514.229 451.491C491.143 460.026 433.816 468.984 433.816 468.984C424.692 469.973 437.047 479.304 500.41 474.679L608.846 426.924H401.058C408.008 429.78 457.511 436.368 485.677 436.368C513.843 436.368 537.314 442.94 514.229 451.491Z" fill="#2E353A"/>
<path d="M680.235 426.924H721.204C700.638 426.291 680.235 426.924 680.235 426.924Z" fill="#2E353A"/>
<path d="M747.825 428.823L650.505 478.899C662.84 478.525 675.744 478.282 688.242 478.038C742.155 477 722.586 458.323 726.243 451.735C729.901 445.147 760.506 446.234 762.944 435.248C763.635 432.133 757.274 430.121 747.825 428.823Z" fill="#2E353A"/>
<g opacity="0.3">
<path d="M21.2887 449.528C61.2409 462.72 163.905 448.441 153.379 463.824C142.852 479.207 62.4398 473.43 39.5781 490.062C16.7163 506.695 120.722 505.364 117.044 510.411C113.366 515.457 21.8577 518.914 27.8729 525.713H644.47C645.465 520.39 638.373 513.932 626.79 509.486C534.977 506.484 223.854 495.482 256.45 484.854C294.654 472.424 419.388 459.994 442.189 450.258C464.99 440.522 363.991 439.435 347.084 435.119C341.638 433.723 340.987 432.36 342.755 431.175L345.661 431.322V429.845C350.279 428.509 355.041 427.515 359.886 426.875H345.661V424.068L343.629 425.09L340.154 426.875H339.037C340.46 423.362 341.427 419.74 341.922 416.068C342.715 409.724 331.558 424.068 331.558 424.068C331.558 424.068 333.143 419.2 331.558 416.068C329.973 412.937 325.177 420.303 325.177 420.303C325.177 420.303 330.766 402.697 325.177 391.258C319.589 379.818 313.289 420.303 313.289 420.303C313.289 420.303 312.436 404.596 305.262 404.288C299.45 404.028 303.047 414.705 304.632 418.762C303.402 416.485 301.589 414.44 299.308 412.758C294.167 408.831 299.308 421.829 299.308 421.829C299.308 421.829 297.276 417.967 283.843 416.068C270.411 414.17 289.33 424.474 289.33 424.474C283.507 423.139 277.599 422.056 271.63 421.228C268.663 420.839 268.419 421.423 269.395 422.397L267.464 423.387L261.246 426.632C263.283 421.868 264.646 416.937 265.31 411.93C266.326 403.817 252.121 422.121 252.121 422.121C252.121 422.121 254.153 415.971 252.121 411.93C250.089 407.89 243.993 417.318 243.993 417.318C243.993 417.318 251.105 394.909 243.993 380.337C236.88 365.765 228.853 417.318 228.853 417.318C228.853 417.318 227.756 397.343 218.692 396.937C211.316 396.612 215.847 410.097 217.879 415.306C216.316 412.432 214.018 409.851 211.133 407.728C204.569 402.73 211.133 419.265 211.133 419.265C211.133 419.265 208.552 414.397 191.441 411.93C174.33 409.464 198.411 422.64 198.411 422.64C190.998 420.943 183.475 419.567 175.875 418.519C164.495 417.026 184.532 426.908 184.532 426.908H33.4816C33.4816 426.908 -18.6229 436.352 21.2887 449.528ZM270.065 423.046C272.104 424.487 274.286 425.795 276.588 426.956H270.065V423.046Z" fill="white"/>
<path d="M514.229 451.491C491.143 460.026 433.816 468.984 433.816 468.984C424.692 469.973 437.047 479.304 500.41 474.679L608.846 426.924H401.058C408.008 429.78 457.511 436.368 485.677 436.368C513.843 436.368 537.314 442.94 514.229 451.491Z" fill="white"/>
<path d="M680.235 426.924H721.204C700.638 426.291 680.235 426.924 680.235 426.924Z" fill="white"/>
<path d="M747.825 428.823L650.505 478.899C662.84 478.525 675.744 478.282 688.242 478.038C742.155 477 722.586 458.323 726.243 451.735C729.901 445.147 760.506 446.234 762.944 435.248C763.635 432.133 757.274 430.121 747.825 428.823Z" fill="white"/>
</g>
<path d="M151.977 154.006V284.891H390.409V154.006H151.977ZM174.127 170.087C172.825 170.087 171.552 169.778 170.469 169.201C169.386 168.623 168.543 167.802 168.044 166.841C167.546 165.88 167.415 164.823 167.67 163.803C167.924 162.784 168.551 161.847 169.471 161.112C170.392 160.376 171.565 159.876 172.843 159.673C174.12 159.47 175.444 159.574 176.647 159.972C177.85 160.37 178.878 161.044 179.602 161.908C180.325 162.773 180.711 163.789 180.711 164.829C180.711 166.224 180.018 167.561 178.783 168.547C177.548 169.533 175.873 170.087 174.127 170.087ZM368.035 170.087C366.733 170.087 365.46 169.778 364.377 169.201C363.295 168.623 362.451 167.802 361.952 166.841C361.454 165.88 361.324 164.823 361.578 163.803C361.832 162.784 362.459 161.847 363.38 161.112C364.301 160.376 365.474 159.876 366.751 159.673C368.028 159.47 369.352 159.574 370.555 159.972C371.758 160.37 372.787 161.044 373.51 161.908C374.233 162.773 374.62 163.789 374.62 164.829C374.614 166.222 373.919 167.557 372.685 168.542C371.452 169.527 369.78 170.082 368.035 170.087Z" fill="#80BBFF" stroke="#2E353A" stroke-miterlimit="10"/>
<path d="M374.62 164.829C374.62 165.869 374.233 166.886 373.51 167.75C372.786 168.615 371.758 169.289 370.555 169.687C369.352 170.084 368.028 170.189 366.751 169.986C365.474 169.783 364.3 169.282 363.38 168.547C362.459 167.812 361.832 166.875 361.578 165.855C361.324 164.835 361.454 163.778 361.952 162.817C362.451 161.857 363.295 161.036 364.377 160.458C365.46 159.88 366.733 159.572 368.035 159.572H174.127C175.429 159.572 176.702 159.88 177.785 160.458C178.868 161.036 179.712 161.857 180.21 162.817C180.708 163.778 180.839 164.835 180.585 165.855C180.331 166.875 179.704 167.812 178.783 168.547C177.862 169.282 176.689 169.783 175.412 169.986C174.134 170.189 172.811 170.084 171.607 169.687C170.404 169.289 169.376 168.615 168.653 167.75C167.929 166.886 167.543 165.869 167.543 164.829C167.543 163.435 168.237 162.098 169.471 161.112C170.706 160.126 172.381 159.572 174.127 159.572H158.845V277.67H381.285V159.572H368.035C369.782 159.572 371.456 160.126 372.691 161.112C373.926 162.098 374.62 163.435 374.62 164.829Z" fill="#2E353A"/>
<path d="M174.127 103.378C172.235 103.381 170.386 103.832 168.815 104.674C167.244 105.516 166.02 106.711 165.299 108.108C164.577 109.504 164.391 111.041 164.762 112.522C165.134 114.004 166.047 115.364 167.387 116.431C168.726 117.498 170.431 118.225 172.288 118.518C174.144 118.812 176.067 118.66 177.815 118.081C179.563 117.502 181.056 116.522 182.107 115.266C183.158 114.009 183.719 112.532 183.719 111.021C183.719 110.016 183.471 109.021 182.988 108.093C182.506 107.164 181.799 106.321 180.908 105.611C180.017 104.901 178.96 104.339 177.796 103.955C176.633 103.572 175.386 103.376 174.127 103.378ZM174.127 116.116C172.866 116.113 171.634 115.812 170.588 115.25C169.541 114.688 168.726 113.891 168.246 112.96C167.766 112.028 167.643 111.004 167.892 110.017C168.14 109.03 168.749 108.124 169.643 107.413C170.536 106.702 171.673 106.218 172.91 106.023C174.147 105.827 175.429 105.929 176.594 106.315C177.759 106.701 178.754 107.355 179.454 108.192C180.155 109.03 180.528 110.014 180.528 111.021C180.534 111.695 180.372 112.363 180.053 112.987C179.734 113.611 179.263 114.178 178.668 114.656C178.073 115.135 177.365 115.514 176.586 115.773C175.807 116.032 174.971 116.165 174.127 116.165V116.116Z" fill="white" stroke="#2E353A" stroke-width="0.916642" stroke-linecap="round" stroke-linejoin="round"/>
<path d="M174.127 121.73C172.229 121.73 170.374 122.18 168.796 123.022C167.218 123.865 165.989 125.062 165.263 126.462C164.538 127.863 164.349 129.404 164.721 130.89C165.093 132.376 166.008 133.741 167.352 134.811C168.695 135.881 170.406 136.61 172.268 136.903C174.13 137.197 176.059 137.043 177.812 136.461C179.564 135.879 181.06 134.894 182.112 133.633C183.163 132.371 183.723 130.889 183.719 129.373C183.719 128.368 183.47 127.373 182.988 126.445C182.506 125.516 181.799 124.673 180.908 123.963C180.017 123.253 178.959 122.691 177.796 122.308C176.632 121.924 175.385 121.728 174.127 121.73ZM174.127 134.485C172.861 134.485 171.623 134.185 170.57 133.623C169.518 133.062 168.697 132.263 168.213 131.329C167.728 130.395 167.602 129.368 167.849 128.376C168.095 127.385 168.705 126.474 169.6 125.759C170.496 125.044 171.636 124.557 172.878 124.36C174.12 124.163 175.407 124.264 176.576 124.651C177.746 125.038 178.746 125.693 179.449 126.534C180.153 127.374 180.528 128.362 180.528 129.373C180.528 130.729 179.854 132.029 178.653 132.988C177.453 133.946 175.825 134.485 174.127 134.485Z" fill="white" stroke="#2E353A" stroke-width="0.916642" stroke-linecap="round" stroke-linejoin="round"/>
<path d="M174.127 137.908C172.235 137.911 170.386 138.362 168.815 139.204C167.244 140.046 166.02 141.241 165.299 142.637C164.577 144.034 164.391 145.571 164.762 147.052C165.134 148.534 166.047 149.894 167.387 150.961C168.726 152.028 170.431 152.755 172.288 153.048C174.144 153.342 176.067 153.189 177.815 152.611C179.563 152.032 181.056 151.052 182.107 149.796C183.158 148.539 183.719 147.062 183.719 145.551C183.719 144.546 183.471 143.551 182.988 142.623C182.506 141.694 181.799 140.851 180.908 140.141C180.017 139.431 178.96 138.868 177.796 138.485C176.633 138.102 175.386 137.906 174.127 137.908ZM174.127 150.646C172.866 150.643 171.634 150.342 170.588 149.78C169.541 149.218 168.726 148.421 168.246 147.49C167.766 146.558 167.643 145.534 167.892 144.547C168.14 143.56 168.749 142.653 169.643 141.943C170.536 141.232 171.673 140.748 172.91 140.553C174.147 140.357 175.429 140.459 176.594 140.845C177.759 141.231 178.754 141.884 179.454 142.722C180.155 143.56 180.528 144.544 180.528 145.551C180.523 146.904 179.846 148.2 178.646 149.155C177.446 150.11 175.821 150.646 174.127 150.646Z" fill="white" stroke="#2E353A" stroke-width="0.916642" stroke-linecap="round" stroke-linejoin="round"/>
<path d="M174.127 128.546C173.679 128.546 173.25 128.404 172.934 128.151C172.618 127.899 172.44 127.556 172.44 127.199V114.591C172.44 114.234 172.618 113.891 172.934 113.639C173.25 113.386 173.679 113.244 174.127 113.244C174.576 113.244 175.007 113.385 175.327 113.638C175.646 113.89 175.828 114.232 175.834 114.591V127.199C175.828 127.558 175.646 127.9 175.327 128.152C175.007 128.405 174.576 128.546 174.127 128.546Z" fill="white" stroke="#2E353A" stroke-width="0.916642" stroke-linecap="round" stroke-linejoin="round"/>
<path d="M174.127 145.893C173.679 145.893 173.25 145.751 172.934 145.498C172.618 145.246 172.44 144.903 172.44 144.546V131.938C172.44 131.581 172.618 131.238 172.934 130.986C173.25 130.733 173.679 130.591 174.127 130.591C174.576 130.591 175.007 130.732 175.327 130.985C175.646 131.237 175.828 131.579 175.834 131.938V144.546C175.828 144.905 175.646 145.247 175.327 145.499C175.007 145.752 174.576 145.893 174.127 145.893Z" fill="white" stroke="#2E353A" stroke-width="0.916642" stroke-linecap="round" stroke-linejoin="round"/>
<path d="M174.127 163.271C173.679 163.271 173.25 163.129 172.934 162.877C172.618 162.624 172.44 162.282 172.44 161.924V149.316C172.44 149.139 172.484 148.964 172.568 148.801C172.653 148.637 172.777 148.489 172.934 148.364C173.091 148.239 173.277 148.14 173.481 148.072C173.686 148.004 173.905 147.969 174.127 147.969C174.576 147.969 175.007 148.111 175.327 148.363C175.646 148.615 175.828 148.958 175.834 149.316V161.924C175.828 162.283 175.646 162.626 175.327 162.878C175.007 163.13 174.576 163.271 174.127 163.271Z" fill="white" stroke="#2E353A" stroke-width="0.916642" stroke-linecap="round" stroke-linejoin="round"/>
<path d="M368.035 103.378C366.143 103.381 364.294 103.832 362.723 104.674C361.152 105.516 359.928 106.711 359.207 108.108C358.485 109.504 358.299 111.041 358.67 112.522C359.042 114.004 359.955 115.364 361.295 116.431C362.634 117.498 364.339 118.225 366.196 118.518C368.052 118.812 369.975 118.66 371.723 118.081C373.471 117.502 374.964 116.522 376.015 115.266C377.066 114.009 377.627 112.532 377.627 111.021C377.627 110.016 377.379 109.021 376.896 108.093C376.414 107.164 375.707 106.321 374.816 105.611C373.925 104.901 372.868 104.339 371.704 103.955C370.541 103.572 369.294 103.376 368.035 103.378ZM368.035 116.116C366.774 116.113 365.542 115.812 364.496 115.25C363.449 114.688 362.634 113.891 362.154 112.96C361.675 112.028 361.551 111.004 361.8 110.017C362.048 109.03 362.657 108.124 363.551 107.413C364.444 106.702 365.581 106.218 366.818 106.023C368.055 105.827 369.337 105.929 370.502 106.315C371.667 106.701 372.662 107.355 373.362 108.192C374.063 109.03 374.436 110.014 374.436 111.021C374.442 111.695 374.28 112.363 373.961 112.987C373.642 113.611 373.171 114.178 372.576 114.656C371.981 115.135 371.274 115.514 370.494 115.773C369.715 116.032 368.879 116.165 368.035 116.165V116.116Z" fill="white" stroke="#2E353A" stroke-width="0.916642" stroke-linecap="round" stroke-linejoin="round"/>
<path d="M368.035 121.73C366.137 121.73 364.282 122.18 362.704 123.022C361.126 123.865 359.897 125.062 359.172 126.462C358.446 127.863 358.258 129.404 358.629 130.89C359.001 132.376 359.917 133.741 361.26 134.811C362.604 135.881 364.315 136.61 366.176 136.903C368.038 137.197 369.968 137.043 371.72 136.461C373.472 135.879 374.969 134.894 376.02 133.633C377.072 132.371 377.631 130.889 377.627 129.373C377.627 128.368 377.379 127.373 376.897 126.445C376.414 125.516 375.707 124.673 374.816 123.963C373.925 123.253 372.868 122.691 371.704 122.308C370.541 121.924 369.294 121.728 368.035 121.73ZM368.035 134.485C366.769 134.485 365.532 134.185 364.479 133.623C363.426 133.062 362.606 132.263 362.121 131.329C361.637 130.395 361.51 129.368 361.757 128.376C362.004 127.385 362.614 126.474 363.509 125.759C364.404 125.044 365.545 124.557 366.786 124.36C368.028 124.163 369.315 124.264 370.485 124.651C371.655 125.038 372.654 125.693 373.358 126.534C374.061 127.374 374.437 128.362 374.437 129.373C374.437 130.045 374.271 130.709 373.949 131.329C373.628 131.949 373.156 132.513 372.562 132.988C371.967 133.462 371.262 133.839 370.485 134.096C369.708 134.353 368.876 134.485 368.035 134.485Z" fill="white" stroke="#2E353A" stroke-width="0.916642" stroke-linecap="round" stroke-linejoin="round"/>
<path d="M368.035 137.908C366.143 137.911 364.294 138.362 362.723 139.204C361.152 140.046 359.928 141.241 359.207 142.637C358.485 144.034 358.299 145.571 358.67 147.052C359.042 148.534 359.955 149.894 361.295 150.961C362.634 152.028 364.339 152.755 366.196 153.048C368.052 153.342 369.975 153.189 371.723 152.611C373.471 152.032 374.964 151.052 376.015 149.796C377.066 148.539 377.627 147.062 377.627 145.551C377.627 144.546 377.379 143.551 376.896 142.623C376.414 141.694 375.707 140.851 374.816 140.141C373.925 139.431 372.868 138.868 371.704 138.485C370.541 138.102 369.294 137.906 368.035 137.908ZM368.035 150.646C366.774 150.643 365.542 150.342 364.496 149.78C363.449 149.218 362.634 148.421 362.154 147.49C361.675 146.558 361.551 145.534 361.8 144.547C362.048 143.56 362.657 142.653 363.551 141.943C364.444 141.232 365.581 140.748 366.818 140.553C368.055 140.357 369.337 140.459 370.502 140.845C371.667 141.231 372.662 141.884 373.362 142.722C374.063 143.56 374.436 144.544 374.436 145.551C374.431 146.904 373.754 148.2 372.554 149.155C371.354 150.11 369.729 150.646 368.035 150.646Z" fill="white" stroke="#2E353A" stroke-width="0.916642" stroke-linecap="round" stroke-linejoin="round"/>
<path d="M368.035 128.546C367.588 128.546 367.159 128.404 366.843 128.151C366.526 127.899 366.349 127.556 366.349 127.199V114.591C366.349 114.234 366.526 113.891 366.843 113.639C367.159 113.386 367.588 113.244 368.035 113.244C368.485 113.244 368.916 113.385 369.235 113.638C369.555 113.89 369.737 114.232 369.742 114.591V127.199C369.737 127.558 369.555 127.9 369.235 128.152C368.916 128.405 368.485 128.546 368.035 128.546Z" fill="white" stroke="#2E353A" stroke-width="0.916642" stroke-linecap="round" stroke-linejoin="round"/>
<path d="M368.035 145.893C367.588 145.893 367.159 145.751 366.843 145.498C366.526 145.246 366.349 144.903 366.349 144.546V131.938C366.349 131.581 366.526 131.238 366.843 130.986C367.159 130.733 367.588 130.591 368.035 130.591C368.485 130.591 368.916 130.732 369.235 130.985C369.555 131.237 369.737 131.579 369.742 131.938V144.546C369.737 144.905 369.555 145.247 369.235 145.499C368.916 145.752 368.485 145.893 368.035 145.893Z" fill="white" stroke="#2E353A" stroke-width="0.916642" stroke-linecap="round" stroke-linejoin="round"/>
<path d="M368.035 163.271C367.588 163.271 367.159 163.129 366.843 162.877C366.526 162.624 366.349 162.282 366.349 161.924V149.316C366.349 149.139 366.392 148.964 366.477 148.801C366.562 148.637 366.686 148.489 366.843 148.364C366.999 148.239 367.185 148.14 367.39 148.072C367.595 148.004 367.814 147.969 368.035 147.969C368.485 147.969 368.916 148.111 369.235 148.363C369.555 148.615 369.737 148.958 369.742 149.316V161.924C369.737 162.283 369.555 162.626 369.235 162.878C368.916 163.13 368.485 163.271 368.035 163.271Z" fill="white" stroke="#2E353A" stroke-width="0.916642" stroke-linecap="round" stroke-linejoin="round"/>
<path d="M417.539 107.419H45.1664L33.4612 81.5857H443.245L417.539 107.419Z" fill="#2E353A" stroke="#2E353A" stroke-width="0.887535" stroke-linecap="round" stroke-linejoin="round"/>
<path d="M408.048 107.419H35.6763L23.9711 81.5857H433.776L408.048 107.419Z" fill="white" stroke="#2E353A" stroke-width="0.887535" stroke-linecap="round" stroke-linejoin="round"/>
<path d="M104.79 517.762H74.3283L83.534 10.0089H88.9395L104.79 27.972V517.762Z" fill="#2E353A" stroke="#2E353A" stroke-width="0.887535" stroke-linecap="round" stroke-linejoin="round"/>
<path d="M99.3639 517.762H68.9019V27.972L83.5334 10.0089L99.3639 27.972V517.762Z" fill="white" stroke="#2E353A" stroke-width="0.887535" stroke-linecap="round" stroke-linejoin="round"/>
<path d="M74.3283 517.762V486.525" stroke="#2E353A" stroke-width="0.887535" stroke-linecap="round" stroke-linejoin="round"/>
<path d="M79.6523 517.762V403.671" stroke="#2E353A" stroke-width="0.887535" stroke-linecap="round" stroke-linejoin="round"/>
<path d="M74.3283 481.787V470.428" stroke="#2E353A" stroke-width="0.887535" stroke-linecap="round" stroke-linejoin="round"/>
<path d="M89.5489 316.663V305.304" stroke="#2E353A" stroke-width="0.887535" stroke-linecap="round" stroke-linejoin="round"/>
<path d="M74.3283 32.8244V21.4657" stroke="#2E353A" stroke-width="0.887535" stroke-linecap="round" stroke-linejoin="round"/>
<path d="M74.3283 47.785V36.4263" stroke="#2E353A" stroke-width="0.887535" stroke-linecap="round" stroke-linejoin="round"/>
<path d="M89.5489 388.677V329.417" stroke="#2E353A" stroke-width="0.887535" stroke-linecap="round" stroke-linejoin="round"/>
<path d="M26.9586 86.9733H37.6274" stroke="#2E353A" stroke-width="0.887535" stroke-linecap="round" stroke-linejoin="round"/>
<path d="M31.693 91.2409H57.1966" stroke="#2E353A" stroke-width="0.887535" stroke-linecap="round" stroke-linejoin="round"/>
<path d="M126.493 91.2409H151.977" stroke="#2E353A" stroke-width="0.887535" stroke-linecap="round" stroke-linejoin="round"/>
<path d="M139.235 95.9786H148.196" stroke="#2E353A" stroke-width="0.887535" stroke-linecap="round" stroke-linejoin="round"/>
<path d="M184.491 95.9786H237.693" stroke="#2E353A" stroke-width="0.887535" stroke-linecap="round" stroke-linejoin="round"/>
<path d="M420.018 95.9786H411.117" stroke="#2E353A" stroke-width="0.887535" stroke-linecap="round" stroke-linejoin="round"/>
<path d="M415.852 99.289H385.634" stroke="#2E353A" stroke-width="0.887535" stroke-linecap="round" stroke-linejoin="round"/>
<path d="M7.06343 525.275H26.9989C26.9989 525.275 -9.19381 499.507 7.06343 502.135C23.3207 504.764 37.5458 513.916 37.5458 513.916C37.5458 513.916 18.3216 499.474 31.6119 502.103C44.9022 504.732 44.3535 509.08 44.3535 509.08C44.3535 509.08 45.3899 477.876 57.1154 486.493C63.9224 491.245 68.1248 497.939 68.8206 505.137C68.8206 505.137 93.8771 480.391 99.303 481.754C104.729 483.118 104.729 498.257 104.729 498.257C104.729 498.257 146.815 470.866 139.174 486.493C131.533 502.119 126.432 507.993 126.432 507.993C126.432 507.993 146.185 494.054 143.665 502.103C142.589 505.987 141.086 509.788 139.174 513.462C139.174 513.462 168.884 520.894 164.495 520.877C160.105 520.861 151.915 525.372 151.915 525.372C151.915 525.372 202.089 518.881 192.559 525.372C183.028 531.863 104.688 530.776 104.688 530.776C104.688 530.776 142.954 538.256 126.493 538.256C110.033 538.256 84.1431 532.836 84.1431 532.836C84.1431 532.836 45.5321 539.327 31.6932 538.256C17.8542 537.185 57.1967 532.836 57.1967 532.836C57.1967 532.836 -17.6679 532.901 7.06343 525.275Z" fill="#2E353A" stroke="#2E353A" stroke-width="0.916642" stroke-linecap="round" stroke-linejoin="round"/>
</g>
</svg>
