<svg width="22" height="51" viewBox="0 0 22 51" fill="none" xmlns="http://www.w3.org/2000/svg">
<path d="M0.645529 50.991C0.841379 51.0216 1.0414 50.9739 1.20232 50.8581C1.36323 50.7424 1.47212 50.5679 1.50543 50.3725C7.05702 18.2699 20.9812 1.40393 21.117 1.23798C21.245 1.08395 21.3066 0.885371 21.2882 0.685917C21.2699 0.486462 21.173 0.302464 21.0189 0.174431C20.8649 0.0463989 20.6663 -0.0151976 20.4669 0.0031918C20.2674 0.0215812 20.0834 0.118454 19.9554 0.272493C19.8196 0.438437 5.63894 17.591 0.0119274 50.0557C-0.0233368 50.2517 0.0203122 50.4536 0.133353 50.6175C0.246394 50.7815 0.419671 50.894 0.615374 50.9307L0.645529 50.991Z" fill="white"/>
</svg>
