<svg width="37" height="32" viewBox="0 0 37 32" fill="none" xmlns="http://www.w3.org/2000/svg">
<path d="M31.0894 32C31.0287 31.9995 30.969 31.984 30.9158 31.9547C30.8626 31.9254 30.8175 31.8834 30.7846 31.8324L24.8723 23.802L3.15829 26.4382C3.1098 26.4444 3.06055 26.4409 3.01343 26.4278C2.96632 26.4147 2.92232 26.3924 2.88402 26.362C2.84303 26.332 2.80942 26.2931 2.78567 26.2482C2.76191 26.2033 2.74863 26.1537 2.74688 26.1029L0.00408034 3.04798C-0.00343068 2.99708 -0.000550799 2.94519 0.0125438 2.89543C0.0256383 2.84567 0.0486576 2.79907 0.0802512 2.75846C0.153883 2.68351 0.250388 2.63526 0.354522 2.62132L33.756 0.00040209C33.8562 -0.00411405 33.9544 0.0295472 34.0307 0.0945926C34.1071 0.159638 34.1559 0.251219 34.1674 0.350867C34.1719 0.451072 34.1383 0.549269 34.0732 0.625626C34.0082 0.701984 33.9166 0.750825 33.817 0.762297L0.750722 3.3375L3.38689 25.5544L24.9333 22.9487C24.9999 22.9409 25.0674 22.951 25.129 22.9777C25.1905 23.0045 25.2439 23.047 25.2837 23.1011L29.8551 29.1962L27.6913 23.1011C27.6694 23.0532 27.6581 23.0013 27.6581 22.9487C27.6581 22.8961 27.6694 22.8441 27.6913 22.7963C27.7187 22.7474 27.7558 22.7046 27.8004 22.6705C27.8449 22.6364 27.896 22.6118 27.9504 22.5982L36.0112 21.0744L33.9693 4.57177C33.9604 4.47135 33.9902 4.37131 34.0525 4.29204C34.1147 4.21276 34.2049 4.16023 34.3045 4.14511C34.3546 4.13873 34.4055 4.14238 34.4541 4.15583C34.5028 4.16928 34.5483 4.19227 34.588 4.22347C34.6277 4.25466 34.6608 4.29341 34.6854 4.33751C34.71 4.38161 34.7256 4.43018 34.7312 4.48035L36.8188 21.3335C36.8249 21.431 36.7959 21.5275 36.7373 21.6057C36.6787 21.6838 36.5941 21.7386 36.4988 21.7601L28.5294 23.2839L31.4246 31.3752C31.4541 31.4629 31.4519 31.5582 31.4185 31.6444C31.3851 31.7307 31.3226 31.8026 31.2418 31.8476C31.2054 31.911 31.1528 31.9636 31.0894 32Z" fill="white"/>
</svg>
