<svg width="508" height="342" viewBox="0 0 508 342" fill="none" xmlns="http://www.w3.org/2000/svg">
<path d="M82.2697 116.379C82.6462 116.146 83.0798 116.023 83.5222 116.023C83.9646 116.023 84.3982 116.146 84.7747 116.379C84.9895 116.506 85.2042 116.633 85.4189 116.744L86.0869 117.086C86.4885 117.268 86.8318 117.558 87.0788 117.923C87.3259 118.288 87.467 118.714 87.4866 119.154L87.582 122.24L97.6262 121.93L97.5307 118.844C97.5202 118.402 97.6329 117.965 97.8562 117.583C98.0795 117.201 98.4046 116.889 98.7952 116.681C99.2332 116.439 99.658 116.173 100.068 115.886C100.427 115.632 100.85 115.483 101.29 115.455C101.729 115.427 102.168 115.521 102.557 115.727L105.269 117.182L110.04 108.315L107.312 106.836C106.924 106.625 106.601 106.31 106.38 105.927C106.16 105.544 106.05 105.107 106.064 104.664C106.064 104.163 106.064 103.662 106.016 103.169C105.973 102.729 106.054 102.285 106.249 101.887C106.445 101.49 106.747 101.154 107.122 100.919L109.746 99.3283L104.442 90.7871L101.809 92.4174C101.434 92.6481 101.001 92.7702 100.561 92.7702C100.12 92.7702 99.6877 92.6481 99.3121 92.4174C99.1054 92.2902 98.8906 92.1629 98.668 92.0437L98.0079 91.7176C97.604 91.5347 97.2591 91.2428 97.0119 90.8747C96.7647 90.5067 96.6249 90.0771 96.6082 89.634L96.5208 86.5484L86.4687 86.8586L86.572 89.9362C86.5841 90.3799 86.4721 90.8181 86.2487 91.2017C86.0254 91.5852 85.6994 91.8988 85.3076 92.1073C84.8696 92.3495 84.4448 92.615 84.0352 92.9025C83.6745 93.1577 83.25 93.3076 82.8091 93.3357C82.3682 93.3638 81.9282 93.2689 81.538 93.0616L78.8262 91.6142L74.0546 100.473L76.7665 101.921C77.1554 102.131 77.4781 102.446 77.6985 102.829C77.919 103.213 78.0286 103.65 78.015 104.092C78.015 104.59 78.0309 105.091 78.0627 105.595C78.1055 106.036 78.0248 106.48 77.8295 106.877C77.6343 107.275 77.3323 107.61 76.9573 107.846L74.3409 109.436L79.6533 117.969L82.2697 116.379ZM84.7907 100.473C85.5595 99.0377 86.7369 97.8622 88.174 97.0959C89.6111 96.3296 91.2432 96.0069 92.8638 96.1685C94.4844 96.3302 96.0207 96.969 97.2781 98.0041C98.5355 99.0392 99.4575 100.424 99.9276 101.983C100.398 103.543 100.394 105.206 99.9186 106.764C99.4427 108.322 98.5154 109.703 97.2541 110.733C95.9928 111.764 94.4542 112.397 92.833 112.552C91.2118 112.708 89.5809 112.379 88.1467 111.607C86.23 110.571 84.8012 108.819 84.1724 106.732C83.5436 104.646 83.7658 102.396 84.7907 100.473Z" fill="#DBDBDB"/>
<path d="M410.554 133.93C410.822 134.095 411.038 134.331 411.178 134.612C411.319 134.893 411.378 135.208 411.349 135.521C411.349 135.688 411.349 135.862 411.349 136.037C411.349 136.212 411.349 136.387 411.349 136.562C411.372 136.868 411.309 137.174 411.169 137.446C411.029 137.718 410.816 137.946 410.554 138.105L408.685 139.187L412.2 145.286L414.077 144.205C414.346 144.052 414.652 143.978 414.961 143.989C415.27 144 415.569 144.097 415.827 144.268C416.12 144.459 416.422 144.634 416.733 144.793C417.01 144.931 417.244 145.143 417.408 145.406C417.572 145.668 417.661 145.971 417.664 146.28V148.436H424.702V146.28C424.704 145.971 424.793 145.668 424.957 145.406C425.121 145.143 425.355 144.931 425.632 144.793C425.943 144.634 426.246 144.459 426.539 144.268C426.796 144.097 427.096 144 427.405 143.989C427.713 143.978 428.019 144.052 428.288 144.205L430.165 145.286L433.68 139.187L431.803 138.105C431.542 137.944 431.329 137.715 431.189 137.441C431.048 137.168 430.986 136.861 431.008 136.554C431.008 136.387 431.008 136.212 431.008 136.037C431.008 135.862 431.008 135.688 431.008 135.521C430.978 135.208 431.037 134.892 431.178 134.611C431.318 134.33 431.535 134.094 431.803 133.93L433.672 132.856L430.157 126.757L428.288 127.83C428.019 127.985 427.712 128.062 427.402 128.053C427.091 128.043 426.79 127.946 426.531 127.775C426.239 127.583 425.936 127.408 425.624 127.25C425.347 127.112 425.113 126.9 424.949 126.638C424.785 126.375 424.697 126.072 424.694 125.763V123.608H417.656V125.763C417.653 126.072 417.564 126.375 417.4 126.638C417.236 126.9 417.002 127.112 416.725 127.25C416.414 127.409 416.112 127.585 415.819 127.775C415.56 127.946 415.258 128.043 414.948 128.053C414.637 128.062 414.33 127.985 414.061 127.83L412.192 126.757L408.677 132.856L410.554 133.93ZM421.179 130.232C422.321 130.23 423.438 130.568 424.388 131.201C425.339 131.835 426.08 132.736 426.518 133.791C426.957 134.846 427.072 136.007 426.85 137.127C426.628 138.248 426.079 139.277 425.272 140.085C424.465 140.894 423.436 141.444 422.316 141.668C421.196 141.891 420.034 141.777 418.979 141.341C417.924 140.904 417.021 140.164 416.387 139.214C415.752 138.264 415.413 137.148 415.413 136.006C415.413 134.476 416.02 133.008 417.101 131.926C418.182 130.843 419.649 130.234 421.179 130.232Z" fill="#DBDBDB"/>
<path d="M445.752 194.076C445.752 199.499 447.36 204.8 450.373 209.31C453.386 213.819 457.669 217.333 462.679 219.409C467.69 221.484 473.203 222.027 478.522 220.969C483.841 219.911 488.727 217.3 492.562 213.465C496.397 209.63 499.008 204.744 500.066 199.425C501.124 194.106 500.581 188.593 498.506 183.582C496.431 178.572 492.916 174.289 488.407 171.276C483.897 168.263 478.596 166.655 473.173 166.655C469.572 166.655 466.006 167.364 462.679 168.742C459.352 170.12 456.33 172.14 453.783 174.686C451.237 177.232 449.217 180.255 447.839 183.582C446.461 186.909 445.752 190.475 445.752 194.076ZM460.369 194.076C460.367 191.541 461.118 189.063 462.525 186.955C463.932 184.847 465.933 183.203 468.274 182.233C470.615 181.262 473.192 181.008 475.678 181.502C478.164 181.996 480.448 183.216 482.24 185.008C484.032 186.801 485.252 189.084 485.746 191.57C486.241 194.056 485.986 196.633 485.016 198.974C484.045 201.315 482.401 203.316 480.293 204.723C478.185 206.131 475.707 206.881 473.173 206.879C469.777 206.879 466.52 205.53 464.119 203.129C461.718 200.728 460.369 197.471 460.369 194.076Z" fill="#EBEBEB"/>
<path d="M467.9 167.792H478.445L477.865 160.325H468.489L467.9 167.792Z" fill="#EBEBEB"/>
<path d="M487.973 171.347L495.432 178.807L500.299 173.113L493.667 166.48L487.973 171.347Z" fill="#EBEBEB"/>
<path d="M499.655 188.047V198.593L507.123 198.012V188.636L499.655 188.047Z" fill="#EBEBEB"/>
<path d="M496.1 208.12L488.649 215.58L494.335 220.447L500.967 213.814L496.1 208.12Z" fill="#EBEBEB"/>
<path d="M479.4 219.802H468.854L469.435 227.27H478.811L479.4 219.802Z" fill="#EBEBEB"/>
<path d="M459.327 216.248L451.868 208.796L447.001 214.482L453.633 221.115L459.327 216.248Z" fill="#EBEBEB"/>
<path d="M447.645 199.547V189.002L440.177 189.582V198.959L447.645 199.547Z" fill="#EBEBEB"/>
<path d="M451.2 179.475L458.651 172.016L452.965 167.149L446.333 173.781L451.2 179.475Z" fill="#EBEBEB"/>
<path d="M5.57471 61.9509C5.57471 67.3742 7.1829 72.6757 10.1959 77.185C13.2089 81.6943 17.4915 85.2089 22.5019 87.2843C27.5124 89.3597 33.0258 89.9027 38.3448 88.8447C43.6639 87.7866 48.5498 85.1751 52.3847 81.3402C56.2195 77.5054 58.8311 72.6195 59.8891 67.3004C60.9471 61.9813 60.4041 56.468 58.3287 51.4575C56.2533 46.447 52.7387 42.1645 48.2294 39.1515C43.7201 36.1385 38.4186 34.5303 32.9953 34.5303C25.7229 34.5303 18.7484 37.4192 13.606 42.5616C8.46366 47.704 5.57471 54.6785 5.57471 61.9509ZM20.1916 61.9509C20.1901 59.4163 20.9403 56.9382 22.3475 54.8302C23.7546 52.7221 25.7555 51.0787 28.0968 50.1081C30.4382 49.1374 33.0148 48.883 35.5008 49.3771C37.9867 49.8712 40.2703 51.0915 42.0625 52.8838C43.8547 54.676 45.0751 56.9595 45.5692 59.4455C46.0633 61.9315 45.8089 64.5081 44.8382 66.8495C43.8675 69.1908 42.2242 71.1916 40.1161 72.5988C38.008 74.006 35.5299 74.7562 32.9953 74.7546C29.5996 74.7546 26.3429 73.4057 23.9417 71.0045C21.5406 68.6034 20.1916 65.3467 20.1916 61.9509Z" fill="#EBEBEB"/>
<path d="M27.7228 35.6676H38.268L37.6874 28.208H28.3113L27.7228 35.6676Z" fill="#EBEBEB"/>
<path d="M47.7953 39.2225L55.2548 46.682L60.1218 40.988L53.4893 34.3555L47.7953 39.2225Z" fill="#EBEBEB"/>
<path d="M59.4775 55.9229V66.4681L66.945 65.8875V56.5114L59.4775 55.9229Z" fill="#EBEBEB"/>
<path d="M55.9226 75.9952L48.471 83.4547L54.1572 88.3217L60.7897 81.6892L55.9226 75.9952Z" fill="#EBEBEB"/>
<path d="M39.2223 87.6778H28.6771L29.2577 95.1453H38.6338L39.2223 87.6778Z" fill="#EBEBEB"/>
<path d="M19.1499 84.123L11.6904 76.6714L6.82337 82.3576L13.4559 88.99L19.1499 84.123Z" fill="#EBEBEB"/>
<path d="M7.46751 67.4227V56.8775L0 57.458V66.8342L7.46751 67.4227Z" fill="#EBEBEB"/>
<path d="M11.0224 47.35L18.474 39.8905L12.7879 35.0235L6.1554 41.6559L11.0224 47.35Z" fill="#EBEBEB"/>
<path d="M294.382 94.0081C289.61 94.0876 277.483 94.2864 272.838 94.3342L265.578 94.3739H265.22V94.0081V85.1091V84.7115H265.617L280.02 84.7672C283.606 84.7672 290.835 84.8705 294.422 84.9262H294.613V85.1091L294.43 94.0081H294.382ZM294.382 94.0081L294.199 85.1091L294.382 85.292C290.787 85.3477 283.574 85.4193 279.98 85.4511L265.578 85.5067L265.975 85.1091V94.0081L265.609 93.6423H272.767C277.332 93.698 289.706 93.8968 294.43 93.9763L294.382 94.0081Z" fill="#EBEBEB"/>
<path d="M278.318 105.245C273.546 105.324 261.411 105.523 256.774 105.571L249.513 105.611H249.148V105.245V96.3459V95.9483H249.545L263.947 96.004C267.526 96.004 274.763 96.1074 278.35 96.163H278.533V96.3459L278.318 105.245ZM278.318 105.245L278.127 96.3459L278.318 96.5288C274.723 96.5845 267.502 96.6561 263.916 96.6879L249.513 96.7436L249.911 96.3459L249.871 105.245L249.513 104.879H256.671C261.236 104.935 273.618 105.134 278.342 105.213L278.318 105.245Z" fill="#EBEBEB"/>
<path d="M310.446 96.3301H281.642V105.229H310.446V96.3301Z" fill="#EBEBEB"/>
<path d="M189.145 169.661C184.373 169.741 172.238 169.939 167.601 169.987L160.341 170.027H159.975V169.661V160.762V160.364H160.372L174.775 160.42C178.361 160.42 185.59 160.523 189.177 160.579H189.36V160.762L189.145 169.661ZM189.145 169.661L188.954 160.762L189.145 160.945C185.55 161.001 178.329 161.072 174.743 161.104L160.341 161.16L160.738 160.762L160.659 169.661L160.301 169.295L167.458 169.335C172.023 169.383 184.405 169.581 189.129 169.661H189.145Z" fill="#EBEBEB"/>
<path d="M488.482 21.4324C483.71 21.512 471.582 21.7108 466.938 21.7664H459.677H459.319V21.4006V12.5016V12.104H459.717L474.119 12.1597C477.706 12.1597 484.935 12.271 488.522 12.3187H488.712V12.5016L488.529 21.4006L488.482 21.4324ZM488.482 21.4324L488.299 12.5335L488.482 12.7243C484.887 12.772 477.674 12.8516 474.08 12.8754L459.677 12.9311L460.075 12.5335V21.4324L459.709 21.0746H466.867C471.431 21.1223 483.806 21.3211 488.529 21.4006L488.482 21.4324Z" fill="#EBEBEB"/>
<path d="M504.546 23.7544H475.741V32.6534H504.546V23.7544Z" fill="#EBEBEB"/>
<path d="M31.381 21.4402C26.6094 21.5277 14.4738 21.7265 9.83738 21.7743H2.57664H2.21082V21.4084V12.5174V12.1118H2.60845L16.9788 12.1993C20.5575 12.1993 27.7944 12.3106 31.381 12.3584H31.5639V12.5413L31.381 21.4323V21.4402ZM31.381 21.4402L31.1902 12.5492L31.381 12.7321C27.7864 12.7798 20.5655 12.8594 16.9788 12.8912L2.57664 12.9389L2.97427 12.5492V21.4402L2.6164 21.0824H9.77375C14.3386 21.1301 26.7208 21.3369 31.4446 21.4084L31.381 21.4402Z" fill="#EBEBEB"/>
<path d="M18.6407 288.259C23.4123 288.179 35.6912 287.98 40.3037 287.925H47.461L47.0952 288.29V279.391L47.4928 279.789L33.0906 279.733C29.504 279.733 22.2751 279.622 18.6885 279.574L18.8714 279.391L18.6885 288.29L18.6407 288.259ZM18.6407 288.259L18.4578 279.36V279.177H18.6487C22.2433 279.137 29.4563 279.049 33.0509 279.026L47.4531 278.97H47.8507V279.368V288.267V288.632H47.4928H40.2321C35.6434 288.585 23.4282 288.386 18.6885 288.306L18.6407 288.259Z" fill="#EBEBEB"/>
<path d="M2.56863 299.472H31.373V290.573H2.56863V299.472Z" fill="#EBEBEB"/>
<path d="M475.741 288.267C480.513 288.187 492.792 287.988 497.412 287.933H504.57L504.212 288.298V279.399L504.609 279.797L490.207 279.741C486.621 279.741 479.392 279.63 475.805 279.582L475.996 279.399L475.805 288.298L475.741 288.267ZM475.741 288.267L475.558 279.407V279.224H475.741C479.336 279.177 486.557 279.089 490.144 279.065L504.546 279.01H504.943V279.407V288.306V288.672H504.578L497.317 288.632C492.728 288.585 480.513 288.386 475.773 288.306L475.741 288.267Z" fill="#EBEBEB"/>
<path d="M487.925 299.742H398.752V341.549H487.925V299.742Z" fill="#EBEBEB"/>
<path opacity="0.1" d="M487.933 299.742H458.405V341.549H487.933V299.742Z" fill="#020100"/>
<path opacity="0.1" d="M487.925 299.742H398.752V308.927L487.925 304.339V299.742Z" fill="#020100"/>
<path d="M491.79 291.813H394.879V302.295H491.79V291.813Z" fill="#EBEBEB"/>
<path opacity="0.1" d="M491.798 291.813H459.709V302.295H491.798V291.813Z" fill="#020100"/>
<path d="M438.913 307.949H418.244V314.359H438.913V307.949Z" fill="#A6A6A6"/>
<path d="M448.194 244.082H390.847V285.65H448.194V244.082Z" fill="#EBEBEB"/>
<path d="M411.111 239.772H390.847V244.082H412.272L411.111 239.772Z" fill="#EBEBEB"/>
<g opacity="0.3">
<path d="M448.194 244.082H390.847V285.65H448.194V244.082Z" fill="black"/>
<path d="M411.111 239.772H390.847V244.082H412.272L411.111 239.772Z" fill="black"/>
</g>
<path d="M409.409 241.457H392.835V243.963H409.409V241.457Z" fill="white"/>
<path d="M448.194 285.65H390.847L390.434 246.659H447.78L448.194 285.65Z" fill="#EBEBEB"/>
<path d="M410.649 242.706H390.386L390.434 246.658H411.858L410.649 242.706Z" fill="#EBEBEB"/>
<g opacity="0.1">
<path d="M448.194 285.65H390.847L390.434 246.658H447.78L448.194 285.65Z" fill="black"/>
<path d="M410.649 242.706H390.386L390.434 246.658H411.858L410.649 242.706Z" fill="black"/>
</g>
<path d="M440.806 247.215H383.459V288.784H440.806V247.215Z" fill="#EBEBEB"/>
<path d="M403.722 242.905H383.459V247.215H404.884L403.722 242.905Z" fill="#EBEBEB"/>
<g opacity="0.2">
<path d="M440.806 247.215H383.459V288.784H440.806V247.215Z" fill="white"/>
<path d="M403.722 242.905H383.459V247.215H404.884L403.722 242.905Z" fill="white"/>
</g>
<path d="M402.021 244.591H385.448V247.096H402.021V244.591Z" fill="white"/>
<path d="M440.806 288.783H383.459L383.038 249.792H440.384L440.806 288.783Z" fill="#EBEBEB"/>
<path d="M403.261 245.839H382.998L383.038 249.792H404.462L403.261 245.839Z" fill="#EBEBEB"/>
<g opacity="0.4">
<path d="M440.806 288.783H383.46L383.038 249.792H440.384L440.806 288.783Z" fill="white"/>
<path d="M403.261 245.839H382.998L383.038 249.792H404.462L403.261 245.839Z" fill="white"/>
</g>
<path d="M470.222 250.014H381.05V291.821H470.222V250.014Z" fill="#DBDBDB"/>
<path d="M470.23 250.014H440.702V291.821H470.23V250.014Z" fill="#C7C7C7"/>
<path opacity="0.1" d="M470.23 250.014H381.05V259.2L470.23 254.603V250.014Z" fill="#020100"/>
<path d="M421.21 258.214H400.541V264.623H421.21V258.214Z" fill="#A6A6A6"/>
<path d="M487.052 247.018L392.079 228.605L390.088 238.877L485.06 257.29L487.052 247.018Z" fill="#DBDBDB"/>
<path d="M489.288 245.809L457.762 239.824L455.807 250.121L487.333 256.107L489.288 245.809Z" fill="#C7C7C7"/>
<path d="M267.86 36.6138L242.626 85.9121L235.525 74.9216L151.378 129.325L135.505 104.776L219.643 50.3798L212.542 39.3972L267.86 36.6138Z" fill="#EBEBEB"/>
<path d="M103.766 125.302L119.631 149.852L117.5 151.227L101.619 126.678L103.766 125.302Z" fill="#EBEBEB"/>
<path d="M114.883 118.112L130.757 142.654L123.488 147.362L107.623 122.812L114.883 118.112Z" fill="#EBEBEB"/>
<path d="M130.542 107.989L146.416 132.531L135.194 139.791L119.321 115.234L130.542 107.989Z" fill="#EBEBEB"/>
<path d="M130.192 179.085L115.615 207.54L111.52 201.201L62.9689 232.59L53.8075 218.427L102.366 187.03L98.2706 180.692L130.192 179.085Z" fill="#DBDBDB"/>
<path d="M50.9443 220.279L60.0978 234.443L53.6243 238.634L44.4629 224.463L50.9443 220.279Z" fill="#DBDBDB"/>
<path d="M41.2203 226.388L37.0251 229.085L46.1379 243.26L50.333 240.563L41.2203 226.388Z" fill="#DBDBDB"/>
<path d="M35.4845 230.268L44.6459 244.44L43.4133 245.235L34.2519 231.063L35.4845 230.268Z" fill="#DBDBDB"/>
<path d="M105.46 276.799C99.7735 268.321 91.9402 256.671 86.5085 248.169L89.6419 246.126C95.0258 254.524 102.859 266.731 108.012 275.129L108.052 275.192H107.989L105.46 276.735V276.799ZM105.46 276.799L107.909 275.129V275.232C102.485 267.28 94.5407 255.096 89.2124 246.913L89.7691 247.032L87.272 248.623L87.3913 248.09C92.6877 256.281 100.243 268.369 105.483 276.791L105.46 276.799Z" fill="#EBEBEB"/>
<path d="M279.98 143.775C279.566 144.292 251.048 200.955 250.706 201.408L250.507 201.098L242.253 188.374C243.843 188.175 144.602 251.661 144.992 251.7L144.682 251.899L144.475 251.589L126.057 223.087L125.85 222.769L126.168 222.57C126.248 222.832 224.478 158.639 223.826 159.879L215.603 147.155L215.404 146.845C215.715 146.845 279.63 143.847 279.98 143.815V143.775ZM279.98 143.775C279.98 143.569 214.856 147.752 215.953 146.885L224.216 159.609C224.765 160.015 126.661 222.872 126.582 223.174L126.693 222.657L145.103 251.152L144.586 251.04C144.912 251.104 242.475 187.419 242.634 188.095L250.865 200.859C249.569 201.655 280.29 143.688 279.98 143.759V143.775Z" fill="#EBEBEB"/>
<path d="M102.461 238.356C105.595 243.056 113.516 254.929 116.522 259.494L121.19 266.651L121.389 266.953L121.078 267.16L112.657 272.632L112.331 272.846L112.108 272.512C109.07 267.741 101.3 255.685 98.3976 251.08L93.8725 243.923L93.7692 243.772L93.9203 243.676L102.461 238.356ZM102.461 238.356L94.1191 243.962L94.1748 243.708L98.8509 250.786C101.833 255.263 109.746 267.415 112.776 272.083L112.227 271.964L120.681 266.548L120.577 267.049L115.981 259.955C113.094 255.414 105.356 243.072 102.406 238.356H102.461Z" fill="#EBEBEB"/>
<path d="M120.601 226.602C126.168 234.984 133.938 246.579 139.322 254.913L139.513 255.207L139.218 255.398L126.216 263.852L125.882 264.074L125.667 263.732L116.498 249.418C113.388 244.646 110.35 239.747 107.273 234.912L120.601 226.562V226.602ZM120.601 226.602C117.42 228.765 110.923 233.067 107.71 235.214L107.774 234.904C110.875 239.628 114.017 244.336 117.086 249.084L126.319 263.303L125.771 263.184L138.821 254.802L138.717 255.295C133.437 247.08 125.866 235.008 120.585 226.602H120.601Z" fill="#EBEBEB"/>
<path d="M2.48914 341.549C163.339 341.064 343.784 341.056 504.633 341.549C343.784 342.042 163.339 342.034 2.48914 341.549Z" fill="#263238"/>
<path d="M42.1013 173.208C42.1013 173.208 20.7008 170.217 25.703 144.387C25.703 144.387 49.6086 149.779 42.1013 173.208Z" fill="#80BCFF"/>
<path opacity="0.1" d="M42.1013 173.208C42.1013 173.208 20.7008 170.217 25.703 144.387C25.703 144.387 49.6086 149.779 42.1013 173.208Z" fill="black"/>
<path d="M41.0197 167.816C40.5982 166.512 40.1052 165.231 39.5644 163.967C39.5644 163.8 39.5644 163.641 39.5087 163.482C39.5087 163.124 39.4451 162.766 39.4213 162.416C39.3576 161.621 39.3099 160.873 39.2622 160.102C39.1747 158.559 39.0713 157.008 39.0475 155.466C39.0475 155.386 38.9202 155.386 38.9202 155.466C38.9202 157.008 38.9202 158.551 38.9202 160.102C38.9202 160.897 38.9918 161.645 39.0475 162.416C39.0475 162.583 39.0475 162.758 39.0475 162.925C37.8496 160.353 36.4146 157.898 34.761 155.593C34.0507 154.569 33.2889 153.581 32.4786 152.634C31.6197 151.656 30.7211 150.726 29.8622 149.764C29.8065 149.7 29.7111 149.764 29.7668 149.859C31.3053 151.56 32.6868 153.396 33.8942 155.346C34.5463 156.332 35.1613 157.34 35.7392 158.368L35.5404 158.289C35.2859 158.185 35.0394 158.074 34.7451 157.979L33.0035 157.318C31.8504 156.889 30.7052 156.476 29.56 156.038C29.4884 156.038 29.4407 156.134 29.5123 156.157C30.6495 156.611 31.7788 157.088 32.9001 157.573L34.5543 158.289L35.3495 158.631C35.5317 158.722 35.7238 158.791 35.9221 158.837C36.3515 159.633 36.781 160.428 37.1707 161.223C38.1698 163.221 39.0436 165.28 39.7871 167.387C39.8427 167.53 39.8905 167.681 39.9382 167.824C39.3767 167.5 38.7919 167.218 38.1886 166.981L35.9698 165.971C34.4747 165.287 32.9796 164.587 31.5402 163.768C31.4686 163.728 31.405 163.848 31.4845 163.887C32.9478 164.683 34.3952 165.542 35.8664 166.345C36.5981 166.742 37.3377 167.14 38.0932 167.498C38.7183 167.866 39.3972 168.134 40.1052 168.293C40.82 170.25 41.2901 172.288 41.5048 174.361C41.7434 177.28 41.7196 180.23 41.7832 183.157C41.7832 183.204 41.8627 183.204 41.8627 183.157C42.0774 180.5 42.1967 177.82 42.2126 175.148C42.2102 172.656 41.8075 170.18 41.0197 167.816Z" fill="#263238"/>
<path d="M37.7273 152.626C37.5208 154.136 37.4489 155.661 37.5126 157.183H37.5762C37.6637 155.672 37.6796 154.161 37.8545 152.658C37.8625 152.579 37.7352 152.547 37.7273 152.626Z" fill="#263238"/>
<path d="M31.6039 153.923C30.6478 153.556 29.7268 153.104 28.8523 152.571C28.7887 152.523 28.7171 152.642 28.7887 152.682C29.6454 153.26 30.5835 153.708 31.5721 154.01C31.5828 154.012 31.5937 154.009 31.6029 154.004C31.6122 153.998 31.6192 153.989 31.6229 153.979C31.6266 153.969 31.6268 153.958 31.6233 153.948C31.6198 153.937 31.613 153.929 31.6039 153.923Z" fill="#263238"/>
<path d="M42.8171 214.196C42.8171 211.81 42.7535 209.464 42.7296 207.102C42.6819 199.245 42.6183 191.395 42.4751 183.546C42.3638 177.311 42.218 171.076 42.0377 164.842C42.0355 164.826 42.0301 164.811 42.0219 164.797C42.0137 164.783 42.0029 164.771 41.99 164.762C41.99 163.06 41.99 161.358 41.99 159.657C41.99 159.657 41.9423 159.593 41.8866 159.593C41.831 159.593 41.7832 159.593 41.7832 159.664C41.7832 161.366 41.7832 163.071 41.7832 164.778C41.7698 164.785 41.7583 164.795 41.75 164.808C41.7416 164.82 41.7366 164.835 41.7355 164.85C41.4254 175.983 41.1391 187.037 41.0755 198.139C41.0755 200.39 41.0755 202.648 41.0755 204.907C41.0012 212.133 40.9747 219.367 40.9959 226.61C40.9959 227.763 40.9959 228.908 40.9959 230.061C40.9959 236.686 41.0596 243.302 41.0675 249.943C41.0675 250.3 41.4572 250.475 41.8628 250.491C42.2684 250.507 42.8568 250.324 42.8568 249.919C42.8568 242.618 42.9046 235.318 42.9046 228.017C42.8171 223.421 42.8171 218.816 42.8171 214.196Z" fill="#263238"/>
<path d="M33.8464 207.038C33.8464 207.038 23.5557 199.412 13.7899 204.565C4.02411 209.719 2.48926 229.584 2.48926 229.584C2.48926 229.584 16.804 231.628 25.862 223.031C34.5701 214.745 33.8464 207.038 33.8464 207.038Z" fill="#80BCFF"/>
<path d="M36.6539 207.5C34.7618 206.746 32.7128 206.473 30.6895 206.704C30.2745 206.63 29.8544 206.588 29.433 206.577L27.9776 206.466L24.9795 206.259C22.9516 206.108 20.9157 205.981 18.8878 205.774C18.8738 205.779 18.8616 205.788 18.853 205.8C18.8444 205.812 18.8397 205.827 18.8397 205.841C18.8397 205.856 18.8444 205.871 18.853 205.883C18.8616 205.895 18.8738 205.904 18.8878 205.909C20.8919 206.163 22.8641 206.45 24.9 206.649C25.9338 206.752 26.9676 206.863 28.0094 206.935L28.757 207.006C28.4548 207.078 28.1446 207.15 27.8504 207.237C26.2333 207.706 24.6689 208.34 23.1822 209.13C22.3869 209.273 21.5917 209.504 20.7964 209.694C19.524 209.989 18.2516 210.323 16.9871 210.649C14.49 211.309 12.0167 212.04 9.53551 212.764C9.45599 212.764 9.53551 212.907 9.57527 212.891C12.0565 212.279 14.5457 211.722 17.0269 211.134L20.6453 210.267L21.5917 210.044C18.8275 211.759 16.3572 213.907 14.2753 216.406C12.2687 218.867 10.5628 221.558 9.19355 224.423C9.19355 224.502 9.26512 224.574 9.30489 224.494C10.995 221.548 13.0615 218.835 15.4523 216.422C15.4125 216.558 15.3648 216.693 15.325 216.828C15.1262 217.44 14.9433 218.045 14.7524 218.649C14.3707 219.858 13.9572 221.075 13.6232 222.291C13.6232 222.371 13.7186 222.395 13.7504 222.291C14.1798 221.114 14.5934 219.906 15.0069 218.753L15.6193 217.011L15.9294 216.112L16.0248 215.834C17.1741 214.721 18.3933 213.682 19.6751 212.724C21.3705 211.475 23.2036 210.423 25.1385 209.591C25.1385 209.774 25.0749 209.949 25.0352 210.116C24.9318 210.585 24.8284 211.054 24.733 211.524C24.5341 212.502 24.3433 213.48 24.1524 214.458C23.7627 216.446 23.5242 218.434 23.1504 220.454C23.1504 220.534 23.2617 220.566 23.2776 220.454C23.7389 218.45 24.3353 216.478 24.7807 214.474C25.0034 213.472 25.226 212.462 25.4407 211.46L25.727 210.044C25.7748 209.782 25.8384 209.52 25.8702 209.249L26.4269 209.018C29.1308 208.024 32.113 207.293 34.9918 207.849C36.3531 208.103 37.6307 208.689 38.7113 209.554C39.792 210.42 40.6424 211.539 41.1869 212.812C41.2744 213.035 41.6323 212.899 41.5766 212.669C40.9802 210.291 38.9125 208.454 36.6539 207.5Z" fill="#263238"/>
<path d="M20.8997 215.985C20.6028 217.289 20.3139 218.593 20.0329 219.898C19.7046 221.147 19.4628 222.417 19.3092 223.699C19.3092 223.755 19.3808 223.755 19.3967 223.699C19.7716 222.444 20.0639 221.167 20.2715 219.874C20.526 218.586 20.7725 217.297 21.027 216.009C21.0429 215.937 20.9156 215.905 20.8997 215.985Z" fill="#263238"/>
<path d="M10.9431 219.301C9.63883 219.961 8.36641 220.717 6.96675 221.266C6.95544 221.266 6.94457 221.27 6.93525 221.277C6.92593 221.283 6.9185 221.292 6.91374 221.302C6.90897 221.313 6.90704 221.324 6.90814 221.335C6.90925 221.347 6.91334 221.357 6.92001 221.366C6.92668 221.376 6.93567 221.383 6.94606 221.387C6.95646 221.392 6.96787 221.394 6.97913 221.392C6.99038 221.391 7.00106 221.386 7.01007 221.38C7.01908 221.373 7.02609 221.364 7.03037 221.353C8.39056 220.756 9.71788 220.087 11.0067 219.349C11.0067 219.349 11.0067 219.285 10.9431 219.301Z" fill="#263238"/>
<path d="M36.1608 193.025C36.1608 193.025 23.5877 193.821 17.7346 185.534C11.8814 177.247 13.1936 165.398 13.1936 165.398C13.1936 165.398 26.4109 166.989 31.6517 172.961C36.8924 178.933 36.1608 193.025 36.1608 193.025Z" fill="#80BCFF"/>
<path d="M42.0695 205.448C41.6321 204.104 41.0913 202.776 40.5823 201.472C40.0734 200.167 39.5724 198.951 38.9918 197.71C37.8678 195.174 36.6095 192.7 35.2223 190.298C34.3395 188.771 33.3852 187.284 32.407 185.821C32.407 185.598 32.3434 185.376 32.3037 185.153C32.248 184.763 32.1923 184.358 32.1287 183.984C32.0094 183.189 31.8663 182.393 31.7311 181.598C31.4448 179.864 31.0869 178.139 30.8086 176.397C30.8086 176.318 30.6654 176.318 30.6813 176.397C30.9358 178.107 31.1028 179.833 31.3493 181.55C31.4607 182.393 31.572 183.244 31.6993 184.087L31.8424 184.994C29.9267 182.188 27.8502 179.496 25.6235 176.93C25.3213 176.58 25.0111 176.238 24.7089 175.896C24.7089 175.801 24.6294 175.705 24.5896 175.61C24.4942 175.371 24.4067 175.133 24.3192 174.894C24.1284 174.393 23.9534 173.892 23.7705 173.391C23.4206 172.405 23.1025 171.411 22.8321 170.401C22.8321 170.321 22.6889 170.353 22.7128 170.401C22.9593 171.427 23.2297 172.461 23.5081 173.478C23.6592 173.972 23.8182 174.457 23.9932 174.942C23.9932 175.021 24.0488 175.101 24.0807 175.188C22.4901 173.431 20.7962 171.745 19.1023 170.075C19.0897 170.063 19.0729 170.057 19.0558 170.058C19.0386 170.059 19.0225 170.066 19.0109 170.079C18.9993 170.091 18.9932 170.108 18.9939 170.125C18.9947 170.142 19.0022 170.159 19.0148 170.17C22.2656 173.571 25.2438 177.221 27.9218 181.089C27.617 180.99 27.3062 180.91 26.9913 180.851C26.0211 180.66 25.0509 180.524 24.0727 180.405C22.0209 180.143 19.9771 179.88 17.9333 179.562C17.8538 179.562 17.8219 179.674 17.9333 179.689C19.8817 180.071 21.8142 180.485 23.7546 180.954C24.6691 181.161 25.5837 181.344 26.4983 181.527C27.2484 181.686 27.987 181.896 28.7091 182.155C28.9158 182.441 29.1226 182.727 29.3214 183.022C30.2439 184.366 31.1346 185.741 32.0015 187.117L30.7131 186.871C29.7429 186.68 28.7727 186.505 27.7945 186.346C25.8779 186.028 23.9534 185.694 22.0607 185.264C22.0438 185.264 22.0276 185.271 22.0157 185.283C22.0038 185.295 21.9971 185.311 21.9971 185.328C21.9971 185.345 22.0038 185.361 22.0157 185.373C22.0276 185.385 22.0438 185.391 22.0607 185.391C23.9852 185.845 25.8859 186.37 27.7945 186.879C28.717 187.125 29.6475 187.348 30.5779 187.555L31.9776 187.857C32.1625 187.906 32.3515 187.938 32.5422 187.952C34.3819 190.937 36.1024 193.983 37.7035 197.09C38.4033 198.458 39.0793 199.839 39.7314 201.233C40.4074 202.665 40.98 204.12 41.6003 205.567C41.7116 205.877 42.1649 205.758 42.0695 205.448Z" fill="#263238"/>
<path d="M29.1943 176.532C28.9557 175.331 28.7012 174.146 28.399 172.937C28.399 172.858 28.2559 172.898 28.2797 172.937C28.5183 174.114 28.741 175.323 28.9557 176.484C29.1345 177.67 29.3734 178.846 29.6714 180.007C29.5942 178.839 29.4347 177.678 29.1943 176.532Z" fill="#263238"/>
<path d="M21.854 176.182C21.2735 175.888 20.6532 175.657 20.0488 175.387L19.0945 175.013L18.6094 174.822C18.4232 174.766 18.2444 174.689 18.0765 174.591C17.9811 174.52 17.9175 174.687 18.0129 174.703C18.2017 174.751 18.3834 174.823 18.5537 174.917L19.0309 175.132L19.9454 175.538C20.5507 175.82 21.1721 176.067 21.8063 176.277C21.8779 176.333 21.9256 176.214 21.854 176.182Z" fill="#263238"/>
<path d="M49.0361 183.181C49.0361 183.181 56.6547 168.922 68.2655 166.719C79.8764 164.516 86.9303 176.429 86.9303 176.429C86.9303 176.429 78.4846 187.221 67.844 189.105C57.2034 190.99 49.0361 183.181 49.0361 183.181Z" fill="#80BCFF"/>
<path d="M75.9955 173.089C72.9786 172.688 69.9198 172.726 66.9136 173.2L67.4226 172.922L69.9992 171.601C71.7599 170.623 73.5702 169.736 75.4229 168.945C75.4312 168.956 75.4424 168.963 75.4551 168.967C75.4677 168.97 75.4812 168.97 75.4937 168.966C75.5061 168.961 75.5169 168.953 75.5245 168.942C75.5321 168.932 75.5362 168.919 75.5362 168.906C75.5362 168.892 75.5321 168.879 75.5245 168.869C75.5169 168.858 75.5061 168.85 75.4937 168.846C75.4812 168.841 75.4677 168.841 75.4551 168.844C75.4424 168.848 75.4312 168.855 75.4229 168.866C73.6097 169.709 71.7329 170.456 69.9118 171.252C69.0052 171.665 68.1065 172.102 67.2238 172.572C66.6512 172.874 66.0229 173.16 65.4583 173.526C62.9156 174.036 60.4451 174.856 58.1021 175.967L59.5495 174.377C60.631 173.192 61.6888 171.951 62.8737 170.878C62.9373 170.822 62.8737 170.735 62.7783 170.79C61.5695 171.888 60.2891 172.906 59.1121 174.051C58.5395 174.608 57.9987 175.18 57.4659 175.777C57.2035 176.071 56.9331 176.373 56.6706 176.691C52.6935 178.82 49.2378 181.805 46.5522 185.43C43.8666 189.054 42.0179 193.229 41.1392 197.654C41.1392 197.734 41.2426 197.781 41.2664 197.702C42.8956 192.281 45.8155 187.336 49.7757 183.292C54.0348 178.944 59.3992 175.839 65.2913 174.313C68.7879 173.423 72.4039 173.096 76.0035 173.343C76.0372 173.342 76.0692 173.328 76.0923 173.303C76.1154 173.278 76.1278 173.246 76.1267 173.212C76.1257 173.178 76.1112 173.146 76.0866 173.123C76.062 173.1 76.0293 173.088 75.9955 173.089Z" fill="#263238"/>
<path opacity="0.1" d="M86.8984 176.436C86.8984 176.436 78.4527 187.22 67.8121 189.105C59.7084 190.536 53.0362 186.314 50.3164 184.23L49.7279 183.268C49.7279 183.268 55.2152 178.647 65.5854 175.983C75.9556 173.319 86.8984 176.436 86.8984 176.436Z" fill="black"/>
<path d="M69.2674 168.023C68.3777 168.539 67.5175 169.105 66.6908 169.717C65.8873 170.328 65.1419 171.012 64.464 171.761C64.4514 171.773 64.4443 171.79 64.4443 171.808C64.4443 171.826 64.4514 171.843 64.464 171.856C64.4767 171.869 64.4938 171.876 64.5117 171.876C64.5296 171.876 64.5468 171.869 64.5595 171.856C65.3547 171.188 66.1023 170.52 66.8975 169.892C67.6738 169.255 68.4892 168.668 69.339 168.134C69.3538 168.125 69.3641 168.11 69.3679 168.093C69.3716 168.075 69.3684 168.057 69.3589 168.043C69.3494 168.028 69.3344 168.018 69.3173 168.014C69.3001 168.01 69.2822 168.013 69.2674 168.023Z" fill="#263238"/>
<path d="M75.6218 170.456C75.1923 170.639 74.7549 170.79 74.3255 170.973L73.0372 171.506C72.9417 171.545 72.9895 171.697 73.0849 171.657L74.3732 171.132C74.8027 170.957 75.2242 170.758 75.6615 170.583C75.7331 170.52 75.7013 170.392 75.6218 170.456Z" fill="#263238"/>
<path d="M47.5171 201.034C47.5171 201.034 49.5529 215.142 60.1617 220.073C70.7705 225.003 83.6935 220.073 83.6935 220.073C83.6935 220.073 78.6038 189.543 47.5171 201.034Z" fill="#80BCFF"/>
<path d="M76.385 210.895C75.4068 210.784 74.4366 210.617 73.4664 210.442L72.0429 210.171C71.8043 210.124 71.5498 210.068 71.2953 210.028C71.017 209.758 70.7307 209.488 70.4365 209.233C68.428 207.465 66.258 205.888 63.9551 204.525C62.6988 203.784 61.4004 203.118 60.0662 202.529H60.2651L63.7563 202.68C66.0864 202.791 68.4085 202.839 70.7387 202.99C70.8261 202.99 70.8182 202.863 70.7387 202.863C68.4006 202.704 66.0784 202.449 63.7483 202.243L60.3525 201.941L58.603 201.789L58.1576 201.742C57.5532 201.519 56.9409 201.304 56.3285 201.113C53.4362 200.122 50.3255 199.951 47.3421 200.62C44.6779 201.304 42.0138 203.046 41.3219 205.861C41.3219 205.957 41.4492 206.028 41.4889 205.933C42.483 203.547 45.0915 202.394 47.4454 201.909C49.019 201.606 50.6326 201.574 52.217 201.813C52.3305 202.539 52.5115 203.253 52.7578 203.945C53.052 204.939 53.3383 205.933 53.6405 206.919C54.2449 208.899 54.905 210.895 55.4935 212.852C55.5004 212.865 55.512 212.876 55.5261 212.881C55.5401 212.887 55.5558 212.888 55.5702 212.883C55.5846 212.878 55.5968 212.868 55.6046 212.855C55.6124 212.842 55.6153 212.827 55.6128 212.812C55.1197 210.832 54.7062 208.835 54.229 206.855C53.9984 205.877 53.7519 204.907 53.5053 203.937C53.3733 203.255 53.1953 202.583 52.9725 201.925C53.9008 202.092 54.8194 202.31 55.7241 202.577C57.3508 203.063 58.9445 203.652 60.4957 204.342C60.6468 205.344 60.8774 206.338 61.108 207.332C61.3943 208.581 61.7204 209.814 62.1101 211.03C62.1146 211.043 62.1227 211.053 62.1334 211.06C62.144 211.068 62.1567 211.072 62.1697 211.072C62.1827 211.072 62.1954 211.068 62.206 211.06C62.2167 211.053 62.2248 211.043 62.2294 211.03L62.1816 210.8C61.9431 209.647 61.6886 208.493 61.45 207.34C61.2512 206.41 61.0683 205.479 60.8695 204.549C62.1896 205.145 63.4779 205.79 64.7344 206.513C64.7344 206.8 64.8299 207.094 64.8696 207.356C64.9491 207.841 65.0366 208.319 65.1241 208.804C65.3229 209.893 65.5376 210.975 65.8001 212.048C66.2798 214.13 66.8881 216.181 67.6212 218.188C67.6134 218.199 67.6092 218.213 67.6092 218.227C67.6092 218.242 67.6134 218.255 67.6212 218.267L67.6769 218.339C67.7246 218.387 67.7962 218.339 67.7882 218.267C67.2952 216.176 66.7385 214.108 66.2772 212.009C66.0466 210.959 65.816 209.917 65.6092 208.827C65.4979 208.303 65.4024 207.778 65.307 207.237C65.307 207.086 65.2513 206.927 65.2275 206.768C66.6579 207.604 68.0387 208.523 69.3629 209.519C71.6634 211.236 73.7939 213.169 75.725 215.293C75.7965 215.372 75.9476 215.293 75.8761 215.166C75.0884 214.093 74.2442 213.063 73.3471 212.08C72.8143 211.508 72.2656 210.959 71.7009 210.418H71.8759C72.3689 210.505 72.87 210.577 73.371 210.649C74.3491 210.776 75.3353 210.871 76.3134 210.983C76.4407 211.014 76.4725 210.911 76.385 210.895Z" fill="#263238"/>
<path d="M68.9336 215.683C68.9336 215.556 68.8938 215.436 68.8779 215.317C68.862 215.198 68.7666 215.007 68.7427 214.856C68.52 213.917 68.3371 212.963 68.1701 212.009C68.1701 211.945 68.0508 211.961 68.0508 212.009C68.1126 213.271 68.3812 214.515 68.8461 215.691C68.8461 215.691 68.9256 215.691 68.9177 215.691L68.9336 215.683Z" fill="#263238"/>
<path d="M60.0584 215.452C60.0565 215.437 60.0489 215.422 60.0372 215.412C60.0255 215.402 60.0104 215.396 59.9948 215.396C59.6926 214.148 59.4063 212.899 59.1518 211.635C59.0166 210.975 58.8814 210.315 58.7542 209.655C58.6826 209.297 58.619 208.939 58.5554 208.581C58.5276 208.266 58.4498 207.957 58.3248 207.666C58.3202 207.654 58.3121 207.644 58.3014 207.636C58.2908 207.629 58.2781 207.625 58.2651 207.625C58.2521 207.625 58.2395 207.629 58.2288 207.636C58.2181 207.644 58.21 207.654 58.2055 207.666C58.1965 208.308 58.2877 208.946 58.4759 209.559C58.6031 210.251 58.7383 210.935 58.8894 211.619C59.1996 213.011 59.5415 214.402 59.9391 215.77C59.9391 215.842 60.0823 215.826 60.0743 215.77C60.0664 215.714 60.0664 215.555 60.0584 215.452Z" fill="#263238"/>
<path d="M75.4228 206.839C73.4823 206.569 71.5499 206.291 69.6094 206.044C69.5219 206.044 69.4901 206.163 69.6094 206.171C71.5419 206.458 73.4823 206.696 75.4228 206.967C75.4705 206.975 75.5023 206.847 75.4228 206.839Z" fill="#263238"/>
<path d="M42.0853 167.951C42.0853 167.951 35.596 139.481 66.1897 127.958C66.1897 127.958 74.6672 165.438 42.0853 167.951Z" fill="#80BCFF"/>
<path d="M48.6862 151.808L49.0202 151.601L50.746 150.639L54.2928 148.651C56.6309 147.346 58.9371 145.986 61.2832 144.674C61.3627 144.674 61.2832 144.523 61.2195 144.563C58.8338 145.843 56.448 147.036 54.0622 148.293L50.5551 150.146L49.1236 150.941C50.1416 149.008 51.239 147.108 52.4319 145.279C54.0224 142.845 55.78 140.507 57.6091 138.248C57.6886 138.145 57.5534 138.01 57.458 138.105C54.7745 140.714 52.3996 143.623 50.3801 146.774C50.3801 146.678 50.3801 146.575 50.3801 146.479C50.3801 145.772 50.4278 145.064 50.4437 144.356C50.4437 142.964 50.396 141.573 50.4437 140.181C50.4437 140.101 50.3165 140.101 50.3165 140.181C50.2529 141.549 50.0938 142.909 50.0143 144.277C50.0143 144.96 49.9427 145.644 49.9268 146.32C49.9268 146.694 49.8791 147.116 49.9268 147.521C49.2906 148.523 48.6862 149.539 48.1136 150.567C47.0914 152.423 46.1806 154.337 45.3859 156.301C45.3859 155.593 45.3064 154.885 45.2666 154.178C45.1791 152.587 44.9883 151.068 44.9167 149.501C44.9167 149.422 44.7894 149.422 44.7894 149.501C44.7894 151.092 44.7894 152.619 44.7894 154.178C44.7894 154.973 44.8372 155.768 44.8928 156.516L44.9405 157.39C43.9683 159.932 43.1972 162.546 42.6343 165.208C42.1056 168.055 41.7234 170.927 41.4891 173.813C41.4891 173.813 41.4891 173.813 41.5289 173.813C41.837 171.213 42.3692 168.646 43.1194 166.138C43.4932 164.794 43.9147 163.458 44.3282 162.162C45.6006 161.558 46.8174 160.81 48.05 160.126C49.2827 159.442 50.6108 158.734 51.8832 158.027C54.436 156.627 56.9888 155.203 59.6211 153.971C59.6926 153.971 59.6211 153.82 59.5495 153.859C56.8854 155.068 54.1974 156.245 51.5969 157.526C50.2927 158.186 49.0043 158.886 47.7319 159.601C46.6742 160.198 45.5847 160.794 44.5509 161.486C44.8451 160.603 45.1553 159.721 45.4972 158.846C46.4403 156.447 47.5047 154.098 48.6862 151.808Z" fill="#263238"/>
<path d="M46.1094 145.294C46.1094 145.207 45.9742 145.215 45.9821 145.294C46.0855 146.885 46.1412 148.547 46.3161 150.161C46.3161 150.18 46.3237 150.198 46.3371 150.212C46.3505 150.225 46.3687 150.233 46.3877 150.233C46.4067 150.233 46.4249 150.225 46.4383 150.212C46.4517 150.198 46.4593 150.18 46.4593 150.161C46.4036 148.531 46.2286 146.917 46.1094 145.294Z" fill="#263238"/>
<path d="M60.7742 150.734C58.8655 151.529 56.933 152.237 55.0244 153.032C54.9687 153.032 55.0244 153.143 55.0244 153.119C56.9649 152.396 58.8655 151.608 60.7901 150.853C60.8935 150.829 60.8537 150.702 60.7742 150.734Z" fill="#263238"/>
<path d="M63.6847 137.596C61.8151 138.46 59.9986 139.434 58.2451 140.515C58.2325 140.529 58.2247 140.546 58.223 140.565C58.2212 140.584 58.2256 140.603 58.2354 140.619C58.2453 140.635 58.26 140.648 58.2775 140.655C58.2951 140.662 58.3144 140.663 58.3326 140.658C60.106 139.616 61.9113 138.622 63.7563 137.707C63.8279 137.676 63.7563 137.564 63.6847 137.596Z" fill="#263238"/>
<path d="M63.2236 229.528H19.1025V276.035H63.2236V229.528Z" fill="#455A64"/>
<path d="M18.323 245.982H16.0645V341.549H18.323V245.982Z" fill="#263238"/>
<path d="M66.0229 245.982H63.7644V341.549H66.0229V245.982Z" fill="#263238"/>
<path d="M43.3737 245.982H41.1152V341.549H43.3737V245.982Z" fill="#263238"/>
<path d="M64.8935 273.053H17.1937V279.495H64.8935V273.053Z" fill="#263238"/>
<path d="M58.3406 341.215C84.8546 336.794 153.899 322.367 173.502 312.753C282.215 260.361 334.145 78.9459 334.79 77.1724H422.316C421.664 78.9061 411.349 108.601 367.69 191.499C340.698 240.758 301.635 273.594 255.558 300.569C176.421 346.862 58.3406 341.215 58.3406 341.215Z" fill="#80BCFF"/>
<g opacity="0.1">
<path d="M58.3406 341.215C84.8546 336.794 153.899 322.367 173.502 312.753C282.215 260.361 334.145 78.9459 334.79 77.1724H422.316C421.664 78.9061 411.349 108.601 367.69 191.499C340.698 240.758 301.635 273.594 255.558 300.569C176.421 346.862 58.3406 341.215 58.3406 341.215Z" fill="black"/>
</g>
<path d="M314.455 68.0826L334.789 77.1724C334.233 78.6516 307.138 218.252 224.248 285.261C166.083 332.276 128.856 343.315 2.48926 341.438V316.88C73.8004 316.88 124.673 314.574 171.085 290.358C275.829 235.716 314.295 68.4882 314.455 68.0826Z" fill="#80BCFF"/>
<path d="M314.455 68.0826H408.788L422.316 77.1724H334.789L314.455 68.0826Z" fill="#80BCFF"/>
<path d="M386.307 9.63087L447.645 87.1928L303.082 86.8031L386.307 9.63087Z" fill="#80BCFF"/>
<g opacity="0.1">
<path d="M386.307 9.63087L447.645 87.1928L303.082 86.8031L386.307 9.63087Z" fill="black"/>
</g>
<path d="M303.082 86.8028L282.056 77.1722L365.28 0L386.306 9.63062L303.082 86.8028Z" fill="#80BCFF"/>
<path d="M458.214 68.0026C457.846 71.5337 456.504 74.8931 454.337 77.7055C452.171 80.5179 449.265 82.6727 445.944 83.9291C442.624 85.1855 439.02 85.4942 435.534 84.8205C432.048 84.1469 428.818 82.5175 426.205 80.1144L416.59 81.522L421.362 73.2354C420.263 70.5383 419.794 67.6263 419.99 64.7207C420.186 61.8151 421.042 58.9924 422.492 56.4671C423.943 53.9419 425.95 51.7806 428.361 50.1475C430.772 48.5144 433.524 47.4524 436.407 47.0424C439.29 46.6324 442.229 46.8851 445 47.7813C447.771 48.6775 450.301 50.1935 452.398 52.2143C454.495 54.235 456.104 56.7073 457.102 59.443C458.1 62.1788 458.461 65.1062 458.158 68.0026H458.214Z" fill="white"/>
<path d="M458.214 68.0026C457.843 71.533 456.505 74.8928 454.349 77.7127C453.807 78.411 453.226 79.0775 452.607 79.7088C451.971 80.3213 451.296 80.8924 450.587 81.4186C447.741 83.566 444.355 84.8819 440.806 85.22C439.923 85.3021 439.035 85.3207 438.149 85.2757C437.258 85.2503 436.37 85.1572 435.493 84.9973C431.964 84.3473 428.684 82.7282 426.022 80.3212L426.244 80.3928L416.701 81.856L416.009 81.9674L416.359 81.355L421.131 73.0525V73.3786C419.732 69.9506 419.344 66.1937 420.014 62.5523C420.683 58.9109 422.382 55.5375 424.908 52.8311C427.435 50.1247 430.683 48.1987 434.27 47.2808C437.857 46.363 441.632 46.4917 445.148 47.6518C447.917 48.5898 450.442 50.136 452.536 52.1769C454.616 54.2146 456.208 56.6971 457.191 59.4381C458.175 62.179 458.524 65.1071 458.214 68.0026ZM458.214 68.0026C458.521 65.1157 458.161 62.197 457.161 59.4715C456.161 56.746 454.548 54.2866 452.447 52.2832C450.346 50.2797 447.813 48.7858 445.043 47.9166C442.273 47.0474 439.34 46.8262 436.471 47.2701C433.629 47.6925 430.922 48.7617 428.559 50.3955C426.218 52.0397 424.261 54.1724 422.825 56.6463C421.413 59.129 420.584 61.8999 420.399 64.75C420.217 67.5989 420.676 70.4523 421.743 73.1002L421.815 73.2672L421.727 73.4263L416.9 81.697L416.558 81.188L426.133 79.844H426.268L426.364 79.9315C428.922 82.3278 432.097 83.9636 435.533 84.6554C436.39 84.8288 437.26 84.9351 438.134 84.9735C439.007 85.0331 439.884 85.0331 440.758 84.9735C442.506 84.84 444.228 84.4626 445.871 83.8522C447.525 83.2496 449.082 82.4083 450.492 81.355C451.199 80.835 451.874 80.272 452.512 79.6691C453.134 79.047 453.716 78.3856 454.253 77.6889C456.442 74.8875 457.813 71.535 458.214 68.0026Z" fill="#263238"/>
<path d="M436.448 76.9492L428.264 68.6706L431.008 65.9508L435.788 70.7939L445.72 55.2227L448.981 57.3063L436.448 76.9492Z" fill="#80BCFF"/>
<path d="M328.101 341.787C329.899 342.368 381.105 341.708 383.038 340.443C383.777 339.974 384.119 332.491 384.271 323.472V323.186C384.271 321.325 379.499 290.103 379.499 290.103L345.247 290.445L351.188 323.25V323.806C351.188 323.806 331.704 332.833 329.716 334.447C327.727 336.061 326.304 341.215 328.101 341.787Z" fill="#FBC6BF"/>
<path d="M384.271 323.186V323.472C384.12 332.499 383.778 339.966 383.038 340.443C381.106 341.7 329.899 342.368 328.109 341.787C326.32 341.207 327.823 336.053 329.779 334.447C331.736 332.84 351.251 323.814 351.251 323.814V323.242L350.353 318.295H383.714C384.056 320.92 384.279 322.78 384.271 323.186Z" fill="#EBEBEB"/>
<path d="M328.101 341.787C329.024 342.081 342.933 342.05 356.532 341.787C359.268 341.732 361.987 341.668 364.58 341.596C374.274 341.334 382.29 340.928 383.03 340.443C383.77 339.958 384.104 332.721 384.255 323.854C384.255 323.727 384.255 323.608 384.255 323.48C384.255 323.353 384.255 323.281 384.255 323.186H384.215L351.212 323.25V323.814C351.212 323.814 331.728 332.833 329.739 334.447C327.751 336.061 326.304 341.215 328.101 341.787Z" fill="#80BCFF"/>
<path d="M328.658 339.799C337.287 339.473 372.119 339.004 380.676 339.314C380.748 339.314 380.748 339.37 380.676 339.37C372.127 339.879 337.295 340.085 328.658 339.934C328.475 339.934 328.475 339.799 328.658 339.799Z" fill="#263238"/>
<path d="M347.553 323.393C350.941 322.709 355.1 323.178 357.733 325.564C357.836 325.659 357.733 325.803 357.59 325.771C354.33 324.76 350.97 324.107 347.569 323.822C347.541 323.823 347.513 323.819 347.487 323.809C347.46 323.799 347.436 323.784 347.415 323.765C347.395 323.746 347.378 323.723 347.366 323.697C347.354 323.672 347.348 323.644 347.347 323.616C347.346 323.587 347.35 323.559 347.36 323.533C347.37 323.506 347.385 323.482 347.404 323.461C347.423 323.441 347.446 323.424 347.472 323.412C347.498 323.401 347.525 323.394 347.553 323.393Z" fill="#263238"/>
<path d="M345.12 324.896C348.508 324.22 352.675 324.689 355.299 327.075C355.403 327.17 355.299 327.313 355.156 327.274C351.897 326.272 348.541 325.619 345.144 325.325C345.087 325.328 345.031 325.309 344.988 325.271C344.946 325.233 344.92 325.179 344.917 325.123C344.914 325.066 344.934 325.01 344.972 324.967C345.01 324.925 345.063 324.899 345.12 324.896Z" fill="#263238"/>
<path d="M342.686 326.407C346.074 325.731 350.241 326.2 352.866 328.586C352.969 328.673 352.866 328.817 352.723 328.785C349.464 327.783 346.107 327.13 342.71 326.836C342.653 326.84 342.597 326.82 342.555 326.782C342.512 326.744 342.487 326.69 342.484 326.634C342.48 326.577 342.5 326.521 342.538 326.478C342.576 326.436 342.629 326.41 342.686 326.407Z" fill="#263238"/>
<path d="M347.554 323.146H385.352C385.352 323.146 373.702 246.801 373.996 245.306C374.139 244.511 426.937 165.199 426.937 165.199H387.595C387.595 165.199 343.219 221.941 338.225 236.232C334.599 246.65 347.554 323.146 347.554 323.146Z" fill="#263238"/>
<path d="M369.264 242.387C369.813 240.176 371.077 238.22 372.238 236.288C374.871 231.937 420.232 169.072 420.869 168.038C420.916 167.959 421.044 167.998 421.004 168.038C419.206 171.816 374.386 233.083 371.602 238.912C370.544 241.139 369.63 243.198 369.678 245.696C369.812 248.202 370.077 250.7 370.473 253.179C370.802 255.687 371.133 258.189 371.467 260.686C372.146 265.696 372.848 270.699 373.574 275.693C375.043 285.729 376.567 295.763 378.147 305.793C378.346 307.042 378.553 308.291 378.759 309.531C378.759 309.65 378.6 309.698 378.577 309.579C376.779 299.551 375.03 289.522 373.511 279.446C371.992 269.37 370.616 259.279 369.28 249.171C368.85 246.931 368.845 244.63 369.264 242.387Z" fill="#455A64"/>
<path d="M380.891 314.192C375.324 314.192 376.914 314.088 371.435 314.152C368.731 314.152 350.989 314.39 348.476 314.947C348.42 314.947 348.42 315.066 348.476 315.074C351.013 315.504 368.747 314.939 371.451 314.844C376.962 314.661 375.38 314.645 380.891 314.39C380.994 314.398 380.994 314.192 380.891 314.192Z" fill="#37474F"/>
<path d="M503.934 341.294C502.145 341.907 450.938 342.177 448.981 340.952C448.234 340.491 447.757 333 447.446 324.005C447.446 323.91 447.446 323.814 447.446 323.719C447.375 321.866 434.603 290.97 434.603 290.97L468.076 290.7L480.474 323.146V323.711C480.474 323.711 500.125 332.371 502.137 333.946C504.149 335.521 505.715 340.69 503.934 341.294Z" fill="#FBC6BF"/>
<path d="M503.934 341.294C502.144 341.906 450.937 342.177 448.981 340.952C448.233 340.491 447.756 333 447.446 324.005C447.446 323.91 447.446 323.814 447.446 323.719C447.446 323.623 444.973 317.524 444.965 317.253L478.008 316.895L480.481 323.178V323.743C480.481 323.743 500.132 332.403 502.144 333.978C504.156 335.552 505.715 340.69 503.934 341.294Z" fill="#EBEBEB"/>
<path d="M503.934 341.294C502.144 341.906 450.937 342.177 448.981 340.952C448.234 340.491 447.756 332.999 447.446 324.005C447.446 323.91 447.446 323.814 447.446 323.719L480.482 323.178V323.743C480.482 323.743 500.132 332.403 502.144 333.978C504.156 335.552 505.715 340.69 503.934 341.294Z" fill="#80BCFF"/>
<path d="M503.345 339.314C494.709 339.147 459.868 339.314 451.327 339.783C451.256 339.783 451.256 339.831 451.327 339.839C459.876 340.189 494.717 339.759 503.345 339.449C503.528 339.449 503.528 339.314 503.345 339.314Z" fill="#263238"/>
<path d="M484.187 323.25C480.792 322.637 476.64 323.178 474.056 325.636C473.952 325.731 474.056 325.874 474.199 325.842C477.439 324.773 480.785 324.056 484.179 323.703C484.239 323.704 484.298 323.681 484.341 323.639C484.384 323.598 484.409 323.54 484.41 323.48C484.411 323.42 484.388 323.362 484.346 323.319C484.305 323.276 484.247 323.251 484.187 323.25Z" fill="#263238"/>
<path d="M486.613 324.737C483.209 324.117 479.058 324.657 476.473 327.123C476.37 327.21 476.513 327.353 476.616 327.321C479.848 326.243 483.186 325.515 486.573 325.15C486.62 325.143 486.663 325.12 486.695 325.085C486.728 325.051 486.748 325.006 486.753 324.959C486.757 324.912 486.746 324.864 486.721 324.824C486.695 324.784 486.657 324.753 486.613 324.737Z" fill="#263238"/>
<path d="M489.07 326.184C485.667 325.564 481.515 326.113 478.931 328.57C478.835 328.665 478.971 328.801 479.082 328.769C482.32 327.701 485.663 326.987 489.054 326.638C489.115 326.64 489.173 326.618 489.217 326.577C489.261 326.536 489.287 326.479 489.289 326.419C489.291 326.359 489.269 326.3 489.228 326.256C489.187 326.212 489.13 326.186 489.07 326.184Z" fill="#263238"/>
<path d="M391.73 165.231C391.73 165.231 396.446 193.972 396.764 194.894C396.764 194.894 398.522 195.69 401.679 197.185L439.851 323.051L482.127 323.202L431.97 165.231H391.73Z" fill="#263238"/>
<path d="M395.229 194.004C398.898 195.534 402.426 197.381 405.775 199.523C405.797 199.541 405.813 199.566 405.819 199.595C405.826 199.623 405.822 199.653 405.809 199.679C405.796 199.705 405.774 199.726 405.748 199.738C405.721 199.75 405.691 199.753 405.663 199.746C402.108 198.012 398.506 196.35 395.015 194.425C394.967 194.392 394.933 194.343 394.919 194.287C394.904 194.231 394.911 194.172 394.937 194.12C394.964 194.069 395.008 194.029 395.061 194.007C395.115 193.986 395.175 193.984 395.229 194.004Z" fill="#455A64"/>
<path d="M396.589 177.542C397.17 180.978 397.488 184.469 397.878 187.936L398.164 190.433C398.184 191.2 398.389 191.95 398.76 192.62C399.508 193.781 400.844 194.322 402.061 194.855C402.196 194.911 402.14 195.133 401.989 195.086C400.683 194.772 399.477 194.135 398.482 193.233C397.377 192.064 397.408 190.29 397.241 188.787C396.758 185.063 396.493 181.313 396.446 177.558C396.43 177.47 396.573 177.447 396.589 177.542Z" fill="#455A64"/>
<path d="M400.772 178.592C400.892 181.073 401.17 183.554 401.377 186.019C401.48 187.244 401.568 188.461 401.639 189.686C401.711 190.91 401.862 192.199 401.822 193.447C401.822 193.527 401.687 193.551 401.671 193.447C401.464 192.27 401.44 191.061 401.337 189.853C401.234 188.644 401.154 187.347 401.083 186.091C400.939 183.594 400.876 181.073 400.645 178.576C400.685 178.512 400.764 178.52 400.772 178.592Z" fill="#455A64"/>
<path d="M406.172 202.466C409.099 209.623 440.368 311.894 440.71 312.784C440.71 312.856 440.623 312.896 440.591 312.832C436.408 304.649 409.719 212.367 407.047 205.177L406.045 202.505C406.029 202.442 406.14 202.394 406.172 202.466Z" fill="#455A64"/>
<path d="M439.549 315.989C440.774 315.822 442.038 315.822 443.271 315.735C444.504 315.647 445.744 315.631 446.985 315.599C449.466 315.544 451.947 315.512 454.429 315.48C459.349 315.427 464.274 315.401 469.205 315.401C472.012 315.401 474.827 315.552 477.634 315.615C477.645 315.612 477.657 315.61 477.668 315.612C477.679 315.614 477.69 315.618 477.699 315.625C477.709 315.631 477.716 315.64 477.721 315.65C477.727 315.66 477.729 315.671 477.729 315.683C477.729 315.694 477.727 315.706 477.721 315.716C477.716 315.726 477.709 315.735 477.699 315.741C477.69 315.748 477.679 315.752 477.668 315.754C477.657 315.755 477.645 315.754 477.634 315.751C475.161 315.854 472.68 316.005 470.199 316.1C467.717 316.196 465.244 316.204 462.763 316.244C457.761 316.315 452.767 316.395 447.772 316.379C446.381 316.379 444.997 316.379 443.605 316.331C442.213 316.283 440.869 316.331 439.533 316.132C439.446 316.1 439.478 315.989 439.549 315.989Z" fill="#455A64"/>
<path d="M405.806 122.844C397.925 116.211 386.489 100.703 384.469 94.7947C381.861 87.184 378.306 61.3937 381.09 58.65C382.632 57.139 400.701 61.0358 401.583 63.1989C402.466 65.362 401.106 87.6612 401.257 89.379C401.408 91.0967 408.415 107.789 412.479 115.805C417.218 125.182 410.944 127.17 405.806 122.844Z" fill="#FBC6BF"/>
<path d="M380.382 66.2769C379.745 64.8008 379.594 63.1602 379.952 61.5928C380.644 59.0957 382.6 56.5429 382.243 54.9683C381.678 52.4632 379.65 48.3597 380.652 47.5565C382.696 45.8864 384.962 47.3338 387.324 52.0417C387.937 53.2664 388.748 56.2964 389.615 56.5191C391.126 56.9167 392 54.2844 392.374 51.835C393.114 47.0634 393.225 40.081 396.454 39.4368C397.679 39.1983 398.1 40.9717 398.18 43.1269C398.553 40.0412 399.277 37.0033 400.621 36.6773C400.969 36.5961 401.334 36.6514 401.642 36.832C401.95 37.0126 402.177 37.3045 402.275 37.6475C402.364 37.2916 402.557 36.9701 402.829 36.7238C403.1 36.4775 403.439 36.3174 403.802 36.2637C405.043 36.1604 405.806 37.3214 406.267 38.904C406.383 38.79 406.524 38.7052 406.679 38.6568C406.834 38.6083 406.998 38.5977 407.158 38.6257C410.451 38.9597 410.896 51.0238 409.496 53.9265C406.586 59.6363 402.904 64.9186 398.553 69.625C394.005 70.6191 380.382 66.2769 380.382 66.2769Z" fill="#FBC6BF"/>
<path d="M396.51 56.9403C397.645 55.0227 398.34 52.8769 398.545 50.6577C398.76 48.0493 398.267 45.4408 398.219 42.8403C398.219 42.7687 398.108 42.7767 398.108 42.8403C398.196 44.1127 398.108 45.4011 398.18 46.6735C398.251 47.9459 398.275 49.1786 398.18 50.4271C398.098 52.6951 397.499 54.9146 396.43 56.9165L396.51 56.9403Z" fill="#263238"/>
<path d="M400.637 58.078C401.743 55.7866 402.612 53.3884 403.23 50.9206C403.81 48.2167 403.429 45.4253 403.095 42.7056C402.899 41.0779 402.663 39.4503 402.387 37.8226C402.387 37.759 402.268 37.759 402.276 37.8226C402.641 40.5981 402.928 43.3895 403.127 46.1888C403.331 48.7854 403.018 51.3968 402.204 53.871C401.743 55.2866 401.17 56.6624 400.613 58.0302C400.59 58.0859 400.629 58.1018 400.637 58.078Z" fill="#263238"/>
<path d="M404.94 58.2206C406.045 56.0813 407.023 54.2443 407.325 51.8028C407.594 48.9989 407.511 46.1724 407.079 43.389C406.872 41.8859 406.618 40.3988 406.339 38.9037C406.339 38.848 406.22 38.9037 406.228 38.9037C406.78 42.2397 407.115 45.6081 407.23 48.9876C407.31 50.5944 407.141 52.204 406.729 53.7592C406.24 55.2812 405.625 56.7602 404.892 58.1808C404.892 58.1808 404.932 58.2285 404.94 58.2206Z" fill="#263238"/>
<path d="M402.641 70.7222L379.085 73.7124C379.085 73.7124 382.489 92.25 384.143 96.6239C385.797 100.998 400.295 120.633 406.275 124.458C412.256 128.283 416.614 125.253 413.433 116.505C410.252 107.758 402.999 91.1366 402.617 89.3393C402.236 87.542 402.641 70.7222 402.641 70.7222Z" fill="#455A64"/>
<path d="M409.838 107.336L394.323 111.702C392.366 109.213 390.49 106.676 388.891 104.386L406.57 99.4073C407.62 101.92 408.749 104.664 409.838 107.336Z" fill="#37474F"/>
<path d="M401.114 76.8855C397.933 77.4263 384.613 79.1838 381.71 79.3747C381.511 79.3747 381.455 79.2633 381.662 79.2236C388.089 78.0491 394.574 77.2261 401.09 76.7582C401.17 76.7503 401.202 76.8696 401.114 76.8855Z" fill="#263238"/>
<path opacity="0.1" d="M406.252 124.434C401.973 121.715 393.329 110.915 388.151 103.336L410.419 108.76C411.58 111.615 412.646 114.327 413.457 116.513C416.646 125.206 412.248 128.236 406.252 124.434Z" fill="black"/>
<path d="M435.167 176.222C435.167 176.222 379.189 175.18 379.085 175.069C378.982 174.957 386.545 126.558 394.02 113.038C396.828 107.949 406.601 108.322 410.268 111.177C419.437 118.311 435.318 172.969 435.167 176.222Z" fill="#455A64"/>
<path d="M433.291 168.07L380.35 167.275C380.652 165.517 381.002 163.529 381.392 161.374L431.597 162.098C432.241 164.309 432.813 166.313 433.291 168.07Z" fill="#37474F"/>
<path d="M434.285 171.855L379.73 171.06C379.825 170.488 379.929 169.851 380.048 169.175L433.8 169.971C433.975 170.639 434.142 171.251 434.285 171.855Z" fill="#37474F"/>
<path d="M396.12 117.261C398.569 118.056 405.798 114.08 407.548 110.255C407.667 109.992 407.087 107.352 406.53 104.107C406.204 102.143 405.878 99.9401 405.735 97.9122L393.241 101.928C394.151 104.412 394.755 106.997 395.038 109.626C395.067 109.904 395.067 110.184 395.038 110.461C395.038 110.501 395.038 110.549 395.038 110.605C394.855 112.203 393.297 116.378 396.12 117.261Z" fill="#FBC6BF"/>
<path d="M405.091 98.087C404.852 100.862 403.5 109.857 396.343 110.549C395.904 110.588 395.462 110.588 395.023 110.549C395.023 110.493 395.023 110.445 395.023 110.406C395.047 110.128 395.047 109.848 395.023 109.571C394.744 106.943 394.143 104.361 393.233 101.88L405.091 98.087Z" fill="#263238"/>
<path d="M410.666 87.3749C410.817 92.1067 405.099 104.075 401.21 106.04C395.643 108.895 388.136 107.272 386.148 100.926C384.215 94.7708 391.969 79.303 396.128 77.6886C402.276 75.3187 410.459 80.4004 410.666 87.3749Z" fill="#FBC6BF"/>
<path opacity="0.3" d="M406.872 98.8825C405.083 102.254 402.959 105.189 401.218 106.04C395.603 108.895 388.136 107.272 386.147 100.926C385.456 98.7155 386.004 95.3038 387.197 91.7569C387.873 94.2461 391.301 93.411 391.301 93.411L392.748 93.9757C393.432 96.9261 397.949 97.952 400.701 97.2283C402.697 96.7273 405.186 93.2918 405.186 93.2918L406.872 98.8825Z" fill="#263238"/>
<path d="M407.397 97.7454C405.401 97.6341 405.011 95.7334 404.828 94.4451C404.478 91.7571 407.564 87.4786 407.214 84.3691C407.125 83.4512 406.727 82.5905 406.086 81.9276C405.444 81.2647 404.597 80.8386 403.683 80.7189C402.037 80.6553 399.436 81.9675 398.363 81.5142C397.289 81.0609 397.838 78.5558 397.066 78.3331C395.38 77.7526 392.175 81.4505 391.237 83.2081C391.237 83.2081 394.283 74.7862 402.641 76.846C410.793 78.8103 411.389 84.9258 411.246 87.5422C411.023 92.4729 407.397 97.7454 407.397 97.7454Z" fill="#263238"/>
<path d="M396.001 91.5504C396.001 91.5504 396.001 91.6219 396.001 91.6537C395.579 92.449 395.205 93.4113 395.818 94.0395C395.818 94.0395 395.818 94.0952 395.818 94.0793C394.991 93.5147 395.468 92.2263 396.001 91.5504Z" fill="#263238"/>
<path d="M397.13 91.0653C398.466 91.606 397.281 94.2463 396.048 93.7374C394.816 93.2284 396.009 90.612 397.13 91.0653Z" fill="#263238"/>
<path d="M391.5 89.3394C391.5 89.3394 391.412 89.3394 391.404 89.3871C391.062 90.1824 390.529 91.1049 389.67 91.0413C389.67 91.0413 389.67 91.0413 389.67 91.089C390.617 91.3753 391.309 90.1903 391.5 89.3394Z" fill="#263238"/>
<path d="M391.142 88.1704C389.869 87.4865 388.589 90.0711 389.766 90.7073C390.943 91.3435 392.215 88.743 391.142 88.1704Z" fill="#263238"/>
<path d="M399.468 89.3393C399.077 89.2778 398.689 89.1955 398.307 89.0927C397.886 89.0673 397.486 88.9022 397.17 88.6235C397.088 88.5159 397.044 88.3847 397.044 88.2498C397.044 88.1149 397.088 87.9836 397.17 87.876C397.365 87.6887 397.606 87.5568 397.869 87.4939C398.131 87.431 398.406 87.4394 398.665 87.5181C399.212 87.5983 399.709 87.8823 400.057 88.3134C400.128 88.4149 400.169 88.5348 400.175 88.6589C400.181 88.783 400.151 88.9062 400.089 89.014C400.028 89.1218 399.936 89.2097 399.826 89.2673C399.716 89.3249 399.592 89.3499 399.468 89.3393Z" fill="#263238"/>
<path d="M390.649 86.4286C391.006 86.5942 391.373 86.7402 391.746 86.866C392.112 87.077 392.537 87.1609 392.955 87.1046C393.082 87.0611 393.192 86.9768 393.267 86.8646C393.342 86.7525 393.377 86.6188 393.368 86.4843C393.311 86.2212 393.184 85.9783 393.001 85.7811C392.818 85.5838 392.585 85.4394 392.327 85.363C391.83 85.1244 391.262 85.0818 390.736 85.2437C390.616 85.284 390.51 85.359 390.432 85.4592C390.354 85.5595 390.308 85.6805 390.298 85.8071C390.289 85.9336 390.317 86.0602 390.38 86.1708C390.442 86.2814 390.535 86.3711 390.649 86.4286Z" fill="#263238"/>
<path d="M394.323 95.9957C393.973 96.2219 393.582 96.3745 393.172 96.4442C392.761 96.514 392.341 96.4994 391.937 96.4013C391.579 96.317 391.236 96.1803 390.919 95.9957C390.855 95.966 390.794 95.9315 390.736 95.8923L390.569 95.781C390.53 95.7528 390.501 95.7128 390.487 95.667C390.473 95.6211 390.474 95.5718 390.49 95.5265L390.537 95.447V95.3754C390.808 94.7392 391.332 93.7849 391.332 93.7849C391.054 93.7849 389.647 93.7849 389.814 93.4747C391.152 90.6653 392.775 88.0005 394.657 85.5221C394.671 85.5095 394.688 85.5017 394.707 85.5C394.726 85.4982 394.745 85.5026 394.761 85.5124C394.777 85.5223 394.79 85.537 394.797 85.5545C394.804 85.5721 394.805 85.5914 394.8 85.6096C393.567 88.2022 391.897 90.5641 390.625 93.1487C391.127 93.1417 391.628 93.2059 392.112 93.3395C392.191 93.4032 391.142 95.113 391.046 95.4152C391.538 95.6972 392.082 95.877 392.645 95.944C393.208 96.0109 393.778 95.9636 394.323 95.8049C394.378 95.8685 394.418 95.948 394.323 95.9957Z" fill="#263238"/>
<path d="M391.42 95.8448C391.569 96.44 391.867 96.9874 392.287 97.4353C392.522 97.6781 392.828 97.8397 393.162 97.8966C393.885 98.0159 394.172 97.4274 394.283 96.8627C394.341 96.5615 394.359 96.2542 394.339 95.9482C393.38 96.2251 392.357 96.1889 391.42 95.8448Z" fill="#263238"/>
<path d="M392.287 97.4588C392.522 97.7016 392.829 97.8632 393.162 97.9201C393.885 98.0394 394.172 97.4509 394.283 96.8863C393.935 96.7424 393.548 96.7206 393.185 96.8246C392.823 96.9285 392.506 97.1521 392.287 97.4588Z" fill="#FF9CBD"/>
<path d="M394.832 95.9716C394.021 95.4118 393.465 94.5533 393.286 93.5843C393.107 92.6153 393.32 91.6148 393.878 90.8024C394.269 90.2262 394.815 89.7717 395.452 89.4909C396.09 89.2101 396.794 89.1143 397.483 89.2144C398.173 89.3145 398.82 89.6066 399.351 90.0571C399.883 90.5077 400.277 91.0986 400.488 91.7624C400.699 92.4262 400.72 93.1361 400.547 93.811C400.374 94.4859 400.015 95.0986 399.511 95.579C399.006 96.0595 398.377 96.3884 397.694 96.5281C397.012 96.6679 396.304 96.6128 395.651 96.3692C395.364 96.2685 395.089 96.1351 394.832 95.9716ZM394.283 91.0808C393.917 91.6028 393.715 92.2217 393.701 92.859C393.687 93.4963 393.862 94.1234 394.205 94.6609C394.548 95.1984 395.042 95.6221 395.626 95.8783C396.21 96.1346 396.856 96.2118 397.484 96.1004C398.112 95.9889 398.692 95.6936 399.152 95.2521C399.612 94.8105 399.93 94.2424 400.067 93.6198C400.203 92.9971 400.152 92.3479 399.92 91.7544C399.687 91.1608 399.284 90.6496 398.76 90.2855C398.543 90.1311 398.305 90.0079 398.053 89.9197C397.39 89.6792 396.666 89.6625 395.992 89.8722C395.319 90.0819 394.732 90.5064 394.323 91.0808H394.283Z" fill="#263238"/>
<path d="M387.849 92.3929C386.489 91.701 386.139 89.6572 387.054 87.8281C387.46 86.9962 388.116 86.3121 388.931 85.8718C389.268 85.659 389.655 85.5374 390.053 85.5187C390.452 85.5 390.848 85.585 391.204 85.7652C391.559 85.9455 391.862 86.2149 392.083 86.5472C392.303 86.8795 392.434 87.2633 392.462 87.6611C392.586 88.5798 392.419 89.5144 391.985 90.3332C391.11 92.0669 389.4 92.9814 388.064 92.4963L387.849 92.3929ZM389.161 86.3092C388.444 86.7053 387.866 87.3136 387.507 88.0508C386.712 89.6413 386.959 91.3829 388.072 91.9555C389.185 92.5281 390.752 91.6931 391.555 90.1105C391.943 89.3793 392.093 88.5453 391.985 87.7247C391.953 87.4094 391.846 87.1063 391.673 86.8407C391.5 86.5751 391.266 86.3547 390.991 86.1978L390.816 86.1183C390.542 86.0332 390.253 86.0063 389.968 86.0391C389.684 86.072 389.409 86.164 389.161 86.3092Z" fill="#263238"/>
<path d="M393.79 91.2399L394.251 91.0491C393.965 90.3651 393.09 89.212 391.865 89.6653L392.032 90.1345C393.13 89.721 393.766 91.1763 393.79 91.2399Z" fill="#263238"/>
<path d="M408.12 99.5904H408.637C408.637 99.3598 408.59 97.308 407.683 96.6479C406.777 95.9878 400.613 93.5702 400.351 93.4669L400.168 93.9281C401.957 94.6359 406.737 96.5684 407.397 97.0455C408.057 97.5227 408.12 99.0257 408.12 99.5904Z" fill="#263238"/>
<path d="M404.351 95.2798C404.351 95.2798 408.375 92.059 409.918 93.6097C411.461 95.1605 407.603 100.409 405.21 100.584C404.904 100.626 404.592 100.606 404.295 100.525C403.997 100.444 403.718 100.303 403.476 100.111C403.234 99.9195 403.033 99.6809 402.885 99.4095C402.738 99.1382 402.646 98.8399 402.617 98.5324L404.351 95.2798Z" fill="#FBC6BF"/>
<path d="M408.773 95.0891C408.773 95.0891 408.773 95.1448 408.773 95.1527C407.079 95.3197 405.87 96.4888 404.884 97.7771C405.017 97.6522 405.175 97.5576 405.348 97.4997C405.521 97.4418 405.704 97.422 405.886 97.4416C406.067 97.4613 406.242 97.5199 406.398 97.6135C406.555 97.7071 406.689 97.8334 406.792 97.9838C406.792 97.9838 406.792 98.0713 406.729 98.0475C406.491 97.8929 406.211 97.814 405.927 97.8211C405.644 97.8282 405.368 97.9209 405.138 98.0872C404.748 98.3783 404.39 98.7117 404.073 99.0813C403.961 99.1926 403.739 99.0813 403.834 98.9063C404.351 96.9341 406.641 94.6755 408.773 95.0891Z" fill="#263238"/>
<path d="M398.132 126.51C387.261 124.442 366.051 115.185 362.743 112.768C355.808 107.71 341.637 82.8339 342.861 78.8337C343.521 76.6308 362.409 75.8276 364.333 77.3466C366.258 78.8655 374.672 97.5144 375.745 99.0333C376.819 100.552 398.18 114.835 402.88 118.915C411.341 126.295 405.21 127.862 398.132 126.51Z" fill="#FBC6BF"/>
<path d="M363.029 84.2259C363.029 84.2259 367.006 77.0686 369.391 72.297C370.711 69.6249 372.572 64.8295 372.636 62.4199C372.747 58.8173 370.886 43.6755 367.204 44.0493C363.872 44.3833 367.117 57.187 367.117 57.187C367.117 57.187 364.986 43.9777 361.041 45.1229C357.097 46.2681 362.703 60.2329 362.703 60.2329C362.703 60.2329 360.206 46.7134 356.341 48.5266C353.414 49.9024 357.773 62.8413 357.773 62.8413C357.773 62.8413 355.546 51.2305 352.468 52.5029C349.072 53.9185 352.349 66.1258 352.349 66.1258C345.088 70.7065 342.177 73.9114 342.806 79.6452C342.861 80.5916 363.029 84.2259 363.029 84.2259Z" fill="#FBC6BF"/>
<path d="M368.477 62.7935C368.278 61.203 368.095 59.6125 367.761 58.1174C367.427 56.6223 367.037 55.0477 366.568 53.5446C365.983 51.5753 365.183 49.6764 364.182 47.8824C365.773 51.1906 367.021 56.6859 367.363 58.2208C367.705 59.7556 368.111 61.2746 368.445 62.8094C368.429 62.8492 368.477 62.8333 368.477 62.7935Z" fill="#263238"/>
<path d="M362.942 64.0979C362.608 62.1177 362.345 60.1216 361.924 58.1652C361.502 56.2089 360.818 53.4811 360.27 51.5566C360.222 51.4135 359.991 51.4135 360.031 51.5566C360.508 53.4971 361.073 56.3282 361.526 58.2607C361.98 60.1932 362.512 62.1415 362.894 64.1058C362.902 64.1456 362.95 64.1297 362.942 64.0979Z" fill="#263238"/>
<path d="M358.393 66.0699C357.957 63.0181 357.205 60.0198 356.15 57.1233C356.102 56.9801 356.031 57.0755 356.071 57.2266C356.866 60.193 357.526 62.5072 358.297 66.0859C358.297 66.1415 358.401 66.1336 358.393 66.0699Z" fill="#263238"/>
<path d="M344.46 88.369L368.381 81.148C368.381 81.148 374.895 96.9578 375.928 98.3654C376.962 99.773 400.152 114.915 404.781 118.716C409.409 122.518 408.646 129.635 398.705 127.734C390.132 126.096 366.894 116.601 362.552 113.698C358.21 110.795 344.46 88.369 344.46 88.369Z" fill="#455A64"/>
<path d="M393.734 110.875L384.835 123.416C382.115 122.406 379.324 121.317 376.66 120.235L386.712 106.08C388.994 107.63 391.42 109.285 393.734 110.875Z" fill="#37474F"/>
<path d="M349.693 93.0611C352.969 92.1783 366.242 88.0668 369.049 86.9773C369.248 86.9058 369.248 86.7626 369.049 86.8183C359.164 89.2041 352.85 91.9 349.677 92.9339C349.581 92.9577 349.613 93.0849 349.693 93.0611Z" fill="#263238"/>
<path d="M386.044 123.846C389.959 124.722 393.774 125.993 397.432 127.639C393.518 126.763 389.702 125.492 386.044 123.846Z" fill="#263238"/>
<path d="M393.361 126.327C394.227 126.804 395.42 127.392 396.239 127.917C395.672 127.879 395.121 127.716 394.624 127.441C394.126 127.167 393.695 126.786 393.361 126.327Z" fill="#263238"/>
<path d="M404.78 118.716C402.549 117.599 400.518 116.122 398.768 114.342C401 115.458 403.032 116.936 404.78 118.716Z" fill="#263238"/>
</svg>
