<svg width="22" height="51" viewBox="0 0 22 51" fill="none" xmlns="http://www.w3.org/2000/svg">
<path d="M20.6545 50.991C20.4587 51.0216 20.2586 50.9738 20.0977 50.8581C19.9367 50.7423 19.8278 50.5679 19.7945 50.3724C14.2271 18.2657 0.30118 1.39766 0.180478 1.2317C0.115775 1.157 0.0667153 1.07009 0.0361764 0.976107C0.00563746 0.882121 -0.00573722 0.782971 0.00270233 0.68451C0.0111419 0.586048 0.0392177 0.490275 0.0853054 0.402858C0.131393 0.315441 0.19453 0.238156 0.271001 0.175562C0.426043 0.0478402 0.624888 -0.01418 0.825049 0.00273505C1.02521 0.0196501 1.21085 0.114156 1.34226 0.266084C1.47805 0.432049 15.6605 17.5868 21.2882 50.0556C21.3055 50.1537 21.3032 50.2543 21.2814 50.3515C21.2596 50.4487 21.2188 50.5407 21.1613 50.622C21.1038 50.7034 21.0307 50.7726 20.9464 50.8255C20.862 50.8785 20.7679 50.9142 20.6696 50.9307L20.6545 50.991Z" fill="white"/>
</svg>
