<svg width="44" height="52" viewBox="0 0 44 52" fill="none" xmlns="http://www.w3.org/2000/svg">
<path d="M29.7645 51.997H29.9587C30.1329 52.0128 30.3069 51.9658 30.4494 51.8644C30.5918 51.763 30.6933 51.614 30.7354 51.4443C34.4247 37.8971 43.3865 24.7979 43.4761 24.6784C43.5813 24.5147 43.6238 24.3184 43.5956 24.1258C43.5894 24.0391 43.5597 23.9558 43.5097 23.8847C43.4597 23.8137 43.3913 23.7576 43.3118 23.7225C30.9445 17.1804 1.29592 0.242598 0.997193 0.0633623C0.840135 -0.0101371 0.660747 -0.0200899 0.49652 0.03558C0.332294 0.0912499 0.195945 0.20823 0.115956 0.362084C0.0175917 0.504906 -0.0203422 0.680811 0.0104335 0.851476C0.0412091 1.02214 0.138201 1.17373 0.280256 1.2732C0.578983 1.4375 29.3463 17.8675 42.102 24.6187C40.2499 27.4566 32.8713 39.1517 29.5704 51.2352C29.5082 51.3648 29.4936 51.5121 29.5291 51.6513C29.5646 51.7906 29.6479 51.913 29.7645 51.997Z" fill="white"/>
</svg>
