<svg width="22" height="12" viewBox="0 0 22 12" fill="none" xmlns="http://www.w3.org/2000/svg">
<path d="M21.7613 9.7476H21.6565C21.4878 9.79203 21.3087 9.77222 21.1538 9.692C20.9989 9.61178 20.8793 9.47689 20.8182 9.31348L17.4949 1.60396C14.5009 3.34047 2.22557 10.8254 1.02798 11.6937C0.880197 11.7773 0.70582 11.8007 0.541253 11.7588C0.376685 11.717 0.234648 11.6132 0.144757 11.4691C0.0371322 11.3327 -0.0136033 11.16 0.00313459 10.987C0.0198725 10.8141 0.102785 10.6543 0.234572 10.541C1.6118 9.55299 16.7015 0.43631 17.3003 0.0620624C17.3816 0.0212434 17.4713 0 17.5623 0C17.6532 0 17.7429 0.0212434 17.8242 0.0620624C18.007 0.143476 18.1554 0.286547 18.2434 0.466256L21.9409 8.9991C22.0009 9.12564 22.0157 9.26886 21.9831 9.40501C21.9504 9.54115 21.8721 9.66203 21.7613 9.7476Z" fill="white"/>
</svg>
