<svg width="179" height="393" viewBox="0 0 179 393" fill="none" xmlns="http://www.w3.org/2000/svg">
<path d="M147.832 178.908C147.832 178.908 117.325 164.782 76.335 170.412C76.335 170.412 84.3986 88.044 87.1163 77.0088C89.8341 65.9737 148.34 79.6519 148.34 79.6519C148.34 79.6519 144.144 112.503 144.502 132.752C144.86 153.001 150.475 175.489 147.832 178.908Z" fill="#263238"/>
<path opacity="0.4" d="M147.832 178.908C147.832 178.908 117.325 164.782 76.335 170.412C76.335 170.412 84.3986 88.044 87.1163 77.0088C89.8341 65.9737 148.34 79.6519 148.34 79.6519C148.34 79.6519 144.144 112.503 144.502 132.752C144.86 153.001 150.475 175.489 147.832 178.908Z" fill="white"/>
<path d="M60.3274 381.976L70.9295 384.978L73.4531 368.477L74.8269 359.652L64.2099 356.651L62.418 368.477L60.3274 381.976Z" fill="#FBC6BF"/>
<path d="M121.297 382.843L132.228 384.291L132.333 368.477L132.407 358.652L121.447 357.218L121.387 368.477L121.297 382.843Z" fill="#FBC6BF"/>
<path opacity="0.2" d="M121.446 357.218L121.386 368.477H132.332L132.407 358.652L121.446 357.218Z" fill="black"/>
<path opacity="0.2" d="M62.4183 368.477H73.4534L74.8272 359.652L64.2102 356.651L62.4183 368.477Z" fill="black"/>
<path d="M19.9352 70.155L10.8562 63.9878L9.03439 76.0234C9.03439 76.0234 17.4564 81.0408 19.8605 76.5759L19.9352 70.155Z" fill="#FBC6BF"/>
<path d="M0 63.4504L1.94121 74.3213L9.03417 76.0236L10.8559 63.988L0 63.4504Z" fill="#FBC6BF"/>
<path d="M32.8367 77.5018L17.5607 68.5571L13.4991 76.0682L27.2818 84.5051L32.8367 77.5018Z" fill="#FBC6BF"/>
<path d="M88.983 58.2239C84.5032 59.538 59.8794 89.9705 58.2219 89.6719C56.0268 89.2836 24.1309 70.7225 24.1309 70.7225L18.576 83.9228C18.576 83.9228 49.9344 108.248 58.6251 107.576C66.5095 106.964 92.7609 82.9821 92.7609 82.9821L88.983 58.2239Z" fill="#263238"/>
<path opacity="0.7" d="M18.5613 83.9229C18.5613 83.9229 49.9197 108.248 58.6254 107.576C61.9852 107.322 68.7049 102.798 75.2901 97.6907C84.1302 90.8516 92.7761 82.9672 92.7761 82.9672L90.7154 69.5279L88.9832 58.1941C84.5035 59.5082 59.8797 89.9407 58.2222 89.6421C56.0271 89.2538 24.1312 70.6777 24.1312 70.6777L18.5613 83.9229Z" fill="white"/>
<path opacity="0.1" d="M75.2897 97.6905C84.1298 90.8514 92.7757 82.967 92.7757 82.967L90.715 69.5277C90.1783 69.8227 89.6773 70.1784 89.2218 70.5879C82.7709 76.0234 77.1264 86.4463 75.2897 97.6905Z" fill="black"/>
<path d="M60.4619 380.319L72.5125 379.99C72.7315 379.984 72.946 380.054 73.12 380.187C73.294 380.32 73.4169 380.509 73.4682 380.722L76.0067 390.413C76.0673 390.645 76.075 390.888 76.0291 391.123C75.9831 391.359 75.8848 391.581 75.7414 391.773C75.5979 391.965 75.4131 392.123 75.2005 392.234C74.9879 392.345 74.7531 392.406 74.5134 392.414C70.1681 392.414 63.8815 392.414 58.4311 392.519C52.04 392.683 47.9783 392.369 40.512 392.519C36.0323 392.638 34.539 388.114 36.4504 387.651C45.0067 385.545 50.5915 385.963 57.8786 381.185C58.6447 380.666 59.538 380.367 60.4619 380.319Z" fill="#263238"/>
<path d="M59.4316 381.857C57.6695 382.26 54.5188 382.783 53.2794 381.738C53.0987 381.588 52.9558 381.397 52.8624 381.182C52.769 380.967 52.7277 380.732 52.7418 380.498C52.743 380.354 52.7806 380.213 52.8511 380.088C52.9216 379.962 53.0227 379.857 53.145 379.781C54.4591 378.99 58.9687 381.125 59.4764 381.364C59.5258 381.388 59.5666 381.427 59.5933 381.475C59.62 381.523 59.6313 381.578 59.6257 381.633C59.6262 381.688 59.6068 381.74 59.571 381.782C59.5353 381.823 59.4857 381.85 59.4316 381.857ZM53.4586 380.199H53.3541C53.306 380.229 53.2667 380.271 53.2404 380.321C53.2141 380.371 53.2018 380.427 53.2047 380.483C53.1911 380.64 53.2152 380.798 53.2749 380.943C53.3347 381.088 53.4283 381.218 53.5482 381.319C54.25 381.902 56.0718 381.947 58.4909 381.484C56.7438 380.737 54.2948 379.901 53.4885 380.229L53.4586 380.199Z" fill="#80BCFF"/>
<path d="M59.4316 381.857C59.4014 381.871 59.3682 381.879 59.3346 381.879C59.301 381.879 59.2678 381.871 59.2376 381.857C57.8936 381.304 55.1609 379.005 55.3252 377.75C55.3252 377.467 55.5641 377.093 56.2659 377.004C56.5292 376.96 56.7987 376.974 57.0563 377.043C57.3139 377.113 57.5536 377.237 57.7592 377.407C59.2525 378.512 59.6108 381.469 59.6258 381.588C59.6305 381.632 59.6249 381.677 59.6094 381.718C59.5938 381.76 59.5687 381.797 59.5362 381.827L59.4316 381.857ZM56.0718 377.571C55.8628 377.661 55.8478 377.78 55.8478 377.825C55.7433 378.572 57.6099 380.379 58.9986 381.155C58.824 379.905 58.2717 378.738 57.4158 377.81C57.1095 377.575 56.7241 377.468 56.3406 377.512L56.0718 377.571Z" fill="#80BCFF"/>
<path d="M121.73 380.319L133.766 379.99C133.986 379.986 134.201 380.056 134.377 380.189C134.553 380.321 134.68 380.509 134.736 380.722L137.26 390.413C137.323 390.645 137.333 390.889 137.289 391.126C137.244 391.362 137.146 391.585 137.002 391.778C136.858 391.971 136.672 392.129 136.458 392.239C136.244 392.349 136.007 392.409 135.767 392.414C131.421 392.414 125.135 392.414 119.669 392.519C113.293 392.683 109.217 392.369 101.75 392.519C97.2705 392.638 95.7772 388.114 97.6736 387.651C106.23 385.545 111.83 385.963 119.117 381.185C119.891 380.661 120.796 380.361 121.73 380.319Z" fill="#263238"/>
<path d="M120.7 381.857C118.938 382.26 115.802 382.783 114.548 381.738C114.367 381.588 114.224 381.397 114.131 381.182C114.037 380.967 113.996 380.732 114.01 380.498C114.014 380.353 114.055 380.212 114.128 380.086C114.201 379.961 114.304 379.856 114.428 379.781C115.742 378.99 120.252 381.125 120.76 381.364C120.809 381.388 120.85 381.427 120.876 381.475C120.903 381.523 120.914 381.578 120.909 381.633C120.906 381.689 120.883 381.742 120.845 381.783C120.807 381.824 120.755 381.85 120.7 381.857ZM114.727 380.199H114.637C114.589 380.23 114.549 380.272 114.521 380.321C114.492 380.371 114.476 380.426 114.473 380.483C114.462 380.641 114.489 380.799 114.552 380.944C114.614 381.09 114.71 381.218 114.831 381.319C115.518 381.902 117.34 381.947 119.759 381.484C117.967 380.737 115.563 379.901 114.742 380.229L114.727 380.199Z" fill="#80BCFF"/>
<path d="M120.7 381.857C120.67 381.871 120.637 381.879 120.603 381.879C120.57 381.879 120.536 381.871 120.506 381.857C119.147 381.304 116.429 379.005 116.594 377.75C116.594 377.467 116.818 377.093 117.534 377.004C117.798 376.96 118.067 376.974 118.325 377.043C118.582 377.113 118.822 377.237 119.028 377.407C120.521 378.512 120.879 381.469 120.894 381.588C120.9 381.634 120.893 381.68 120.875 381.722C120.857 381.764 120.827 381.8 120.79 381.827L120.7 381.857ZM117.34 377.571C117.281 377.588 117.228 377.621 117.186 377.666C117.144 377.71 117.115 377.765 117.101 377.825C117.012 378.572 118.863 380.379 120.252 381.155C120.105 379.915 119.584 378.748 118.759 377.81C118.453 377.575 118.067 377.468 117.684 377.512L117.34 377.571Z" fill="#80BCFF"/>
<path d="M143.845 142.503C149.624 167.62 139.694 365.103 139.694 365.103H120.49L112.278 200.516L82.0242 365.103L61.5069 363.609C74.9462 236.115 86.7877 160.004 86.7877 160.004V150.387L143.845 142.503Z" fill="#263238"/>
<path opacity="0.5" d="M61.5069 363.609L82.0391 365.103L105.842 235.548L112.278 200.531L120.49 365.103H139.694C139.694 365.103 149.639 167.62 143.845 142.518L86.7578 150.388V160.004C86.7578 160.004 74.9312 236.115 61.5069 363.609Z" fill="white"/>
<path d="M144.487 119.507C144.487 121.135 144.487 122.718 144.487 124.256C144.487 125.077 144.487 125.883 144.487 126.675C144.487 128.377 144.487 130.035 144.487 131.617C144.487 132.424 144.487 133.215 144.487 133.992C144.681 143.295 145.025 150.104 144.816 153.046L87.2357 150.91C86.0809 144.141 85.2049 137.735 84.6076 131.692C84.5329 130.96 84.4582 130.199 84.3985 129.512C84.2492 128.019 84.1298 126.525 84.0103 125.032C84.0103 124.271 83.9057 123.539 83.846 122.777C83.7564 121.284 83.6668 119.791 83.5922 118.417C83.5922 117.626 83.5175 116.924 83.5026 116.088C82.0093 77.8453 90.4163 57.9701 90.4163 57.9701C94.9231 56.9809 99.486 56.2678 104.08 55.8347C105.05 55.7302 106.036 55.6704 107.066 55.6107C115.235 55.4449 123.407 55.7491 131.541 56.5216C133.034 56.656 134.647 56.8352 136.17 57.0293C143.92 58.0298 150.759 59.6873 150.759 59.6873C148.09 71.4029 146.308 83.303 145.428 95.2865C144.816 102.947 144.532 110.219 144.442 117.028C144.442 117.641 144.442 118.253 144.442 118.85L144.487 119.507Z" fill="#263238"/>
<g opacity="0.3">
<path d="M144.517 117.028C144.517 117.64 144.517 118.253 144.517 118.85V119.507L138.634 127.063L127.345 111.279L117.146 124.718L107.096 111.279L98.2413 123.225L89.2818 111.204L83.6223 118.417C83.6223 117.625 83.5477 116.924 83.5327 116.087L89.1325 108.785L98.092 120.731L106.947 108.785L117.011 122.225L127.255 108.785L138.559 124.584L144.517 117.028Z" fill="white"/>
<path d="M144.472 126.675L138.395 134.499L127.106 118.731L116.892 132.17L106.857 118.731L97.9871 130.677L89.0276 118.641L84.1595 124.972C84.1595 124.211 84.055 123.479 83.9953 122.718L89.0276 116.177L97.9871 128.123L106.857 116.177L116.922 129.616L127.15 116.177L138.454 131.976L144.427 124.226C144.457 125.077 144.457 125.883 144.472 126.675Z" fill="white"/>
<path d="M144.577 133.992L138.395 141.951L127.106 126.167L116.892 139.532L106.857 126.092L97.9873 138.113L89.0278 126.077L84.7571 131.632C84.6824 130.901 84.6078 130.139 84.548 129.452L89.0278 123.613L97.9873 135.559L106.857 123.613L116.922 137.053L127.151 123.613L138.455 139.397L144.547 131.572C144.557 132.409 144.567 133.215 144.577 133.992Z" fill="white"/>
</g>
<path d="M128.062 28.2991C126.389 36.3179 124.582 50.9368 129.824 55.8944C129.824 55.8944 114.891 63.8236 111.188 63.077C108.605 62.5544 106.006 57.3578 106.006 57.3578C114.607 54.7148 114.518 48.1743 113.174 42.0968L128.062 28.2991Z" fill="#FBC6BF"/>
<path opacity="0.2" d="M121.999 33.9284L113.174 42.0965C113.511 43.5189 113.726 44.9677 113.816 46.427C117.086 45.7401 121.655 41.753 122.073 38.1991C122.295 36.7819 122.27 35.3369 121.999 33.9284Z" fill="black"/>
<path d="M111.113 63.0917C111.113 63.0917 113.756 66.4963 116.862 69.9009C121.685 67.7805 133.019 62.0315 132.81 56.1481C132.243 54.401 127.837 53.072 127.837 53.072C127.837 53.072 122.626 59.1794 111.113 63.0917Z" fill="#80BCFF"/>
<path d="M111.113 63.092C108.699 64.8197 106.546 66.8868 104.722 69.2292C101.377 66.7952 103.722 55.9841 105.065 54.8492C106.922 53.9452 108.976 53.524 111.038 53.6247C110.276 55.0886 109.884 56.7171 109.897 58.3677C109.91 60.0182 110.328 61.6403 111.113 63.092Z" fill="#80BCFF"/>
<g opacity="0.5">
<path d="M111.113 63.0919C111.113 63.0919 113.757 66.4966 116.862 69.9012C121.686 67.7808 133.019 62.0317 132.81 56.1483C132.243 54.4012 127.838 53.0722 127.838 53.0722C127.838 53.0722 122.626 59.1796 111.113 63.0919Z" fill="white"/>
<path d="M111.114 63.092C108.699 64.8197 106.547 66.8868 104.723 69.2292C101.378 66.7952 103.722 55.9841 105.066 54.8492C106.922 53.9452 108.977 53.524 111.039 53.6247C110.276 55.0886 109.885 56.7171 109.898 58.3677C109.911 60.0182 110.328 61.6403 111.114 63.092Z" fill="white"/>
</g>
<path d="M132.81 56.1929C130.962 70.2835 130.352 84.5089 130.988 98.7059C131.869 117.969 135.468 139.994 145.727 156.151C145.727 156.151 149.251 170.77 145.219 182.328C145.219 182.328 149.37 181.417 150.535 179.342C151.7 177.266 145.189 148.342 146.055 127.406C146.921 106.471 153.521 59.7618 153.521 59.7618C148.993 58.286 144.324 57.2852 139.589 56.7753C137.588 56.5364 135.289 56.2975 132.81 56.1929Z" fill="#263238"/>
<path opacity="0.7" d="M132.81 56.1929C130.962 70.2835 130.352 84.5089 130.988 98.7059C131.869 117.969 135.468 139.994 145.727 156.151C145.727 156.151 149.251 170.77 145.219 182.328C145.219 182.328 149.37 181.417 150.535 179.342C151.7 177.266 145.189 148.342 146.055 127.406C146.384 119.597 147.548 108.188 148.818 96.9439C149.295 92.8225 149.788 88.716 150.311 84.8186C152.058 70.9612 153.626 59.7767 153.626 59.7767C149.098 58.301 144.429 57.3001 139.694 56.7902C137.588 56.5364 135.289 56.2975 132.81 56.1929Z" fill="white"/>
<path opacity="0.2" d="M132.81 56.1929C130.962 70.2835 130.352 84.5089 130.988 98.7059L143.621 70.3341L135.886 68.2435L144.562 65.0181L139.634 56.7902C137.588 56.5364 135.289 56.2975 132.81 56.1929Z" fill="black"/>
<path d="M75.4841 173.219L77.2312 175.026C79.5797 150.547 83.2686 126.215 88.2813 102.14C88.6845 100.139 89.1026 98.2281 89.4908 96.4063C97.1661 61.5836 103.736 56.0884 104.155 55.8346L98.764 56.6708L88.9831 58.1641C80.9942 87.6857 75.4841 173.219 75.4841 173.219Z" fill="#263238"/>
<path opacity="0.7" d="M75.4841 173.219L77.2312 175.026C79.5797 150.547 83.2686 126.215 88.2813 102.14C88.6845 100.139 89.1026 98.2281 89.4908 96.4063C97.1661 61.5836 103.736 56.0884 104.155 55.8346L98.764 56.6708L88.9831 58.1641C80.9942 87.6857 75.4841 173.219 75.4841 173.219Z" fill="white"/>
<path opacity="0.2" d="M96.5237 67.1684L90.0578 69.7816C90.0578 69.7816 88.5646 87.2228 89.4904 96.4063C97.1657 61.5836 103.736 56.0884 104.154 55.8346L98.7635 56.6708C95.5144 58.7739 92.6379 61.4031 90.252 64.4507L96.5237 67.1684Z" fill="black"/>
<path d="M139.365 151.164L132.212 159.422L145.502 163.185C145.502 163.185 149.982 154.823 145.801 151.955L139.365 151.164Z" fill="#FBC6BF"/>
<path d="M131.765 168.351L142.889 170.95L145.502 163.185L132.227 159.422L131.765 168.351Z" fill="#FBC6BF"/>
<path opacity="0.1" d="M147.489 84.8636C147.125 88.9495 147.582 93.0669 148.833 96.9738C149.31 92.8525 149.803 88.746 150.326 84.8486C149.39 84.6455 148.422 84.6506 147.489 84.8636Z" fill="black"/>
<path d="M147.16 140.278L136.722 154.584L143.8 159.377L153.551 146.505L147.16 140.278Z" fill="#FBC6BF"/>
<path d="M153.596 59.8066C159.688 61.5836 179.698 102.424 178.981 113.564C178.264 124.703 152.67 154.748 152.67 154.748L142.695 146.251C142.695 146.251 162.585 116.67 163.989 112.13C165.393 107.591 147.488 84.8635 147.488 84.8635C146.649 80.213 146.574 75.4569 147.265 70.7821C148.384 62.7036 153.596 59.8066 153.596 59.8066Z" fill="#263238"/>
<path opacity="0.7" d="M153.596 59.8066C159.688 61.5836 179.698 102.424 178.981 113.564C178.264 124.703 152.67 154.748 152.67 154.748L142.695 146.251C142.695 146.251 162.585 116.67 163.989 112.13C165.393 107.591 147.488 84.8635 147.488 84.8635C146.649 80.213 146.574 75.4569 147.265 70.7821C148.384 62.7036 153.596 59.8066 153.596 59.8066Z" fill="white"/>
<path opacity="0.2" d="M105.842 235.548L112.278 200.531L111.038 182C111.038 182 102.213 214.134 105.842 235.548Z" fill="black"/>
<path d="M104.856 7.93098C102.198 11.0668 102.392 15.8901 102.273 18.9662C102.153 22.0423 101.616 26.0591 105.558 21.8183C109.5 17.5774 113.577 0.151125 104.856 7.93098Z" fill="#80BCFF"/>
<path d="M129.525 22.1765C128.196 32.4501 129.525 34.1972 123.985 39.0951C115.593 46.4718 102.661 47.1736 101.497 36.5864C100.451 27.0744 100.616 9.94678 111.009 6.61682C113.309 5.87557 115.761 5.73067 118.133 6.19568C120.505 6.66069 122.72 7.72037 124.57 9.27543C126.421 10.8305 127.846 12.83 128.713 15.0865C129.58 17.3429 129.859 19.7825 129.525 22.1765Z" fill="#FBC6BF"/>
<path d="M128.002 29.0905C122.581 28.9113 123.343 26.7461 123.656 26.2384C125.06 24.0283 123.507 20.7581 121.834 16.5322C120.162 12.3063 128.629 7.43829 134.781 9.26007C140.455 10.9325 137.051 29.3891 128.002 29.0905Z" fill="#80BCFF"/>
<path d="M105.11 32.1667C105.11 32.1667 108.843 33.2269 116.265 30.9721C115.369 33.2866 113.607 35.2428 109.396 35.4518C105.185 35.6609 105.11 32.1667 105.11 32.1667Z" fill="white"/>
<path d="M133.781 29.3145C132.747 31.482 130.926 33.1744 128.689 34.0481C125.852 35.0635 124.508 32.2562 125.344 29.195C126.106 26.4474 128.51 22.6098 131.317 22.9234C134.124 23.237 135.125 26.6266 133.781 29.3145Z" fill="#FBC6BF"/>
<path d="M107.843 22.0572C106.95 24.0894 105.773 25.9847 104.348 27.6867C104.798 28.0419 105.319 28.2952 105.876 28.4293C106.433 28.5634 107.012 28.5749 107.574 28.4632L107.843 22.0572Z" fill="#E39489"/>
<path d="M134.946 4.81025C132.795 1.34589 114.563 -1.55101 107.32 0.927797C106.642 1.08259 106.007 1.3863 105.461 1.81692C104.915 2.24755 104.471 2.7943 104.163 3.41754C103.854 4.04079 103.687 4.72493 103.676 5.42037C103.664 6.11581 103.807 6.80514 104.095 7.43839C107.544 14.2327 113.279 10.5145 113.279 10.5145C114.197 9.91892 115.224 9.51018 116.301 9.31168C117.377 9.11317 118.483 9.1288 119.553 9.35761C120.624 9.58643 121.639 10.024 122.54 10.6452C123.441 11.2665 124.212 12.0593 124.806 12.9784L135.438 10.4249C135.834 9.52287 135.996 8.53576 135.91 7.55455C135.824 6.57333 135.492 5.62957 134.946 4.81025Z" fill="#80BCFF"/>
<path d="M116.728 21.6538C116.728 22.5199 116.175 23.1471 115.608 23.1471C115.041 23.1471 114.622 22.3855 114.667 21.5194C114.712 20.6533 115.205 20.0262 115.772 20.0262C116.34 20.0262 116.773 20.7877 116.728 21.6538Z" fill="#263238"/>
<path d="M106.917 21.027C106.917 21.8931 106.379 22.5202 105.812 22.5202C105.244 22.5202 104.826 21.7587 104.871 20.8926C104.916 20.0265 105.408 19.3993 105.976 19.3993C106.543 19.3993 106.961 20.1609 106.917 21.027Z" fill="#263238"/>
<path d="M119.908 18.6826C119.817 18.6853 119.727 18.6647 119.646 18.623C119.565 18.5812 119.496 18.5195 119.445 18.4437C119.104 17.9009 118.639 17.4462 118.089 17.1167C117.539 16.7872 116.919 16.5921 116.279 16.5472C116.143 16.5473 116.013 16.4943 115.915 16.3995C115.817 16.3047 115.761 16.1755 115.757 16.0395C115.757 15.9049 115.81 15.7757 115.905 15.6805C116.001 15.5853 116.13 15.5318 116.264 15.5318C117.077 15.5711 117.868 15.8062 118.57 16.217C119.272 16.6278 119.864 17.2022 120.296 17.8912C120.367 18.0034 120.393 18.1383 120.368 18.2686C120.343 18.399 120.269 18.515 120.162 18.593C120.083 18.6383 119.997 18.6687 119.908 18.6826Z" fill="#263238"/>
<path d="M102.87 17.3685C102.77 17.3721 102.672 17.3461 102.586 17.2939C102.527 17.2627 102.475 17.2199 102.433 17.168C102.391 17.1161 102.36 17.0563 102.342 16.992C102.324 16.9278 102.319 16.8605 102.328 16.7943C102.336 16.7281 102.358 16.6644 102.392 16.607C102.766 15.8923 103.307 15.2794 103.971 14.8214C104.634 14.3635 105.4 14.0743 106.2 13.9788C106.335 13.9689 106.468 14.0129 106.57 14.1011C106.672 14.1894 106.735 14.3146 106.745 14.4492C106.755 14.5839 106.711 14.7169 106.623 14.8191C106.535 14.9214 106.409 14.9844 106.275 14.9943C105.641 15.0759 105.038 15.312 104.517 15.6818C103.996 16.0515 103.574 16.5436 103.288 17.1147C103.247 17.1897 103.186 17.2526 103.113 17.2971C103.04 17.3417 102.956 17.3663 102.87 17.3685Z" fill="#263238"/>
</svg>
