<svg width="45" height="51" viewBox="0 0 45 51" fill="none" xmlns="http://www.w3.org/2000/svg">
<path d="M44.6005 29.4161H44.4943C33.4594 33.2563 1.31099 50.7724 0.992234 50.9394C0.833003 51.0123 0.651484 51.0197 0.486818 50.9601C0.322153 50.9005 0.187493 50.7786 0.111845 50.6206C0.0634757 50.549 0.0298391 50.4686 0.0128095 50.3839C-0.00422015 50.2992 -0.0042729 50.2119 0.0126705 50.1272C0.0296139 50.0425 0.063178 49.962 0.111474 49.8904C0.159771 49.8187 0.221847 49.7574 0.294028 49.7099C0.61278 49.543 31.7746 32.5732 43.3862 28.3232C41.8684 24.6044 34.0817 5.7525 29.7254 1.15336C29.6038 1.02389 29.536 0.852898 29.536 0.67523C29.536 0.497562 29.6038 0.326596 29.7254 0.197122C29.7823 0.135005 29.8515 0.0853977 29.9286 0.0514633C30.0057 0.0175289 30.089 0 30.1732 0C30.2575 0 30.3407 0.0175289 30.4178 0.0514633C30.4949 0.0853977 30.5641 0.135005 30.621 0.197122C35.5996 5.4793 44.4336 27.5187 44.813 28.4902C44.8648 28.5634 44.9005 28.6467 44.9178 28.7346C44.9352 28.8226 44.9337 28.9132 44.9137 29.0006C44.8936 29.0879 44.8554 29.1701 44.8014 29.2417C44.7474 29.3133 44.679 29.3727 44.6005 29.4161Z" fill="white"/>
</svg>
