<svg width="38" height="27" viewBox="0 0 38 27" fill="none" xmlns="http://www.w3.org/2000/svg">
<path d="M23.4849 26.1388C23.4233 26.1383 23.3627 26.1231 23.3082 26.0945C23.2536 26.0659 23.2066 26.0248 23.1711 25.9745L18.6893 19.3116C18.6614 19.2706 18.6419 19.2244 18.6321 19.1757C18.6222 19.127 18.6221 19.0769 18.6319 19.0282C18.6416 18.9795 18.661 18.9332 18.6888 18.8921C18.7166 18.851 18.7523 18.8159 18.7939 18.7887C18.8338 18.7611 18.8788 18.7419 18.9263 18.7322C18.9738 18.7225 19.0228 18.7226 19.0703 18.7324C19.1177 18.7421 19.1627 18.7614 19.2025 18.7891C19.2424 18.8167 19.2761 18.8522 19.3019 18.8933L23.2309 24.7346L23.9928 19.0427C24.0058 18.9666 24.0412 18.8962 24.0944 18.8403C24.1476 18.7844 24.2162 18.7456 24.2916 18.7289C24.3812 18.7289 33.8079 16.5926 36.5269 11.4685C36.9747 10.6074 37.2221 9.65627 37.2506 8.68615C37.279 7.71603 37.0878 6.75201 36.6912 5.8662C34.525 0.443233 21.7519 -0.453125 11.6081 2.13138C4.54182 3.92409 0.388699 7.0016 0.762182 10.1687C1.83781 19.207 7.85835 18.7439 8.11232 18.7289C8.1606 18.7227 8.20964 18.7264 8.25646 18.7398C8.30327 18.7531 8.34689 18.7758 8.38463 18.8066C8.42238 18.8373 8.45345 18.8754 8.47598 18.9186C8.49851 18.9618 8.51203 19.0091 8.51569 19.0576C8.52441 19.1561 8.49526 19.2541 8.43419 19.3318C8.37313 19.4096 8.28474 19.4611 8.18702 19.4759C8.11232 19.4759 1.19541 20.0436 0.0301477 10.2584C-0.403092 6.64305 3.8546 3.32653 11.4139 1.39936C20.6613 -0.961047 34.8238 -0.811657 37.3784 5.59731C37.8188 6.58027 38.0302 7.65043 37.9965 8.72702C37.9629 9.80362 37.6851 10.8585 37.1842 11.812C34.5399 16.8167 26.2934 19.0128 24.7099 19.4012L23.8434 25.8102C23.8315 25.8843 23.7983 25.9534 23.7479 26.0091C23.6976 26.0648 23.6321 26.1047 23.5596 26.1239L23.4849 26.1388Z" fill="white"/>
</svg>
