<svg width="62" height="55" viewBox="0 0 62 55" fill="none" xmlns="http://www.w3.org/2000/svg">
<path d="M56.1875 0C59.3359 0 62 2.66406 62 5.8125V34.875C62 45.6523 53.2812 54.25 42.625 54.25H41.6562C39.9609 54.25 38.75 53.0391 38.75 51.3438V45.5312C38.75 43.957 39.9609 42.625 41.6562 42.625H42.625C46.8633 42.625 50.375 39.2344 50.375 34.875V27.125H40.6875C37.418 27.125 34.875 24.582 34.875 21.3125V5.8125C34.875 2.66406 37.418 0 40.6875 0H56.1875ZM21.3125 0C24.4609 0 27.125 2.66406 27.125 5.8125V34.875C27.125 45.6523 18.4062 54.25 7.75 54.25H6.78125C5.08594 54.25 3.875 53.0391 3.875 51.3438V45.5312C3.875 43.957 5.08594 42.625 6.78125 42.625H7.75C11.9883 42.625 15.5 39.2344 15.5 34.875V27.125H5.8125C2.54297 27.125 0 24.582 0 21.3125V5.8125C0 2.66406 2.54297 0 5.8125 0H21.3125Z" fill="#0078FF"/>
</svg>
