<svg width="19" height="21" viewBox="0 0 19 21" fill="none" xmlns="http://www.w3.org/2000/svg">
<path d="M18.3366 11.3601L0.984637 20.9398C0.826626 21.0122 0.646542 21.0196 0.483137 20.9604C0.319733 20.9012 0.186103 20.7803 0.111035 20.6235C0.0630357 20.5525 0.0296106 20.4726 0.0127114 20.3886C-0.00418784 20.3045 -0.00424019 20.218 0.0125735 20.1339C0.0293872 20.0498 0.0627403 19.9699 0.110667 19.8989C0.158594 19.8278 0.220148 19.7669 0.291777 19.7198L17.1467 10.4263L12.3719 0.921843C12.3293 0.848935 12.3016 0.768222 12.2907 0.68447C12.2797 0.600717 12.2856 0.515627 12.3081 0.434203C12.3306 0.352778 12.3691 0.27668 12.4215 0.210389C12.4738 0.144099 12.5389 0.0889493 12.6129 0.048218C12.7769 -0.0171927 12.96 -0.0160106 13.1231 0.0515046C13.2863 0.11902 13.4167 0.247546 13.4865 0.409725L18.5475 10.5016C18.6241 10.6455 18.645 10.8127 18.6061 10.9711C18.5672 11.1296 18.4713 11.2681 18.3366 11.3601Z" fill="white"/>
</svg>
