<svg width="747" height="518" viewBox="0 0 747 518" fill="none" xmlns="http://www.w3.org/2000/svg">
<path d="M747 489.136H0V489.509H747V489.136Z" fill="#EBEBEB"/>
<path d="M672.151 513.174H622.67V513.547H672.151V513.174Z" fill="#EBEBEB"/>
<path d="M494.843 517.238H481.86V517.611H494.843V517.238Z" fill="#EBEBEB"/>
<path d="M621.175 499.31H592.505V499.683H621.175V499.31Z" fill="#EBEBEB"/>
<path d="M142.901 501.82H78.3754V502.193H142.901V501.82Z" fill="#EBEBEB"/>
<path d="M165.67 501.82H156.213V502.193H165.67V501.82Z" fill="#EBEBEB"/>
<path d="M336.374 508.124H196.416V508.498H336.374V508.124Z" fill="#EBEBEB"/>
<path d="M354.078 422.503H65.6012C63.3413 422.499 61.1753 421.599 59.5787 419.999C57.9821 418.4 57.0854 416.232 57.0854 413.972V8.45604C57.105 6.2091 58.0104 4.06066 59.6049 2.47738C61.1994 0.894096 63.3541 0.00384912 65.6012 0H354.078C356.34 0 358.51 0.898772 360.11 2.4986C361.71 4.09842 362.608 6.26825 362.608 8.53074V413.972C362.608 416.235 361.71 418.405 360.11 420.005C358.51 421.604 356.34 422.503 354.078 422.503ZM65.6012 0.298801C63.4403 0.302759 61.3693 1.16392 59.8428 2.69327C58.3162 4.22262 57.4589 6.29519 57.4589 8.45604V413.972C57.4589 416.133 58.3162 418.206 59.8428 419.735C61.3693 421.265 63.4403 422.126 65.6012 422.13H354.078C356.24 422.126 358.312 421.265 359.841 419.736C361.37 418.207 362.231 416.135 362.235 413.972V8.45604C362.231 6.29382 361.37 4.22129 359.841 2.69236C358.312 1.16344 356.24 0.30275 354.078 0.298801H65.6012Z" fill="#EBEBEB"/>
<path d="M677.245 422.503H388.754C386.492 422.499 384.325 421.599 382.726 420C381.127 418.401 380.227 416.234 380.223 413.972V8.45604C380.247 6.20774 381.155 4.05931 382.752 2.47644C384.349 0.893574 386.505 0.00380714 388.754 0H677.245C679.489 0.00777552 681.64 0.89976 683.232 2.48262C684.823 4.06548 685.726 6.21168 685.746 8.45604V413.972C685.746 416.23 684.851 418.395 683.258 419.994C681.665 421.593 679.502 422.495 677.245 422.503ZM388.754 0.298801C386.591 0.30275 384.519 1.16344 382.99 2.69236C381.461 4.22129 380.6 6.29382 380.596 8.45604V413.972C380.6 416.135 381.461 418.207 382.99 419.736C384.519 421.265 386.591 422.126 388.754 422.13H677.245C679.407 422.126 681.48 421.265 683.009 419.736C684.538 418.207 685.398 416.135 685.402 413.972V8.45604C685.398 6.29382 684.538 4.22129 683.009 2.69236C681.48 1.16344 679.407 0.30275 677.245 0.298801H388.754Z" fill="#EBEBEB"/>
<path d="M376.954 95.2755C393.272 91.4241 403.379 75.0736 399.527 58.7557C395.676 42.4377 379.325 32.3316 363.007 36.1829C346.689 40.0343 336.583 56.3848 340.435 72.7028C344.286 89.0207 360.636 99.1269 376.954 95.2755Z" fill="#E0E0E0"/>
<path d="M375.911 90.8551C389.787 87.5799 398.382 73.6756 395.106 59.7989C391.831 45.9222 377.927 37.328 364.05 40.6032C350.173 43.8784 341.579 57.7827 344.854 71.6594C348.13 85.5361 362.034 94.1303 375.911 90.8551Z" fill="#F0F0F0"/>
<path d="M368.779 83.4249V65.3774L356.827 72.1452" fill="#F0F0F0"/>
<path d="M368.779 84.7098C368.438 84.7098 368.111 84.5744 367.87 84.3335C367.629 84.0925 367.494 83.7657 367.494 83.425V67.5886L357.454 73.2658C357.307 73.3492 357.145 73.4027 356.977 73.4235C356.809 73.4442 356.639 73.4316 356.476 73.3866C356.313 73.3415 356.161 73.2647 356.027 73.1607C355.894 73.0566 355.782 72.9274 355.699 72.7802C355.616 72.6331 355.562 72.4709 355.541 72.3031C355.521 72.1352 355.533 71.9649 355.578 71.8019C355.623 71.6389 355.7 71.4864 355.804 71.353C355.908 71.2197 356.037 71.1082 356.184 71.0248L368.136 64.257C368.332 64.1476 368.553 64.0912 368.777 64.0934C369.001 64.0956 369.22 64.1563 369.414 64.2696C369.607 64.3828 369.767 64.5447 369.879 64.739C369.99 64.9333 370.049 65.1534 370.049 65.3775V83.425C370.049 83.7632 369.916 84.0877 369.678 84.3282C369.44 84.5688 369.117 84.7059 368.779 84.7098Z" fill="#E0E0E0"/>
<path d="M660.976 216.929V118.654L534.509 118.654V216.929L660.976 216.929Z" fill="#E0E0E0"/>
<path d="M657.151 122.717H538.348V212.865H657.151V122.717Z" fill="#EBEBEB"/>
<path d="M560.982 132.443H546.654V152.702H560.982V132.443Z" fill="#F5F5F5"/>
<path d="M579.657 138.419H564.567V160.097H579.657V138.419Z" fill="#F5F5F5"/>
<path d="M562.014 183.881L547.076 181.919L544.258 203.38L559.196 205.342L562.014 183.881Z" fill="#F5F5F5"/>
<path d="M599.497 182.552H584.408V204.23H599.497V182.552Z" fill="#F5F5F5"/>
<path d="M581.464 180.266H566.375V201.944H581.464V180.266Z" fill="#F5F5F5"/>
<path d="M625.418 133.907H616.051V143.275H625.418V133.907Z" fill="#F5F5F5"/>
<path d="M639.036 136.742L630.287 133.394L626.939 142.143L635.688 145.491L639.036 136.742Z" fill="#F5F5F5"/>
<path d="M620.742 135.102C620.738 135.246 620.678 135.383 620.575 135.484C620.472 135.584 620.334 135.64 620.19 135.64C620.11 135.653 620.029 135.649 619.952 135.628C619.875 135.606 619.803 135.568 619.742 135.517C619.68 135.465 619.631 135.4 619.597 135.327C619.564 135.254 619.546 135.175 619.546 135.095C619.546 135.015 619.564 134.935 619.597 134.863C619.631 134.79 619.68 134.725 619.742 134.673C619.803 134.621 619.875 134.583 619.952 134.562C620.029 134.541 620.11 134.536 620.19 134.55C620.336 134.55 620.477 134.608 620.58 134.712C620.684 134.815 620.742 134.956 620.742 135.102Z" fill="#E0E0E0"/>
<path d="M631.514 135.102C631.514 135.212 631.481 135.319 631.42 135.41C631.36 135.501 631.273 135.571 631.172 135.613C631.071 135.655 630.96 135.666 630.853 135.645C630.746 135.623 630.647 135.571 630.57 135.493C630.493 135.416 630.44 135.318 630.419 135.21C630.397 135.103 630.408 134.992 630.45 134.891C630.492 134.79 630.563 134.704 630.654 134.643C630.745 134.582 630.851 134.55 630.961 134.55C631.107 134.55 631.248 134.608 631.352 134.712C631.455 134.815 631.514 134.956 631.514 135.102Z" fill="#E0E0E0"/>
<path d="M572.65 140.018C572.629 140.147 572.562 140.264 572.462 140.349C572.363 140.433 572.236 140.48 572.105 140.48C571.974 140.48 571.847 140.433 571.748 140.349C571.648 140.264 571.581 140.147 571.56 140.018C571.547 139.938 571.551 139.857 571.572 139.78C571.593 139.703 571.631 139.631 571.683 139.57C571.735 139.508 571.8 139.459 571.873 139.426C571.945 139.392 572.025 139.374 572.105 139.374C572.185 139.374 572.265 139.392 572.337 139.426C572.41 139.459 572.475 139.508 572.527 139.57C572.579 139.631 572.616 139.703 572.638 139.78C572.659 139.857 572.663 139.938 572.65 140.018Z" fill="#E0E0E0"/>
<path d="M554.364 133.907C554.377 133.986 554.373 134.067 554.352 134.145C554.33 134.222 554.292 134.294 554.24 134.355C554.188 134.416 554.124 134.466 554.051 134.499C553.978 134.533 553.899 134.551 553.819 134.551C553.738 134.551 553.659 134.533 553.586 134.499C553.513 134.466 553.449 134.416 553.397 134.355C553.345 134.294 553.307 134.222 553.286 134.145C553.264 134.067 553.26 133.986 553.273 133.907C553.295 133.778 553.361 133.661 553.461 133.576C553.561 133.491 553.688 133.445 553.819 133.445C553.95 133.445 554.076 133.491 554.176 133.576C554.276 133.661 554.343 133.778 554.364 133.907Z" fill="#E0E0E0"/>
<path d="M549.225 184.106C549.225 184.177 549.21 184.249 549.182 184.315C549.154 184.381 549.113 184.441 549.062 184.491C549.01 184.541 548.949 184.581 548.882 184.607C548.815 184.633 548.744 184.645 548.672 184.643C548.593 184.657 548.512 184.652 548.434 184.631C548.357 184.61 548.285 184.572 548.224 184.52C548.163 184.468 548.114 184.403 548.08 184.33C548.046 184.258 548.029 184.178 548.029 184.098C548.029 184.018 548.046 183.939 548.08 183.866C548.114 183.793 548.163 183.728 548.224 183.676C548.285 183.625 548.357 183.587 548.434 183.565C548.512 183.544 548.593 183.54 548.672 183.553C548.745 183.551 548.818 183.564 548.886 183.591C548.954 183.618 549.016 183.658 549.067 183.71C549.119 183.762 549.16 183.824 549.187 183.892C549.214 183.96 549.227 184.032 549.225 184.106Z" fill="#E0E0E0"/>
<path d="M574.473 181.506C574.473 181.615 574.441 181.722 574.38 181.813C574.319 181.904 574.233 181.975 574.132 182.017C574.031 182.058 573.92 182.069 573.813 182.048C573.705 182.027 573.607 181.974 573.529 181.897C573.452 181.82 573.4 181.721 573.378 181.614C573.357 181.507 573.368 181.395 573.41 181.294C573.452 181.193 573.522 181.107 573.613 181.046C573.704 180.986 573.811 180.953 573.92 180.953C574.067 180.953 574.208 181.011 574.311 181.115C574.415 181.219 574.473 181.359 574.473 181.506Z" fill="#E0E0E0"/>
<path d="M592.49 183.553C592.49 183.662 592.458 183.769 592.397 183.86C592.336 183.951 592.25 184.022 592.149 184.064C592.048 184.105 591.937 184.116 591.83 184.095C591.722 184.074 591.624 184.021 591.547 183.944C591.469 183.866 591.417 183.768 591.395 183.661C591.374 183.553 591.385 183.442 591.427 183.341C591.469 183.24 591.539 183.154 591.63 183.093C591.721 183.032 591.828 183 591.937 183C592.084 183 592.225 183.058 592.328 183.162C592.432 183.266 592.49 183.406 592.49 183.553Z" fill="#E0E0E0"/>
<path d="M649.681 163.205H619.636V182.044H649.681V163.205Z" fill="#E0E0E0"/>
<path d="M639.402 184.643H613.167V205.35H639.402V184.643Z" fill="#E0E0E0"/>
<path d="M109.554 130.098H100.187V139.465H109.554V130.098Z" fill="#F5F5F5"/>
<path d="M104.879 131.278C104.882 131.388 104.852 131.496 104.793 131.589C104.734 131.682 104.649 131.755 104.548 131.799C104.447 131.843 104.336 131.856 104.228 131.837C104.119 131.817 104.02 131.766 103.941 131.689C103.862 131.612 103.808 131.514 103.785 131.406C103.763 131.299 103.773 131.187 103.814 131.085C103.855 130.983 103.926 130.896 104.017 130.834C104.109 130.773 104.216 130.74 104.326 130.74C104.47 130.74 104.609 130.796 104.712 130.897C104.815 130.997 104.875 131.134 104.879 131.278Z" fill="#E0E0E0"/>
</svg>
