<svg width="23" height="12" viewBox="0 0 23 12" fill="none" xmlns="http://www.w3.org/2000/svg">
<path d="M22.7116 1.25225L7.19642 11.1844C7.04428 11.2658 6.86632 11.2847 6.70048 11.2369C6.53464 11.1891 6.39402 11.0785 6.30856 10.9285L0.138585 1.50807C0.0852388 1.44029 0.045986 1.36252 0.0231295 1.27934C0.000273138 1.19617 -0.00572221 1.10925 0.00549437 1.02373C0.0167109 0.938199 0.0449037 0.855779 0.0884348 0.78131C0.131966 0.706842 0.189933 0.641838 0.258954 0.590102C0.410075 0.511062 0.585478 0.49194 0.750075 0.536576C0.914673 0.581213 1.05638 0.686304 1.14687 0.830863L6.94057 9.6795L21.9893 0.0784292C22.1414 -0.00305334 22.3194 -0.0218943 22.4852 0.0258911C22.651 0.0736764 22.7917 0.184331 22.8771 0.334277C22.9282 0.404836 22.9645 0.484973 22.9839 0.569895C23.0032 0.654817 23.0052 0.742759 22.9897 0.828475C22.9743 0.914192 22.9417 0.995917 22.8939 1.06873C22.8461 1.14155 22.7841 1.20397 22.7116 1.25225Z" fill="white"/>
</svg>
