<svg width="243" height="186" viewBox="0 0 243 186" fill="none" xmlns="http://www.w3.org/2000/svg">
<path opacity="0.1" d="M0 92.2915C2.31813 95.1929 4.24743 98.4234 6.81981 101.265C7.30929 101.801 7.67216 102.44 7.88165 103.134C9.92191 103.404 11.9968 103.088 13.8639 102.222C21.1025 98.9767 27.6979 93.488 33.4409 88.074C34.6523 86.9225 35.9086 85.8157 37.1798 84.724C31.5116 91.0353 25.8733 97.3615 20.1453 103.613C19.2996 104.489 18.6367 105.525 18.1951 106.66C17.7535 107.795 17.542 109.006 17.5729 110.223C20.2183 113.234 23.1372 115.993 26.2921 118.464C26.8798 118.865 27.3871 119.372 27.7877 119.96C30.032 119.766 32.108 118.69 33.5606 116.968C45.8093 103.658 57.9383 90.5716 71.4732 78.637C70.3964 80.1326 69.2897 81.6281 68.2428 83.2284C61.1388 93.6974 53.5264 103.897 45.5999 113.828C39.9915 120.827 30.3301 129.426 28.5504 138.699C28.9243 139.148 29.2832 139.611 29.6721 140.06C30.0609 140.509 30.6891 141.212 31.1677 141.765C31.6667 141.86 32.1436 142.048 32.5735 142.318C34.9515 143.814 36.462 147.044 34.5626 149.647C34.1589 150.232 33.6521 150.738 33.067 151.142C30.1806 154.776 27.3689 158.441 24.6619 162.224C24.5217 162.422 24.3919 162.626 24.2731 162.837C26.2173 168.386 30.8087 172.394 35.2954 176.193C36.9257 175.808 38.3981 174.931 39.5129 173.68C44.9269 167.833 51.1036 162.673 56.0988 156.466C61.4679 149.811 65.8948 142.453 70.9797 135.528L71.2489 135.199C77.3957 128.35 83.5724 121.515 89.5546 114.516C94.7742 109.251 100.024 104.047 105.168 98.9319C113.289 90.7062 121.53 82.4806 130.085 74.569C127.961 77.7097 125.837 80.8355 123.654 83.9463C114.022 97.6606 103.329 110.597 93.0244 123.803C87.9394 130.309 83.2882 137.114 78.3678 143.724C74.4793 148.929 68.6616 153.685 65.6106 159.413C64.9803 160.557 64.5742 161.81 64.4141 163.107C64.7648 163.399 65.081 163.73 65.3564 164.094C67.9101 167.12 71.0954 169.55 74.6887 171.213C75.483 171.602 76.1364 172.23 76.5582 173.007C77.9996 172.587 79.3318 171.857 80.4616 170.869C85.2974 166.675 89.863 162.179 94.1311 157.409C92.7315 159.724 91.6167 162.199 90.8109 164.782C88.3881 173.052 97.6158 179.139 104.705 175.46L105.318 175.131C106.145 177.501 107.796 179.495 109.97 180.75C112.144 182.004 114.697 182.436 117.163 181.966C119.9 185.615 124.641 187.529 128.993 184.254C146.73 170.704 163.63 155.704 180.381 140.883L184.867 136.815C181.971 141.372 178.847 145.779 175.505 150.02C171.661 154.896 166.307 159.981 164.273 166.038C164.478 166.173 164.673 166.323 164.857 166.487C169.179 170.482 172.821 175.154 175.64 180.321C175.64 180.321 175.64 180.41 175.64 180.455C183.117 178.78 190.924 173.95 197.251 170.315C205.382 165.483 213.065 159.932 220.208 153.729C220.198 152.948 220.335 152.172 220.611 151.441C220.787 151.021 220.986 150.612 221.21 150.215C221.21 149.781 221.21 149.333 221.21 148.884C220.587 147.67 220.086 146.397 219.714 145.085C218.552 144.541 217.567 143.681 216.872 142.602C216.206 141.396 215.88 140.031 215.93 138.654C215.93 138.28 216.02 137.906 216.08 137.532C215.394 136.98 214.897 136.227 214.659 135.379C212.937 135.697 211.334 136.478 210.023 137.637C208.049 139.357 206.044 141.017 204.04 142.647C206.613 138.325 209.095 133.928 211.593 129.726C215.99 122.248 220.566 115.144 225.651 108.145C229.48 102.82 234.625 98.1841 235.253 92.2915C231.679 89.3004 229.196 85.4568 226.1 81.9422C225.942 81.7527 225.797 81.5529 225.666 81.344C222.431 81.6139 219.33 82.7562 216.693 84.6492C217.516 83.6771 218.323 82.69 219.071 81.658C225.846 72.3855 235.417 64.8927 241.504 55.2313C242.234 54.1395 242.742 52.9149 243 51.627L240.876 48.935C240.277 48.2563 239.866 47.4323 239.685 46.5453C239.504 45.6582 239.559 44.7392 239.844 43.88L239.695 43.7454C239.949 43.4463 240.203 43.1621 240.443 42.848C241.46 41.5568 242.189 40.0626 242.581 38.466C239.744 34.0253 236.209 30.0711 232.112 26.7557C226.549 27.1595 221.643 30.7788 216.723 33.6054C213.373 35.5397 210.043 37.5338 206.732 39.5877C208.415 37.4871 209.822 35.1802 210.92 32.723C211.325 31.7686 211.591 30.7615 211.713 29.7319C211.439 29.5801 211.179 29.405 210.935 29.2085C206.808 26.2162 202.981 22.8303 199.509 19.0984C198.996 19.2894 198.496 19.5142 198.013 19.7714C194.769 21.5406 191.637 23.5086 188.636 25.664C189.124 24.2806 189.372 22.8238 189.369 21.3567C188.624 21.4603 187.865 21.4017 187.145 21.1849C186.425 20.968 185.76 20.5981 185.196 20.1004C182.504 17.7823 180.336 14.8211 177.718 12.4731C176.859 12.6819 176.044 13.0414 175.311 13.5349C168.266 18.3058 162.299 24.5872 155.569 29.7917C153.879 31.1078 152.174 32.394 150.469 33.6802C150.924 32.3446 151.088 30.9267 150.948 29.5225C150.275 29.3427 149.648 29.0215 149.108 28.5803C145.878 25.978 142.722 23.301 139.537 20.6538C138.714 20.9496 137.938 21.3626 137.233 21.8802C134.061 24.1471 131.062 26.6466 128.26 29.358C128.186 28.7957 128.066 28.2404 127.901 27.6979C127.28 27.9847 126.595 28.1051 125.913 28.0474C125.232 27.9897 124.577 27.7559 124.013 27.3689C121.396 25.502 118.899 23.4741 116.535 21.2969C112.796 22.284 110.208 25.0059 107.202 27.2792L105.707 28.4457C105.513 28.0718 105.293 27.712 105.049 27.3689C104.105 27.5006 103.145 27.2768 102.357 26.7408C101.076 25.7865 99.8576 24.7526 98.7075 23.645L98.214 23.1813C96.9403 22.9381 95.629 22.9738 94.3704 23.286C87.4758 25.1405 81.2991 29.8964 75.3767 34.0691C76.5282 32.7231 77.6948 31.3621 78.8314 29.9712C83.1536 24.6619 89.4948 18.889 91.6933 12.1739C91.4052 11.8889 91.1493 11.5729 90.9306 11.2317C90.108 9.87077 89.1808 8.50979 88.2086 7.17873C84.939 5.27105 81.9996 2.8468 79.5044 0C79.0292 0.123558 78.5642 0.28357 78.1136 0.478593C71.1592 3.46973 65.9546 9.06315 60.75 14.3724C57.041 18.1412 53.4516 22.0447 49.9819 26.0229C49.7726 25.4972 49.5068 24.9957 49.1893 24.5273C48.3395 24.7982 47.4339 24.8441 46.5611 24.6606C45.6882 24.4771 44.8779 24.0705 44.209 23.4804C42.7135 22.2391 41.0982 21.1025 39.483 19.9509C38.0585 20.0393 36.6704 20.437 35.4151 21.1162C34.1599 21.7955 33.0677 22.7401 32.2146 23.8842C24.4526 33.9793 2.67709 61.5127 9.9306 77.0667C6.31778 80.5483 3.28801 84.588 0.957186 89.0312C0.486354 90.0675 0.1641 91.1651 0 92.2915Z" fill="white"/>
</svg>
