<svg width="24" height="24" viewBox="0 0 24 24" fill="none" xmlns="http://www.w3.org/2000/svg">
<path d="M12 0C18.6274 0 24 5.37257 24 12C24 18.6273 18.6274 24 12 24C9.79933 24 7.73703 23.4077 5.96385 22.3736L0.00501623 24L1.62737 18.0378C0.592751 16.2643 0 14.2014 0 12C0 5.37257 5.37257 0 12 0ZM7.6696 6.36999C7.51433 6.3809 7.3621 6.41882 7.2235 6.48972C7.11952 6.54292 7.02299 6.6198 6.87132 6.76302C6.7281 6.89825 6.6451 7.01636 6.55764 7.13022C6.114 7.70783 5.87556 8.41685 5.87999 9.14517C5.8824 9.73391 6.03533 10.3061 6.27684 10.8403C6.7666 11.9237 7.57427 13.0689 8.64114 14.1311C8.89741 14.3862 9.14849 14.6441 9.41922 14.8824C10.7434 16.0483 12.3214 16.889 14.0276 17.3378C14.0276 17.3378 14.6996 17.441 14.7095 17.4416C14.9321 17.4536 15.1543 17.4375 15.3772 17.4261C15.7267 17.4081 16.068 17.3136 16.3769 17.1491C16.5755 17.0433 16.6694 16.9908 16.8361 16.8857C16.8361 16.8857 16.8872 16.8511 16.9859 16.7777C17.1479 16.6569 17.248 16.572 17.3827 16.4321C17.4821 16.3289 17.5675 16.2069 17.6335 16.0695C17.7274 15.8737 17.8218 15.4999 17.8594 15.1895C17.888 14.9523 17.8794 14.8227 17.8763 14.7425C17.8711 14.6133 17.7644 14.4805 17.6476 14.4241L16.9498 14.1104C16.9498 14.1104 15.9064 13.6563 15.2682 13.3652C15.2017 13.3349 15.129 13.3208 15.0559 13.3164C14.8958 13.3065 14.7164 13.3483 14.6023 13.4685C14.5963 13.4661 14.5169 13.5348 13.6487 14.5866C13.6008 14.6438 13.4886 14.7683 13.2946 14.7566C13.2653 14.7546 13.2361 14.7504 13.2077 14.7429C13.1291 14.7222 13.0525 14.6948 12.9776 14.6631C12.8292 14.6001 12.7771 14.5763 12.6757 14.5326C11.983 14.2299 11.3472 13.8251 10.7853 13.3296C10.6345 13.1969 10.4944 13.0539 10.3499 12.9139C9.84565 12.4251 9.43284 11.9053 9.12574 11.3925C9.10897 11.3646 9.08314 11.3241 9.05531 11.2789C9.00506 11.1972 8.94965 11.1 8.93227 11.0333C8.88767 10.8567 9.006 10.7149 9.006 10.7149C9.006 10.7149 9.29808 10.3956 9.43379 10.2219C9.56435 10.0548 9.67705 9.89135 9.74881 9.77483C9.89017 9.54758 9.93493 9.31273 9.86065 9.13154C9.52398 8.31077 9.17663 7.49442 8.81865 6.68272C8.74799 6.52253 8.53783 6.40614 8.34672 6.38408C8.28199 6.3766 8.21731 6.36909 8.15232 6.36482C7.99145 6.35697 7.83025 6.3587 7.6696 6.36999Z" fill="#000C1A"/>
</svg>
