<svg width="100" height="100" viewBox="0 0 100 100" fill="none" xmlns="http://www.w3.org/2000/svg">
<path d="M50 91.6666C26.9881 91.6666 8.33333 73.0116 8.33333 49.9999C8.33333 26.988 26.9881 8.33325 50 8.33325C73.0117 8.33325 91.6667 26.988 91.6667 49.9999C91.6667 73.0116 73.0117 91.6666 50 91.6666ZM44.2579 35.0607C43.9842 34.8782 43.6625 34.7808 43.3333 34.7808C42.4129 34.7808 41.6667 35.527 41.6667 36.4475V63.5524C41.6667 63.8816 41.7642 64.2033 41.9467 64.477C42.4571 65.2428 43.4921 65.4499 44.2579 64.9391L64.5867 51.3866C64.7696 51.2645 64.9267 51.1074 65.0487 50.9245C65.5596 50.1587 65.3525 49.1237 64.5867 48.6133L44.2579 35.0607Z" fill="white"/>
</svg>
