<svg width="41" height="38" viewBox="0 0 41 38" fill="none" xmlns="http://www.w3.org/2000/svg">
<path d="M40.4862 37.9831C40.4119 38.0055 40.3326 38.0055 40.2582 37.9831L29.4079 30.2785C27.5236 31.1447 13.5125 37.0106 3.40683 26.829C-0.954558 22.4524 -1.15209 15.7051 2.95095 9.62655C5.77247 5.40945 9.98341 2.31526 14.8509 0.882508C19.7183 -0.55024 24.9341 -0.230827 29.5903 1.78517C35.8209 4.39896 39.5136 7.86375 40.5622 12.2099C42.0818 18.5165 37.4165 24.1392 37.219 24.3671C37.1893 24.4117 37.1506 24.4495 37.1054 24.4781C37.0601 24.5067 37.0093 24.5253 36.9564 24.5329C36.9034 24.5405 36.8494 24.5368 36.798 24.5221C36.7465 24.5074 36.6987 24.4819 36.6578 24.4475C36.6169 24.413 36.5837 24.3702 36.5604 24.3221C36.5371 24.2739 36.5243 24.2213 36.5228 24.1678C36.5212 24.1143 36.531 24.0611 36.5515 24.0116C36.5719 23.9622 36.6026 23.9176 36.6415 23.8808C36.6415 23.8808 41.2004 18.2885 39.8175 12.3771C38.8298 8.30445 35.2586 4.97644 29.2864 2.46903C24.7904 0.532084 19.7579 0.231551 15.0633 1.61965C10.3688 3.00776 6.30887 5.99676 3.58918 10.0673C0.549884 14.6262 -0.969745 21.3278 3.93871 26.3123C14.3635 36.7826 29.1192 29.5947 29.2712 29.5187C29.3317 29.4855 29.3997 29.468 29.4687 29.468C29.5378 29.468 29.6058 29.4855 29.6663 29.5187L39.1641 36.2356L35.4258 30.005C35.3945 29.962 35.3726 29.9129 35.3615 29.861C35.3504 29.809 35.3503 29.7552 35.3613 29.7032C35.3722 29.6512 35.394 29.6021 35.4251 29.559C35.4563 29.5159 35.4961 29.4798 35.542 29.4531C35.588 29.4264 35.6391 29.4096 35.6919 29.4039C35.7448 29.3981 35.7982 29.4035 35.8489 29.4197C35.8995 29.436 35.9461 29.4626 35.9858 29.498C36.0255 29.5334 36.0573 29.5767 36.0792 29.6251L40.8053 37.4361C40.8559 37.5042 40.8832 37.5868 40.8832 37.6716C40.8832 37.7565 40.8559 37.839 40.8053 37.9072C40.7624 37.945 40.7109 37.9717 40.6552 37.9849C40.5996 37.9982 40.5415 37.9976 40.4862 37.9831Z" fill="white"/>
</svg>
