<svg width="19" height="19" viewBox="0 0 19 19" fill="none" xmlns="http://www.w3.org/2000/svg">
<path d="M4.88387 18.9681H4.79379C4.62445 19.0214 4.44102 19.0075 4.28166 18.9292C4.1223 18.851 3.99924 18.7143 3.93797 18.5477L0.0643211 9.65934C-0.00498641 9.51399 -0.0188162 9.34834 0.0254205 9.19352C0.0696571 9.03869 0.16892 8.90534 0.304552 8.81855L17.9161 0.050348C18.0777 -0.015808 18.2587 -0.0168061 18.421 0.0475759C18.5834 0.111958 18.7145 0.236711 18.7869 0.395665C18.8324 0.46802 18.8628 0.548883 18.8761 0.63333C18.8894 0.717776 18.8854 0.80404 18.8643 0.886893C18.8433 0.969747 18.8056 1.04744 18.7535 1.11528C18.7015 1.18311 18.6362 1.23967 18.5617 1.28149L1.40059 9.86953L5.01899 18.1873C5.08911 18.3133 5.11395 18.4595 5.08937 18.6016C5.06478 18.7436 4.99225 18.873 4.88387 18.9681Z" fill="white"/>
</svg>
