<svg width="74" height="104" viewBox="0 0 74 104" fill="none" xmlns="http://www.w3.org/2000/svg">
<path d="M46.5375 10.6403C46.2826 12.4844 51.2902 13.6388 55.3682 14.3884C55.0384 17.7468 52.8045 21.1352 49.731 24.2986C45.8478 22.1097 40.3155 19.2311 39.236 19.9358C38.1566 20.6404 43.7339 24.3586 47.3321 26.5176C44.7978 28.7305 42.1126 30.7644 39.296 32.6046C37.5718 30.9854 35.5328 29.6061 34.3184 30.3258C33.104 31.0454 33.4038 33.6391 34.0185 35.873C29.8056 38.3319 26.6421 39.8312 26.6421 39.8312C25.4157 35.906 24.4737 31.8975 23.8235 27.8369C24.0334 27.4172 24.2433 26.9973 24.4382 26.5475C25.1279 24.9733 24.4382 24.3137 23.3437 24.0888C23.0194 21.2205 22.9943 18.3263 23.2687 15.4529C28.0514 14.4634 33.8536 12.6043 31.6797 9.74069C30.3603 8.01652 27.9615 7.82161 25.4727 8.24141C25.8071 7.66843 26.1989 7.13091 26.6421 6.63717C35.3379 -2.94319 41.395 6.63717 41.395 6.63717C46.4476 2.42421 53.5391 3.56369 55.0684 10.1305C52.2947 9.44085 46.8673 8.36136 46.5375 10.6403Z" fill="#80BCFF"/>
<path opacity="0.3" d="M46.5375 10.6403C46.2826 12.4844 51.2902 13.6388 55.3682 14.3884C55.0384 17.7468 52.8045 21.1352 49.731 24.2986C45.8478 22.1097 40.3155 19.2311 39.236 19.9358C38.1566 20.6404 43.7339 24.3586 47.3321 26.5176C44.7978 28.7305 42.1126 30.7644 39.296 32.6046C37.5718 30.9854 35.5328 29.6061 34.3184 30.3258C33.104 31.0454 33.4038 33.6391 34.0185 35.873C29.8056 38.3319 26.6421 39.8312 26.6421 39.8312C25.4157 35.906 24.4737 31.8975 23.8235 27.8369C24.0334 27.4172 24.2433 26.9973 24.4382 26.5475C25.1279 24.9733 24.4382 24.3137 23.3437 24.0888C23.0194 21.2205 22.9943 18.3263 23.2687 15.4529C28.0514 14.4634 33.8536 12.6043 31.6797 9.74069C30.3603 8.01652 27.9615 7.82161 25.4727 8.24141C25.8071 7.66843 26.1989 7.13091 26.6421 6.63717C35.3379 -2.94319 41.395 6.63717 41.395 6.63717C46.4476 2.42421 53.5391 3.56369 55.0684 10.1305C52.2947 9.44085 46.8673 8.36136 46.5375 10.6403Z" fill="white"/>
<path d="M35.698 81.0012L36.9574 80.8963C36.9574 80.2516 31.8149 16.1426 46.193 10.1005C46.8789 9.77994 47.6298 9.62254 48.3867 9.64075C49.1437 9.65896 49.8861 9.85224 50.5559 10.2054C55.7583 12.9191 58.2472 24.1337 58.2622 24.2537L59.4915 23.9838C59.3866 23.504 56.8528 12.0796 51.1406 9.096C50.3089 8.6538 49.3861 8.41017 48.4445 8.38415C47.5029 8.35814 46.568 8.55045 45.7132 8.94606C30.4955 15.333 35.4731 78.3175 35.698 81.0012Z" fill="#80BCFF"/>
<path d="M33.8835 79.6069C34.1384 76.7283 40.0155 8.90109 29.0258 1.6446C26.4021 -0.0795663 24.0482 -0.454402 22.0542 0.550113C16.8667 3.17384 16.192 14.2685 16.162 14.7333L17.4214 14.8082C17.4214 14.7033 18.0811 3.96846 22.6239 1.67457C24.1232 0.894946 26.1172 1.22482 28.3512 2.69411C38.6962 9.48583 32.699 78.7374 32.6391 79.442L33.8835 79.6069Z" fill="#80BCFF"/>
<path d="M32.2343 85.0941C32.3243 82.8902 34.1234 30.9703 24.1232 26.4275C23.1854 25.9853 22.1615 25.7561 21.1247 25.7561C20.0879 25.7561 19.0639 25.9853 18.1261 26.4275C11.2594 29.426 7.01651 42.2448 6.85159 42.7846L8.03603 43.1744C8.03603 43.0395 12.279 30.3706 18.6209 27.5819C19.3926 27.2195 20.2347 27.0317 21.0872 27.0317C21.9398 27.0317 22.7818 27.2195 23.5535 27.5819C31.2148 31.0602 31.4697 70.2513 30.9149 85.0642L32.2343 85.0941Z" fill="#80BCFF"/>
<path d="M34.7837 82.7254L36.028 82.5755C34.2739 67.118 30.9005 25.9478 36.4029 21.0302C36.6697 20.7086 37.0247 20.472 37.4243 20.3494C37.8238 20.2269 38.2505 20.2238 38.6518 20.3406C42.34 21.7499 44.6489 35.1534 45.1437 40.1909L46.388 40.056C46.1781 38.1219 44.1691 21.1052 39.1016 19.1711C38.4855 18.9636 37.8221 18.941 37.1933 19.1062C36.5645 19.2714 35.9978 19.6171 35.5633 20.1007C28.4567 26.4426 34.5138 80.4165 34.7837 82.7254Z" fill="#80BCFF"/>
<path d="M55.743 53.4294H10.5998L14.378 104H51.9798L55.743 53.4294Z" fill="#80BCFF"/>
<path opacity="0.2" d="M42.0396 53.4294L40.7802 104H14.378L10.5998 53.4294H42.0396Z" fill="white"/>
<path d="M49.596 34.8684C50.0757 36.0978 53.584 35.1232 56.3277 34.1487C57.1822 36.7687 57.1558 39.5962 56.2527 42.1998C53.1042 42.1998 48.7564 42.2898 48.3216 43.0844C47.8868 43.8791 52.6395 44.2538 55.5631 44.3738C54.7622 46.6023 53.8052 48.7716 52.6994 50.8656C51.0802 50.4608 49.3261 50.2809 48.8463 51.1805C48.3666 52.0801 49.4161 53.5344 50.5705 54.7038C48.8163 57.7024 47.377 59.6664 47.377 59.6664C45.2737 57.6733 43.3194 55.5286 41.5299 53.2495C41.5299 52.9197 41.5299 52.5898 41.5299 52.245C41.4099 51.0456 40.7652 50.8506 40.0306 51.1055C38.8545 49.4421 37.8499 47.6639 37.032 45.7981C39.6408 43.5492 42.5794 40.4157 40.2555 39.3962C39.4914 39.1807 38.6827 39.1801 37.9183 39.3944C37.1539 39.6086 36.4633 40.0294 35.9225 40.6106C35.9313 40.1415 35.9865 39.6745 36.0875 39.2163C38.1715 30.3256 45.1881 34.1487 45.1881 34.1487C46.8673 29.8308 51.62 28.1516 54.8284 31.6299C52.7444 32.1547 49.0263 33.3541 49.596 34.8684Z" fill="#80BCFF"/>
<path opacity="0.3" d="M49.596 34.8684C50.0757 36.0978 53.584 35.1232 56.3277 34.1487C57.1822 36.7687 57.1558 39.5962 56.2527 42.1998C53.1042 42.1998 48.7564 42.2898 48.3216 43.0844C47.8868 43.8791 52.6395 44.2538 55.5631 44.3738C54.7622 46.6023 53.8052 48.7716 52.6994 50.8656C51.0802 50.4608 49.3261 50.2809 48.8463 51.1805C48.3666 52.0801 49.4161 53.5344 50.5705 54.7038C48.8163 57.7024 47.377 59.6664 47.377 59.6664C45.2737 57.6733 43.3194 55.5286 41.5299 53.2495C41.5299 52.9197 41.5299 52.5898 41.5299 52.245C41.4099 51.0456 40.7652 50.8506 40.0306 51.1055C38.8545 49.4421 37.8499 47.6639 37.032 45.7981C39.6408 43.5492 42.5794 40.4157 40.2555 39.3962C39.4914 39.1807 38.6827 39.1801 37.9183 39.3944C37.1539 39.6086 36.4633 40.0294 35.9225 40.6106C35.9313 40.1415 35.9865 39.6745 36.0875 39.2163C38.1715 30.3256 45.1881 34.1487 45.1881 34.1487C46.8673 29.8308 51.62 28.1516 54.8284 31.6299C52.7444 32.1547 49.0263 33.3541 49.596 34.8684Z" fill="white"/>
<path d="M16.0722 40.8656C17.4816 40.9874 18.8711 41.2794 20.2102 41.7352C20.5704 40.7745 20.7729 39.7619 20.8099 38.7366C21.0948 29.636 14.5879 33.4742 11.1396 30.7905C10.3551 30.1063 9.43674 29.5929 8.44294 29.2832C7.44914 28.9734 6.40175 28.874 5.36743 28.9914C5.66877 29.4684 5.92954 29.97 6.14704 30.4906C6.21532 30.6903 6.24071 30.9021 6.22153 31.1122C6.20234 31.3223 6.13902 31.526 6.03572 31.71C5.93241 31.894 5.79143 32.054 5.62201 32.1798C5.45259 32.3055 5.25855 32.3941 5.05255 32.4397C4.18611 32.6068 3.28906 32.4966 2.4888 32.1248C2.25645 31.994 2.03575 31.8436 1.82912 31.6751C1.28759 32.6172 0.869382 33.6249 0.584739 34.6736C0.247652 35.9477 0.0515478 37.2549 0 38.5717C0.507781 38.6874 1.00839 38.8326 1.49928 39.0066C1.69809 39.0902 1.87507 39.2184 2.01653 39.3813C2.15798 39.5441 2.26017 39.7373 2.31521 39.9459C2.37025 40.1545 2.37665 40.3729 2.33397 40.5843C2.29129 40.7958 2.20064 40.9946 2.06901 41.1655C1.52813 41.7137 0.893399 42.1605 0.194913 42.4848C0.429108 43.944 0.810898 45.3757 1.33438 46.7578H1.79915C2.14398 46.8327 2.45884 46.9077 2.78868 47.0127C2.97595 47.0551 3.15722 47.1206 3.32839 47.2076C3.54854 47.3076 3.74122 47.4593 3.89003 47.6499C4.03883 47.8405 4.13936 48.0642 4.18299 48.302C4.22004 48.5502 4.18945 48.8037 4.09446 49.0359C3.99946 49.2681 3.84357 49.4704 3.64323 49.6214C3.4296 49.7787 3.20405 49.919 2.96858 50.0412C3.83564 51.5492 5.08106 52.8049 6.58184 53.6844C7.89672 53.0793 9.17796 52.4037 10.42 51.6604C10.1351 51.2856 9.86524 50.9258 9.61036 50.5509C9.3098 50.1122 9.17679 49.5802 9.23554 49.0517C9.26655 48.8009 9.34755 48.5589 9.47374 48.3401C9.59992 48.1212 9.76872 47.9298 9.97017 47.7773C10.3747 47.4641 10.8869 47.3239 11.3945 47.3875C11.9028 47.4574 12.3646 47.7205 12.6839 48.1221C12.9837 48.5719 13.3136 48.9917 13.6434 49.4265C15.3812 48.1404 16.9392 46.6277 18.2762 44.9287H18.1262C17.2861 44.7087 16.4282 44.5632 15.5625 44.4939C15.0579 44.4229 14.6013 44.1573 14.2902 43.7537C13.9791 43.3502 13.8384 42.8409 13.8983 42.3349C14.0157 41.8651 14.3026 41.4552 14.7039 41.184C15.1052 40.9128 15.5925 40.7994 16.0722 40.8656Z" fill="#80BCFF"/>
<path opacity="0.5" d="M16.0722 40.8656C17.4816 40.9874 18.8711 41.2794 20.2102 41.7352C20.5704 40.7745 20.7729 39.7619 20.8099 38.7366C21.0948 29.636 14.5879 33.4742 11.1396 30.7905C10.3551 30.1063 9.43674 29.5929 8.44294 29.2832C7.44914 28.9734 6.40175 28.874 5.36743 28.9914C5.66877 29.4684 5.92954 29.97 6.14704 30.4906C6.21532 30.6903 6.24071 30.9021 6.22153 31.1122C6.20234 31.3223 6.13902 31.526 6.03572 31.71C5.93241 31.894 5.79143 32.054 5.62201 32.1798C5.45259 32.3055 5.25855 32.3941 5.05255 32.4397C4.18611 32.6068 3.28906 32.4966 2.4888 32.1248C2.25645 31.994 2.03575 31.8436 1.82912 31.6751C1.28759 32.6172 0.869382 33.6249 0.584739 34.6736C0.247652 35.9477 0.0515478 37.2549 0 38.5717C0.507781 38.6874 1.00839 38.8326 1.49928 39.0066C1.69809 39.0902 1.87507 39.2184 2.01653 39.3813C2.15798 39.5441 2.26017 39.7373 2.31521 39.9459C2.37025 40.1545 2.37665 40.3729 2.33397 40.5843C2.29129 40.7958 2.20064 40.9946 2.06901 41.1655C1.52813 41.7137 0.893399 42.1605 0.194913 42.4848C0.429108 43.944 0.810898 45.3757 1.33438 46.7578H1.79915C2.14398 46.8327 2.45884 46.9077 2.78868 47.0127C2.97595 47.0551 3.15722 47.1206 3.32839 47.2076C3.54854 47.3076 3.74122 47.4593 3.89003 47.6499C4.03883 47.8405 4.13936 48.0642 4.18299 48.302C4.22004 48.5502 4.18945 48.8037 4.09446 49.0359C3.99946 49.2681 3.84357 49.4704 3.64323 49.6214C3.4296 49.7787 3.20405 49.919 2.96858 50.0412C3.83564 51.5492 5.08106 52.8049 6.58184 53.6844C7.89672 53.0793 9.17796 52.4037 10.42 51.6604C10.1351 51.2856 9.86524 50.9258 9.61036 50.5509C9.3098 50.1122 9.17679 49.5802 9.23554 49.0517C9.26655 48.8009 9.34755 48.5589 9.47374 48.3401C9.59992 48.1212 9.76872 47.9298 9.97017 47.7773C10.3747 47.4641 10.8869 47.3239 11.3945 47.3875C11.9028 47.4574 12.3646 47.7205 12.6839 48.1221C12.9837 48.5719 13.3136 48.9917 13.6434 49.4265C15.3812 48.1404 16.9392 46.6277 18.2762 44.9287H18.1262C17.2861 44.7087 16.4282 44.5632 15.5625 44.4939C15.0579 44.4229 14.6013 44.1573 14.2902 43.7537C13.9791 43.3502 13.8384 42.8409 13.8983 42.3349C14.0157 41.8651 14.3026 41.4552 14.7039 41.184C15.1052 40.9128 15.5925 40.7994 16.0722 40.8656Z" fill="white"/>
<path d="M13.4787 9.47073C12.6854 8.92191 11.8299 8.46899 10.93 8.12139C11.1482 7.45759 11.4833 6.83813 11.9195 6.29227C15.7577 1.37465 17.4968 6.29227 20.4804 6.29227C21.1924 6.27213 21.9006 6.40184 22.5593 6.67304C23.2179 6.94424 23.8121 7.35085 24.3035 7.86649C23.927 7.99829 23.5611 8.15869 23.2091 8.34627C23.0781 8.41373 22.9644 8.5104 22.8769 8.62885C22.7893 8.7473 22.7302 8.88432 22.7041 9.02929C22.678 9.17426 22.6856 9.32333 22.7264 9.46487C22.7672 9.60642 22.84 9.73667 22.9392 9.84555C23.3236 10.3173 23.849 10.6536 24.4385 10.8051C24.6231 10.8206 24.8086 10.8206 24.9932 10.8051C24.8562 11.5463 24.6244 12.267 24.3035 12.9491C23.9295 13.77 23.4616 14.5447 22.9092 15.2579C22.5878 15.09 22.2575 14.9399 21.9197 14.8081C21.7787 14.7673 21.6303 14.7588 21.4855 14.7833C21.3408 14.8079 21.2035 14.8648 21.0838 14.9499C20.9642 15.0349 20.8653 15.1459 20.7945 15.2746C20.7238 15.4032 20.683 15.5461 20.6753 15.6927C20.7223 16.2122 20.8592 16.7195 21.0801 17.192C20.3158 17.8531 19.4871 18.4358 18.6063 18.9312L18.3214 18.7512L17.7067 18.4514C17.5852 18.3974 17.4599 18.3523 17.3319 18.3164C17.1718 18.2704 17.0027 18.2654 16.8402 18.3021C16.6777 18.3388 16.5271 18.416 16.4023 18.5264C16.275 18.6412 16.1802 18.7876 16.1275 18.9508C16.0749 19.114 16.0662 19.2883 16.1025 19.4559C16.147 19.6309 16.2072 19.8015 16.2824 19.9657C15.1659 20.3749 13.9625 20.4886 12.7891 20.2955C12.3616 19.4034 11.9862 18.4873 11.6646 17.5518L12.5642 17.312C12.9002 17.2308 13.194 17.0278 13.3888 16.7422C13.484 16.5951 13.5489 16.4305 13.5798 16.2581C13.6107 16.0856 13.6069 15.9087 13.5687 15.7377C13.4899 15.3976 13.2809 15.1019 12.9866 14.9142C12.6923 14.7264 12.3361 14.6614 11.9945 14.7332C11.6346 14.8382 11.2748 14.9131 10.915 14.9881C10.556 13.5577 10.3995 12.084 10.4502 10.6102H10.5402C11.0638 10.8684 11.5652 11.1692 12.0394 11.5097C12.3364 11.696 12.6947 11.7581 13.037 11.6823C13.3792 11.6066 13.678 11.3991 13.8686 11.1049C13.9952 10.8281 14.0257 10.5169 13.955 10.2207C13.8844 9.9246 13.7167 9.66059 13.4787 9.47073Z" fill="#80BCFF"/>
<path opacity="0.3" d="M13.4787 9.47073C12.6854 8.92191 11.8299 8.46899 10.93 8.12139C11.1482 7.45759 11.4833 6.83813 11.9195 6.29227C15.7577 1.37465 17.4968 6.29227 20.4804 6.29227C21.1924 6.27213 21.9006 6.40184 22.5593 6.67304C23.2179 6.94424 23.8121 7.35085 24.3035 7.86649C23.927 7.99829 23.5611 8.15869 23.2091 8.34627C23.0781 8.41373 22.9644 8.5104 22.8769 8.62885C22.7893 8.7473 22.7302 8.88432 22.7041 9.02929C22.678 9.17426 22.6856 9.32333 22.7264 9.46487C22.7672 9.60642 22.84 9.73667 22.9392 9.84555C23.3236 10.3173 23.849 10.6536 24.4385 10.8051C24.6231 10.8206 24.8086 10.8206 24.9932 10.8051C24.8562 11.5463 24.6244 12.267 24.3035 12.9491C23.9295 13.77 23.4616 14.5447 22.9092 15.2579C22.5878 15.09 22.2575 14.9399 21.9197 14.8081C21.7787 14.7673 21.6303 14.7588 21.4855 14.7833C21.3408 14.8079 21.2035 14.8648 21.0838 14.9499C20.9642 15.0349 20.8653 15.1459 20.7945 15.2746C20.7238 15.4032 20.683 15.5461 20.6753 15.6927C20.7223 16.2122 20.8592 16.7195 21.0801 17.192C20.3158 17.8531 19.4871 18.4358 18.6063 18.9312L18.3214 18.7512L17.7067 18.4514C17.5852 18.3974 17.4599 18.3523 17.3319 18.3164C17.1718 18.2704 17.0027 18.2654 16.8402 18.3021C16.6777 18.3388 16.5271 18.416 16.4023 18.5264C16.275 18.6412 16.1802 18.7876 16.1275 18.9508C16.0749 19.114 16.0662 19.2883 16.1025 19.4559C16.147 19.6309 16.2072 19.8015 16.2824 19.9657C15.1659 20.3749 13.9625 20.4886 12.7891 20.2955C12.3616 19.4034 11.9862 18.4873 11.6646 17.5518L12.5642 17.312C12.9002 17.2308 13.194 17.0278 13.3888 16.7422C13.484 16.5951 13.5489 16.4305 13.5798 16.2581C13.6107 16.0856 13.6069 15.9087 13.5687 15.7377C13.4899 15.3976 13.2809 15.1019 12.9866 14.9142C12.6923 14.7264 12.3361 14.6614 11.9945 14.7332C11.6346 14.8382 11.2748 14.9131 10.915 14.9881C10.556 13.5577 10.3995 12.084 10.4502 10.6102H10.5402C11.0638 10.8684 11.5652 11.1692 12.0394 11.5097C12.3364 11.696 12.6947 11.7581 13.037 11.6823C13.3792 11.6066 13.678 11.3991 13.8686 11.1049C13.9952 10.8281 14.0257 10.5169 13.955 10.2207C13.8844 9.9246 13.7167 9.66059 13.4787 9.47073Z" fill="white"/>
<path d="M50.2556 18.5862C50.5255 20.4303 45.5179 21.6597 41.4249 22.3344C41.7548 25.6927 43.9887 29.0811 47.0772 32.2446C50.9453 30.0557 56.4926 27.1771 57.5721 27.8817C58.6516 28.5864 53.0743 32.3796 49.461 34.4635C51.9765 36.6965 54.6414 38.7553 57.4372 40.6255C59.1763 39.0063 61.2153 37.627 62.4148 38.3467C63.6142 39.0663 63.3443 41.6601 62.7146 43.909C66.9426 46.3678 70.091 47.8521 70.091 47.8521C71.3171 43.9268 72.2591 39.9184 72.9097 35.8579C72.6998 35.4381 72.4899 35.0033 72.295 34.5535C71.6203 32.9793 72.295 32.3196 73.4044 32.0947C73.7038 29.2289 73.7038 26.3396 73.4044 23.4738C68.6367 22.4693 62.9095 20.6102 65.0085 17.7466C66.3129 16.0224 68.7117 15.8275 71.2155 16.2473C70.8814 15.6703 70.4841 15.1323 70.0311 14.6431C61.3503 5.06276 55.2782 14.6431 55.2782 14.6431C50.2406 10.4302 43.1491 11.6446 41.6048 18.1514C44.5134 17.3868 49.9258 16.3073 50.2556 18.5862Z" fill="#80BCFF"/>
<path opacity="0.5" d="M50.2556 18.5862C50.5255 20.4303 45.5179 21.6597 41.4249 22.3344C41.7548 25.6927 43.9887 29.0811 47.0772 32.2446C50.9453 30.0557 56.4926 27.1771 57.5721 27.8817C58.6516 28.5864 53.0743 32.3796 49.461 34.4635C51.9765 36.6965 54.6414 38.7553 57.4372 40.6255C59.1763 39.0063 61.2153 37.627 62.4148 38.3467C63.6142 39.0663 63.3443 41.6601 62.7146 43.909C66.9426 46.3678 70.091 47.8521 70.091 47.8521C71.3171 43.9268 72.2591 39.9184 72.9097 35.8579C72.6998 35.4381 72.4899 35.0033 72.295 34.5535C71.6203 32.9793 72.295 32.3196 73.4044 32.0947C73.7038 29.2289 73.7038 26.3396 73.4044 23.4738C68.6367 22.4693 62.9095 20.6102 65.0085 17.7466C66.3129 16.0224 68.7117 15.8275 71.2155 16.2473C70.8814 15.6703 70.4841 15.1323 70.0311 14.6431C61.3503 5.06276 55.2782 14.6431 55.2782 14.6431C50.2406 10.4302 43.1491 11.6446 41.6048 18.1514C44.5134 17.3868 49.9258 16.3073 50.2556 18.5862Z" fill="white"/>
</svg>
