<svg width="44" height="52" viewBox="0 0 44 52" fill="none" xmlns="http://www.w3.org/2000/svg">
<path d="M13.8551 51.9957H13.6609C13.4862 52.0148 13.3106 51.9691 13.1674 51.8672C13.0242 51.7653 12.9234 51.6144 12.8842 51.4431C9.19501 37.8962 0.23343 24.7973 0.143814 24.6778C0.0856631 24.5994 0.0438321 24.51 0.0207456 24.4151C-0.00234094 24.3202 -0.00621033 24.2216 0.0093959 24.1252C0.021099 24.0402 0.0529674 23.9593 0.102335 23.8891C0.151704 23.819 0.217142 23.7616 0.293183 23.7219C12.6751 17.18 42.323 0.242592 42.6217 0.0633608C42.7788 -0.0101368 42.9582 -0.0200894 43.1224 0.0355792C43.2866 0.0912478 43.423 0.208225 43.5029 0.362076C43.5998 0.506709 43.6354 0.683876 43.6018 0.854692C43.5682 1.02551 43.4682 1.17602 43.3237 1.27317C43.0399 1.43747 14.2583 17.867 1.50299 24.6181C3.35505 27.4559 10.7334 39.1508 14.0193 51.234C14.0909 51.3588 14.1137 51.5057 14.0833 51.6464C14.053 51.787 13.9717 51.9115 13.8551 51.9957Z" fill="white"/>
</svg>
