<svg width="48" height="27" viewBox="0 0 48 27" fill="none" xmlns="http://www.w3.org/2000/svg">
<path d="M10.2787 26.9999C10.1879 27.0011 10.0996 26.9696 10.0301 26.9111C9.9605 26.8527 9.91425 26.7712 9.89972 26.6815L8.73242 18.2526L0.318635 16.7366C0.233948 16.7231 0.156358 16.6812 0.0985319 16.6179C0.0407061 16.5546 0.00605355 16.4735 0.000266084 16.3879C-0.00298751 16.2994 0.0236755 16.2124 0.0759317 16.1409C0.128188 16.0694 0.202995 16.0175 0.288309 15.9938L8.70209 13.7501V2.65299C8.70209 2.55248 8.74203 2.45608 8.8131 2.38501C8.88418 2.31393 8.98057 2.27399 9.08109 2.27399C9.18161 2.27399 9.278 2.31393 9.34908 2.38501C9.42015 2.45608 9.46009 2.55248 9.46009 2.65299V14.0381C9.45918 14.1221 9.43041 14.2034 9.37827 14.2693C9.32613 14.3351 9.25359 14.3818 9.17205 14.402L2.13783 16.2818L9.14172 17.5098C9.22113 17.52 9.29461 17.5572 9.34982 17.6151C9.40503 17.6731 9.43863 17.7483 9.44494 17.8281L10.5971 26.1813L47.0871 24.0285V0.757998H12.0828C11.9822 0.757998 11.8858 0.718085 11.8148 0.647009C11.7437 0.575933 11.7038 0.479516 11.7038 0.378999C11.7038 0.278482 11.7437 0.182088 11.8148 0.111012C11.8858 0.0399356 11.9822 0 12.0828 0H47.4661C47.5654 0.00375185 47.6597 0.0448963 47.7299 0.115176C47.8002 0.185455 47.8413 0.27968 47.8451 0.378999V24.4227C47.8416 24.5195 47.8027 24.6117 47.7355 24.6817C47.6684 24.7516 47.5779 24.7943 47.4813 24.8017L10.2939 26.9999H10.2787Z" fill="white"/>
</svg>
