<svg width="243" height="186" viewBox="0 0 243 186" fill="none" xmlns="http://www.w3.org/2000/svg">
<path opacity="0.1" d="M243 93.7583C240.683 90.8579 238.754 87.6287 236.183 84.7882C235.692 84.2558 235.334 83.6157 235.136 82.9194C233.097 82.6514 231.023 82.9676 229.156 83.8313C221.92 87.0755 215.327 92.5623 209.601 97.9742C208.375 99.1254 207.12 100.217 205.864 101.323C211.515 95.0141 217.166 88.6901 222.892 82.441C223.735 81.5643 224.396 80.5286 224.835 79.394C225.274 78.2595 225.482 77.049 225.449 75.833C222.808 72.82 219.89 70.0621 216.733 67.5955C216.145 67.1951 215.638 66.6879 215.238 66.1004C212.994 66.294 210.919 67.3693 209.467 69.0905C197.223 82.3961 185.098 95.4775 171.568 107.408C172.659 105.913 173.751 104.418 174.797 102.818C181.899 92.2782 189.508 82.1569 197.447 72.23C203.038 65.2333 212.696 56.637 214.475 47.3679C214.116 46.9194 213.743 46.4559 213.354 46.0074C212.965 45.5589 212.352 44.8563 211.859 44.3031C211.36 44.2081 210.883 44.0205 210.453 43.75C208.076 42.2549 206.566 39.0257 208.465 36.4244C208.873 35.843 209.379 35.3371 209.96 34.9293C212.845 31.2965 215.671 27.6337 218.362 23.8513C218.502 23.6539 218.632 23.4493 218.751 23.2383C216.822 17.6918 212.218 13.6702 207.733 9.88782C206.104 10.2755 204.633 11.1519 203.517 12.3995C198.12 18.245 191.93 23.4028 186.937 29.6071C181.57 36.2599 177.144 43.6154 172.061 50.4626C171.969 50.5656 171.884 50.6756 171.807 50.7915C165.648 57.6386 159.473 64.4709 153.493 71.4676C148.291 76.73 143.028 81.9327 137.885 87.0456C129.767 95.2682 121.53 103.491 112.978 111.399C115.101 108.26 117.224 105.135 119.407 102.026C129.035 88.3164 139.724 75.3845 150.025 62.1835C155.108 55.6802 159.757 48.8779 164.676 42.2699C168.563 37.0672 174.379 32.3131 177.429 26.5872C178.059 25.4436 178.465 24.1903 178.625 22.8945C178.277 22.599 177.962 22.2683 177.683 21.9078C175.132 18.8868 171.954 16.4583 168.369 14.7915C167.571 14.402 166.913 13.7754 166.485 12.9975C165.046 13.4222 163.715 14.1513 162.583 15.1353C157.753 19.2999 153.193 23.7692 148.934 28.5157C150.328 26.2011 151.437 23.7263 152.238 21.1453C154.659 12.8779 145.435 6.79313 138.349 10.4709L137.736 10.7998C136.909 8.43059 135.259 6.43731 133.085 5.1832C130.912 3.9291 128.36 3.49769 125.895 3.96757C123.159 0.319727 118.42 -1.59389 114.07 1.68019C96.3389 15.225 79.4452 30.2201 62.7159 45.0357C61.2209 46.3812 59.7259 47.7417 58.2309 49.1021C61.1256 44.5466 64.2492 40.1406 67.5897 35.9011C71.4319 31.0274 76.784 25.9443 78.8322 19.8895C78.6221 19.7617 78.4265 19.6113 78.2492 19.441C73.8552 15.4476 70.1524 10.7546 67.2907 5.55228C67.2963 5.50761 67.2963 5.46241 67.2907 5.41773C59.8156 7.09215 52.0116 11.9211 45.7026 15.5539C37.5666 20.3809 29.8812 25.9299 22.7392 32.1337C22.7484 32.9146 22.6115 33.6904 22.3355 34.421C22.1665 34.8438 21.9667 35.2535 21.7375 35.647V36.9775C22.3538 38.1937 22.8543 39.465 23.2325 40.7749C24.394 41.3185 25.3785 42.1787 26.0731 43.2566C26.7392 44.4624 27.0648 45.8268 27.0149 47.2034C27.0149 47.5772 26.9253 47.9509 26.8655 48.3247C27.5776 48.8674 28.1007 49.6207 28.3605 50.4775C30.077 50.1592 31.6742 49.3787 32.9801 48.22C34.9535 46.5008 36.9568 44.8413 38.9601 43.2118C36.3737 47.5323 33.907 51.9277 31.3953 56.1287C27 63.529 22.4253 70.7051 17.3571 77.7018C13.515 83.024 8.38703 87.6586 7.74417 93.5489C11.3173 96.539 13.799 100.381 16.8937 103.894C17.0514 104.084 17.1962 104.284 17.3272 104.492C20.5611 104.223 23.6611 103.081 26.2973 101.188C25.4751 102.16 24.6678 103.147 23.9203 104.179C17.1478 113.448 7.57973 120.938 1.49502 130.595C0.765377 131.687 0.257407 132.911 0 134.198L2.12292 136.889C2.72589 137.566 3.139 138.389 3.32019 139.277C3.50139 140.165 3.44422 141.084 3.15449 141.943L3.30397 142.077C3.04982 142.376 2.79567 142.66 2.55647 142.974C1.53825 144.262 0.813717 145.757 0.433545 147.355C3.26482 151.798 6.79925 155.751 10.8987 159.061C16.4601 158.657 21.3638 155.039 26.2824 152.213C29.6312 150.285 32.9651 148.311 36.2691 146.233C34.5903 148.341 33.1838 150.651 32.083 153.11C31.6787 154.065 31.4119 155.071 31.2907 156.1C31.567 156.256 31.8318 156.43 32.083 156.624C36.2006 159.619 40.0205 163.003 43.49 166.73C44.0027 166.539 44.5021 166.314 44.985 166.057C48.2279 164.289 51.3585 162.321 54.3588 160.167C53.8778 161.552 53.6302 163.007 53.6262 164.473C54.371 164.367 55.1298 164.425 55.85 164.641C56.5702 164.858 57.2347 165.229 57.7973 165.728C60.4884 168.046 62.6561 171.006 65.2724 173.353C66.1312 173.144 66.9461 172.785 67.6794 172.291C74.7209 167.522 80.686 161.243 87.4136 156.041C89.103 154.725 90.8073 153.439 92.5116 152.154C92.0636 153.49 91.9006 154.906 92.0332 156.31C92.7061 156.49 93.333 156.811 93.8721 157.252C97.1013 159.853 100.256 162.529 103.455 165.175C104.271 164.876 105.041 164.463 105.743 163.949C108.914 161.683 111.912 159.185 114.713 156.474C114.793 157.035 114.913 157.59 115.071 158.134C115.692 157.847 116.377 157.727 117.058 157.784C117.74 157.842 118.395 158.076 118.958 158.463C121.57 160.333 124.067 162.36 126.434 164.532C130.156 163.546 132.743 160.825 135.747 158.552L137.242 157.386C137.436 157.76 137.656 158.12 137.9 158.463C138.844 158.329 139.804 158.553 140.591 159.09C141.875 160.04 143.093 161.074 144.239 162.185L144.733 162.649C146.006 162.892 147.317 162.856 148.575 162.544C155.482 160.69 161.656 155.936 167.576 151.765C166.41 153.11 165.244 154.471 164.108 155.861C159.787 161.169 153.448 166.939 151.251 173.652C151.543 173.933 151.799 174.249 152.013 174.594C152.836 175.954 153.762 177.315 154.749 178.645C158.01 180.556 160.943 182.979 163.435 185.821C163.915 185.698 164.385 185.538 164.841 185.343C171.792 182.353 176.98 176.762 182.183 171.454C185.905 167.687 189.478 163.785 192.962 159.808C193.166 160.333 193.427 160.834 193.739 161.303C194.589 161.032 195.494 160.986 196.366 161.17C197.239 161.353 198.049 161.76 198.718 162.35C200.213 163.59 201.842 164.727 203.442 165.878C204.866 165.789 206.253 165.392 207.508 164.713C208.763 164.034 209.855 163.09 210.708 161.946C218.467 151.855 240.234 124.331 232.983 108.783C236.609 105.281 239.639 101.211 241.953 96.7333C242.441 95.7958 242.793 94.7942 243 93.7583Z" fill="white"/>
</svg>
