<svg width="223" height="224" viewBox="0 0 223 224" fill="none" xmlns="http://www.w3.org/2000/svg">
<g opacity="0.3">
<path d="M219.923 218.505H211.829V0H201.63V218.505H193.536C192.944 218.516 192.38 218.758 191.965 219.18C191.549 219.601 191.315 220.168 191.311 220.759V224H222.238V220.759C222.236 220.459 222.174 220.162 222.056 219.885C221.939 219.608 221.767 219.358 221.552 219.148C221.336 218.938 221.082 218.773 220.802 218.663C220.522 218.552 220.224 218.499 219.923 218.505Z" fill="white"/>
<path d="M28.6571 218.505H20.5632V0H10.3637V218.505H2.26987C1.67045 218.505 1.09534 218.742 0.670081 219.164C0.244825 219.587 0.0039436 220.16 0 220.759V224H30.9269V220.759C30.923 220.16 30.6821 219.587 30.2568 219.164C29.8316 218.742 29.2565 218.505 28.6571 218.505Z" fill="white"/>
</g>
</svg>
