<svg width="15" height="3" viewBox="0 0 15 3" fill="none" xmlns="http://www.w3.org/2000/svg">
<path d="M14.7239 2.6248C14.6199 2.69111 14.4956 2.71814 14.3734 2.70099L0.659072 1.36003C0.4786 1.33452 0.313238 1.24517 0.193018 1.10817C0.072797 0.971176 0.00569467 0.795611 0.00384307 0.613355C-0.00595838 0.530951 0.00304446 0.447394 0.0302103 0.368981C0.0573762 0.290568 0.101972 0.21935 0.160651 0.160671C0.219331 0.101991 0.290572 0.0573955 0.368985 0.0302296C0.447398 0.00306377 0.530955 -0.00596232 0.613359 0.00383913L14.3277 1.3448C14.5084 1.36654 14.6753 1.45225 14.7983 1.58641C14.9213 1.72057 14.9922 1.89432 14.9982 2.07623C15.0066 2.18396 14.9856 2.29197 14.9372 2.38863C14.8889 2.48529 14.8152 2.56694 14.7239 2.6248Z" fill="white"/>
</svg>
