<svg width="7" height="15" viewBox="0 0 7 15" fill="none" xmlns="http://www.w3.org/2000/svg">
<path d="M1.05908 14.9098C0.96391 14.9687 0.854184 14.9999 0.742262 14.9999C0.630339 14.9999 0.520662 14.9687 0.425495 14.9098C0.256392 14.8215 0.124817 14.6752 0.0549762 14.4976C-0.0148645 14.3201 -0.0182624 14.1234 0.0453567 13.9436L5.38335 0.368866C5.41575 0.287661 5.46591 0.21473 5.53015 0.155425C5.5944 0.0961198 5.67106 0.0519607 5.75459 0.026142C5.83812 0.000323206 5.92637 -0.00648569 6.01287 0.00622624C6.09937 0.0189382 6.18194 0.0508342 6.25452 0.0995933C6.41915 0.192553 6.54682 0.339322 6.61604 0.515261C6.68527 0.691201 6.69181 0.885599 6.63465 1.06582L1.28086 14.6405C1.23434 14.7497 1.15733 14.8432 1.05908 14.9098Z" fill="white"/>
</svg>
