<svg width="45" height="42" viewBox="0 0 45 42" fill="none" xmlns="http://www.w3.org/2000/svg">
<path d="M22.5708 41.9999C13.4319 41.9999 3.0045 38.2694 0.682314 31.1231C-3.12308 19.4223 10.1209 12.3358 12.533 11.1672L6.63011 0.545109C6.59206 0.468558 6.58024 0.381621 6.59649 0.297689C6.61273 0.213758 6.65613 0.137497 6.72 0.0806747C6.78613 0.0284221 6.86796 0 6.95224 0C7.03652 0 7.11833 0.0284221 7.18446 0.0806747L17.3721 7.43677C17.4202 7.4614 17.4624 7.49615 17.4958 7.53864C17.5293 7.58112 17.5531 7.63032 17.5657 7.68289C17.5783 7.73545 17.5794 7.79012 17.5688 7.84314C17.5583 7.89616 17.5364 7.94626 17.5047 7.99002C17.473 8.03378 17.4322 8.07015 17.385 8.09664C17.3379 8.12313 17.2856 8.13913 17.2318 8.1435C17.1779 8.14788 17.1237 8.14052 17.0729 8.12197C17.0222 8.10342 16.976 8.07411 16.9376 8.03604L8.11333 1.66875L13.3869 11.1672C13.4095 11.214 13.4212 11.2652 13.4212 11.3171C13.4212 11.3689 13.4095 11.4202 13.3869 11.4669C13.3529 11.5638 13.2833 11.6442 13.1922 11.6916C13.0274 11.6916 -2.56874 18.7631 1.37149 30.9133C3.30415 36.8312 12.3832 41.2658 22.5558 41.2658H22.7057C32.9682 41.2658 40.4592 36.8761 42.7364 29.6399C43.3613 28.0348 43.5921 26.3034 43.4096 24.5907C43.2272 22.8781 42.6367 21.2341 41.6877 19.7968C36.489 12.4107 21.3723 11.7216 21.2225 11.7216C21.1733 11.7197 21.1249 11.708 21.0802 11.6874C21.0355 11.6668 20.9953 11.6375 20.9619 11.6014C20.9285 11.5652 20.9026 11.5228 20.8856 11.4766C20.8686 11.4304 20.8609 11.3812 20.8629 11.332C20.8627 11.2822 20.8729 11.2328 20.8928 11.1871C20.9127 11.1415 20.9419 11.1004 20.9786 11.0666C21.0152 11.0328 21.0584 11.007 21.1056 10.9908C21.1527 10.9746 21.2027 10.9683 21.2524 10.9725C21.8817 10.9725 36.8785 11.6766 42.3019 19.3623C43.3177 20.8914 43.9514 22.6421 44.1495 24.4672C44.3477 26.2922 44.1045 28.1381 43.4406 29.8496C41.0584 37.4155 33.3128 41.94 22.7206 41.9999H22.5708Z" fill="white"/>
</svg>
